<svg width="405" height="400" viewBox="0 0 405 400" fill="none" xmlns="http://www.w3.org/2000/svg">
<g style="mix-blend-mode:multiply" filter="url(#filter0_f_1680_5052)">
<ellipse cx="202.243" cy="199.611" rx="96.4792" ry="93.8479" fill="#808080"/>
</g>
<path d="M198.549 60.8895C205.204 57.1636 213.317 57.1636 219.972 60.8895L221.728 61.8726C226.281 64.422 231.595 65.2637 236.714 64.2462L238.688 63.8538C246.169 62.3669 253.884 64.8739 259.062 70.4739L260.429 71.9515C263.972 75.7834 268.765 78.2259 273.948 78.84L275.947 79.0768C283.521 79.9743 290.084 84.743 293.278 91.6689L294.121 93.4964C296.307 98.2357 300.111 102.04 304.85 104.226L306.678 105.068C313.604 108.262 318.372 114.826 319.27 122.4L319.506 124.398C320.121 129.581 322.563 134.375 326.395 137.918L327.873 139.284C333.473 144.462 335.98 152.178 334.493 159.659L334.1 161.632C333.083 166.751 333.924 172.065 336.474 176.619L337.457 178.375C341.183 185.03 341.183 193.143 337.457 199.798L336.474 201.554C333.924 206.108 333.083 211.421 334.1 216.54L334.493 218.514C335.98 225.995 333.473 233.711 327.873 238.889L326.395 240.255C322.563 243.798 320.121 248.592 319.506 253.774L319.27 255.773C318.372 263.347 313.604 269.91 306.678 273.104L304.85 273.947C300.111 276.133 296.307 279.937 294.121 284.676L293.278 286.504C290.084 293.43 283.521 298.198 275.947 299.096L273.948 299.333C268.765 299.947 263.972 302.389 260.429 306.221L259.062 307.699C253.884 313.299 246.169 315.806 238.688 314.319L236.714 313.926C231.595 312.909 226.281 313.751 221.728 316.3L219.972 317.283C213.317 321.009 205.204 321.009 198.549 317.283L196.793 316.3C192.239 313.751 186.925 312.909 181.806 313.926L179.832 314.319C172.352 315.806 164.636 313.299 159.458 307.699L158.092 306.221C154.549 302.389 149.755 299.947 144.572 299.333L142.574 299.096C135 298.198 128.436 293.43 125.242 286.504L124.399 284.676C122.214 279.937 118.409 276.133 113.67 273.947L111.843 273.104C104.917 269.91 100.148 263.347 99.2506 255.773L99.0138 253.774C98.3997 248.592 95.9572 243.798 92.1253 240.255L90.6477 238.889C85.0477 233.711 82.5407 225.995 84.0277 218.514L84.42 216.54C85.4375 211.421 84.5959 206.108 82.0464 201.554L81.0633 199.798C77.3375 193.143 77.3375 185.03 81.0633 178.375L82.0464 176.619C84.5959 172.065 85.4375 166.751 84.42 161.632L84.0277 159.659C82.5407 152.178 85.0477 144.462 90.6477 139.284L92.1253 137.918C95.9572 134.375 98.3997 129.581 99.0138 124.398L99.2506 122.4C100.148 114.826 104.917 108.262 111.843 105.068L113.67 104.226C118.409 102.04 122.214 98.2357 124.399 93.4964L125.242 91.669C128.436 84.743 135 79.9743 142.574 79.0768L144.572 78.84C149.755 78.2259 154.549 75.7834 158.092 71.9515L159.458 70.4739C164.636 64.8739 172.352 62.3669 179.832 63.8538L181.806 64.2462C186.925 65.2637 192.239 64.422 196.793 61.8725L198.549 60.8895Z" fill="url(#paint0_linear_1680_5052)"/>
<path d="M198.034 63.9744C204.689 60.2486 212.802 60.2486 219.457 63.9744L220.689 64.6644C225.243 67.2138 230.557 68.0555 235.675 67.038L237.061 66.7626C244.541 65.2757 252.257 67.7827 257.435 73.3827L258.394 74.4197C261.937 78.2516 266.731 80.6941 271.913 81.3082L273.316 81.4744C280.89 82.3719 287.454 87.1406 290.648 94.0666L291.239 95.3491C293.425 100.088 297.229 103.893 301.968 106.078L303.251 106.67C310.177 109.864 314.945 116.427 315.843 124.001L316.009 125.404C316.623 130.586 319.066 135.38 322.898 138.923L323.935 139.882C329.535 145.06 332.042 152.776 330.555 160.257L330.279 161.642C329.262 166.761 330.103 172.075 332.653 176.628L333.343 177.861C337.069 184.516 337.069 192.629 333.343 199.284L332.653 200.516C330.103 205.07 329.262 210.384 330.279 215.503L330.555 216.888C332.042 224.368 329.535 232.084 323.935 237.262L322.898 238.221C319.066 241.764 316.623 246.558 316.009 251.741L315.843 253.143C314.945 260.717 310.177 267.281 303.251 270.475L301.968 271.066C297.229 273.252 293.425 277.056 291.239 281.795L290.648 283.078C287.454 290.004 280.89 294.773 273.316 295.67L271.913 295.836C266.731 296.45 261.937 298.893 258.394 302.725L257.435 303.762C252.257 309.362 244.541 311.869 237.061 310.382L235.675 310.106C230.557 309.089 225.243 309.931 220.689 312.48L219.457 313.17C212.802 316.896 204.689 316.896 198.034 313.17L196.801 312.48C192.247 309.931 186.934 309.089 181.815 310.106L180.43 310.382C172.949 311.869 165.233 309.362 160.055 303.762L159.096 302.725C155.553 298.893 150.759 296.45 145.577 295.836L144.174 295.67C136.6 294.773 130.037 290.004 126.843 283.078L126.251 281.795C124.065 277.056 120.261 273.252 115.522 271.066L114.239 270.475C107.313 267.281 102.545 260.717 101.647 253.143L101.481 251.741C100.867 246.558 98.4245 241.764 94.5926 238.221L93.5556 237.262C87.9556 232.084 85.4485 224.368 86.9355 216.888L87.2108 215.503C88.2283 210.384 87.3867 205.07 84.8372 200.516L84.1473 199.284C80.4214 192.629 80.4214 184.516 84.1473 177.861L84.8372 176.628C87.3867 172.075 88.2283 166.761 87.2108 161.642L86.9355 160.257C85.4485 152.776 87.9556 145.06 93.5556 139.882L94.5926 138.923C98.4245 135.38 100.867 130.586 101.481 125.404L101.647 124.001C102.545 116.427 107.313 109.864 114.239 106.67L115.522 106.078C120.261 103.893 124.065 100.088 126.251 95.3491L126.843 94.0666C130.037 87.1406 136.6 82.3719 144.174 81.4744L145.577 81.3082C150.759 80.6941 155.553 78.2516 159.096 74.4197L160.055 73.3827C165.233 67.7827 172.949 65.2757 180.429 66.7626L181.815 67.038C186.934 68.0555 192.247 67.2138 196.801 64.6644L198.034 63.9744Z" fill="url(#paint1_linear_1680_5052)"/>
<path d="M198.959 82.4797C205.039 79.0758 212.451 79.0758 218.531 82.4797C222.691 84.8088 227.546 85.5777 232.222 84.6482C239.056 83.2897 246.106 85.5801 250.836 90.6962C254.073 94.197 258.453 96.4284 263.187 96.9895C270.107 97.8094 276.103 102.166 279.021 108.494C281.018 112.823 284.494 116.299 288.823 118.296C295.151 121.214 299.508 127.21 300.327 134.129C300.888 138.864 303.12 143.244 306.621 146.481C311.737 151.211 314.027 158.26 312.669 165.095C311.739 169.771 312.508 174.626 314.837 178.786C318.241 184.866 318.241 192.278 314.837 198.358C312.508 202.518 311.739 207.373 312.669 212.049C314.027 218.884 311.737 225.933 306.621 230.663C303.12 233.9 300.888 238.28 300.327 243.015C299.508 249.934 295.151 255.931 288.823 258.849C284.494 260.845 281.018 264.321 279.021 268.651C276.103 274.978 270.107 279.335 263.187 280.155C258.453 280.716 254.073 282.947 250.836 286.448C246.106 291.564 239.056 293.854 232.222 292.496C227.546 291.566 222.691 292.335 218.531 294.664C212.451 298.068 205.039 298.068 198.959 294.664C194.799 292.335 189.944 291.566 185.268 292.496C178.433 293.854 171.384 291.564 166.654 286.448C163.417 282.947 159.037 280.716 154.302 280.155C147.383 279.335 141.386 274.978 138.468 268.651C136.472 264.321 132.996 260.845 128.666 258.849C122.339 255.931 117.982 249.934 117.162 243.015C116.601 238.28 114.37 233.9 110.869 230.663C105.753 225.933 103.463 218.884 104.821 212.049C105.751 207.373 104.982 202.518 102.653 198.358C99.2486 192.278 99.2486 184.866 102.653 178.786C104.982 174.626 105.751 169.771 104.821 165.095C103.463 158.26 105.753 151.211 110.869 146.481C114.37 143.244 116.601 138.864 117.162 134.129C117.982 127.21 122.339 121.214 128.666 118.296C132.996 116.299 136.472 112.823 138.468 108.494C141.386 102.166 147.383 97.8094 154.302 96.9895C159.037 96.4284 163.417 94.197 166.654 90.6962C171.384 85.5801 178.433 83.2897 185.268 84.6482C189.944 85.5777 194.799 84.8088 198.959 82.4797Z" fill="url(#paint2_linear_1680_5052)"/>
<path d="M199.275 85.9021C205.159 82.608 212.332 82.608 218.216 85.9021C222.242 88.1561 226.94 88.9002 231.465 88.0006C238.079 86.686 244.901 88.9025 249.479 93.8535C252.611 97.2414 256.85 99.4009 261.432 99.9438C268.128 100.737 273.931 104.953 276.755 111.077C278.687 115.267 282.051 118.63 286.241 120.563C292.364 123.386 296.58 129.189 297.374 135.886C297.917 140.468 300.076 144.706 303.464 147.839C308.415 152.416 310.632 159.238 309.317 165.852C308.417 170.378 309.161 175.076 311.415 179.102C314.71 184.986 314.71 192.159 311.415 198.042C309.161 202.068 308.417 206.767 309.317 211.292C310.632 217.906 308.415 224.728 303.464 229.306C300.076 232.438 297.917 236.676 297.374 241.258C296.58 247.955 292.364 253.758 286.241 256.582C282.051 258.514 278.687 261.877 276.755 266.067C273.931 272.191 268.128 276.407 261.432 277.2C256.85 277.743 252.611 279.903 249.479 283.291C244.901 288.242 238.079 290.458 231.465 289.144C226.94 288.244 222.242 288.988 218.216 291.242C212.332 294.536 205.159 294.536 199.275 291.242C195.249 288.988 190.551 288.244 186.025 289.144C179.412 290.458 172.59 288.242 168.012 283.291C164.879 279.903 160.641 277.743 156.059 277.2C149.363 276.407 143.56 272.191 140.736 266.067C138.804 261.877 135.44 258.514 131.25 256.582C125.127 253.758 120.911 247.955 120.117 241.258C119.574 236.676 117.415 232.438 114.027 229.306C109.076 224.728 106.859 217.906 108.174 211.292C109.074 206.767 108.329 202.068 106.075 198.042C102.781 192.159 102.781 184.986 106.075 179.102C108.329 175.076 109.074 170.378 108.174 165.852C106.859 159.238 109.076 152.416 114.027 147.839C117.415 144.706 119.574 140.468 120.117 135.886C120.911 129.189 125.127 123.386 131.25 120.563C135.44 118.63 138.804 115.267 140.736 111.077C143.56 104.953 149.363 100.737 156.059 99.9438C160.641 99.4009 164.879 97.2414 168.012 93.8535C172.59 88.9025 179.412 86.686 186.025 88.0006C190.551 88.9002 195.249 88.1561 199.275 85.9021Z" fill="url(#paint3_linear_1680_5052)"/>
<path d="M171.791 163.37V164.255H174.41V182.132H171.791V183.016H182.989C185.98 183.016 188.14 182.132 189.472 180.364C190.127 179.447 190.454 178.444 190.454 177.352C190.454 174.929 189.133 173.368 186.492 172.67C186.011 172.539 185.509 172.44 184.986 172.374C186.95 171.741 188.206 170.661 188.752 169.133C188.905 168.674 188.982 168.228 188.982 167.79C188.982 165.761 187.856 164.417 185.608 163.763C184.67 163.501 183.599 163.37 182.399 163.37H171.791ZM178.994 164.255H180.565C182.989 164.298 184.211 165.565 184.231 168.053C184.231 170.104 183.468 171.349 181.94 171.785C181.59 171.872 181.22 171.916 180.827 171.916H178.994V164.255ZM178.994 172.832H181.677C183.426 172.832 184.581 173.651 185.149 175.287C185.346 175.856 185.445 176.467 185.445 177.122C185.445 180.091 184.309 181.739 182.038 182.067C181.754 182.111 181.471 182.132 181.187 182.132H178.994V172.832Z" fill="url(#paint4_linear_1680_5052)"/>
<path d="M171.791 163.37V164.255H174.41V182.132H171.791V183.016H182.989C185.98 183.016 188.14 182.132 189.472 180.364C190.127 179.447 190.454 178.444 190.454 177.352C190.454 174.929 189.133 173.368 186.492 172.67C186.011 172.539 185.509 172.44 184.986 172.374C186.95 171.741 188.206 170.661 188.752 169.133C188.905 168.674 188.982 168.228 188.982 167.79C188.982 165.761 187.856 164.417 185.608 163.763C184.67 163.501 183.599 163.37 182.399 163.37H171.791ZM178.994 164.255H180.565C182.989 164.298 184.211 165.565 184.231 168.053C184.231 170.104 183.468 171.349 181.94 171.785C181.59 171.872 181.22 171.916 180.827 171.916H178.994V164.255ZM178.994 172.832H181.677C183.426 172.832 184.581 173.651 185.149 175.287C185.346 175.856 185.445 176.467 185.445 177.122C185.445 180.091 184.309 181.739 182.038 182.067C181.754 182.111 181.471 182.132 181.187 182.132H178.994V172.832Z" fill="white"/>
<path d="M191.928 163.37V164.255H194.547V182.132H191.928V183.016H208.299L208.43 176.73H207.479L206.727 178.988C206.159 180.67 205.253 181.673 204.009 182.002C203.638 182.089 203.244 182.132 202.829 182.132H199.13V173.39H205.418V172.408H199.13V164.255H202.829C204.62 164.255 205.853 165.106 206.53 166.808C206.617 167.005 206.694 167.202 206.76 167.397L207.479 169.657H208.43L208.299 163.37H191.928Z" fill="url(#paint5_linear_1680_5052)"/>
<path d="M191.928 163.37V164.255H194.547V182.132H191.928V183.016H208.299L208.43 176.73H207.479L206.727 178.988C206.159 180.67 205.253 181.673 204.009 182.002C203.638 182.089 203.244 182.132 202.829 182.132H199.13V173.39H205.418V172.408H199.13V164.255H202.829C204.62 164.255 205.853 165.106 206.53 166.808C206.617 167.005 206.694 167.202 206.76 167.397L207.479 169.657H208.43L208.299 163.37H191.928Z" fill="white"/>
<path d="M213.182 165.106C212.33 166.001 211.905 167.06 211.905 168.282C211.905 170.094 212.941 171.644 215.015 172.932C215.276 173.105 216.456 173.728 218.551 174.797C220.427 175.779 221.597 176.73 222.054 177.648C222.251 178.083 222.349 178.531 222.349 178.988C222.349 180.561 221.65 181.608 220.255 182.132C219.751 182.307 219.195 182.395 218.582 182.395C216.269 182.395 214.643 181.337 213.705 179.218C213.311 178.324 213.072 177.296 212.985 176.14H211.709V183.082C212.297 183.082 212.646 182.908 212.755 182.558C212.8 182.34 212.821 182.045 212.821 181.673C214.502 182.788 216.532 183.344 218.911 183.344C221.682 183.344 223.812 182.635 225.297 181.214C226.322 180.211 226.836 178.988 226.836 177.548C226.836 175.737 225.841 174.187 223.856 172.899C223.572 172.746 222.425 172.135 220.416 171.065C218.582 170.105 217.439 169.155 216.98 168.216C216.761 167.759 216.652 167.278 216.652 166.776C216.652 165.488 217.275 164.637 218.518 164.222C218.932 164.091 219.37 164.025 219.828 164.025C221.617 164.025 222.959 164.701 223.856 166.056C224.4 166.906 224.684 167.921 224.707 169.1H225.983V163.174C225.373 163.174 225.013 163.383 224.904 163.796C224.881 163.949 224.87 164.123 224.87 164.32C223.057 163.468 221.149 163.043 219.14 163.043C216.499 163.043 214.513 163.732 213.182 165.106Z" fill="url(#paint6_linear_1680_5052)"/>
<path d="M213.182 165.106C212.33 166.001 211.905 167.06 211.905 168.282C211.905 170.094 212.941 171.644 215.015 172.932C215.276 173.105 216.456 173.728 218.551 174.797C220.427 175.779 221.597 176.73 222.054 177.648C222.251 178.083 222.349 178.531 222.349 178.988C222.349 180.561 221.65 181.608 220.255 182.132C219.751 182.307 219.195 182.395 218.582 182.395C216.269 182.395 214.643 181.337 213.705 179.218C213.311 178.324 213.072 177.296 212.985 176.14H211.709V183.082C212.297 183.082 212.646 182.908 212.755 182.558C212.8 182.34 212.821 182.045 212.821 181.673C214.502 182.788 216.532 183.344 218.911 183.344C221.682 183.344 223.812 182.635 225.297 181.214C226.322 180.211 226.836 178.988 226.836 177.548C226.836 175.737 225.841 174.187 223.856 172.899C223.572 172.746 222.425 172.135 220.416 171.065C218.582 170.105 217.439 169.155 216.98 168.216C216.761 167.759 216.652 167.278 216.652 166.776C216.652 165.488 217.275 164.637 218.518 164.222C218.932 164.091 219.37 164.025 219.828 164.025C221.617 164.025 222.959 164.701 223.856 166.056C224.4 166.906 224.684 167.921 224.707 169.1H225.983V163.174C225.373 163.174 225.013 163.383 224.904 163.796C224.881 163.949 224.87 164.123 224.87 164.32C223.057 163.468 221.149 163.043 219.14 163.043C216.499 163.043 214.513 163.732 213.182 165.106Z" fill="white"/>
<path d="M228.796 163.37L228.666 170.377H229.648L230.664 167.43C231.143 166.033 231.766 165.117 232.529 164.681C233.053 164.397 233.686 164.255 234.427 164.255H234.985V182.132H231.875V183.016H242.681C242.549 182.472 242.254 182.177 241.795 182.132H239.569V164.255H240.127C241.697 164.255 242.811 164.953 243.466 166.349C243.597 166.656 243.738 167.016 243.892 167.43L244.907 170.377H245.89L245.758 163.37H228.796Z" fill="url(#paint7_linear_1680_5052)"/>
<path d="M228.796 163.37L228.666 170.377H229.648L230.664 167.43C231.143 166.033 231.766 165.117 232.529 164.681C233.053 164.397 233.686 164.255 234.427 164.255H234.985V182.132H231.875V183.016H242.681C242.549 182.472 242.254 182.177 241.795 182.132H239.569V164.255H240.127C241.697 164.255 242.811 164.953 243.466 166.349C243.597 166.656 243.738 167.016 243.892 167.43L244.907 170.377H245.89L245.758 163.37H228.796Z" fill="white"/>
<path d="M161.197 190.231L154.027 208.995H151.932V209.88H157.956C157.956 209.355 157.814 209.071 157.531 209.027C157.422 209.005 157.3 208.995 157.17 208.995H155.336L157.694 202.707H164.21L166.666 208.995H164.342V209.88H173.116C173.116 209.355 172.973 209.071 172.691 209.027C172.58 209.005 172.462 208.995 172.33 208.995H171.349L163.621 190.231H161.197ZM160.903 194.195L163.817 201.725H158.087L160.903 194.195Z" fill="url(#paint8_linear_1680_5052)"/>
<path d="M161.197 190.231L154.027 208.995H151.932V209.88H157.956C157.956 209.355 157.814 209.071 157.531 209.027C157.422 209.005 157.3 208.995 157.17 208.995H155.336L157.694 202.707H164.21L166.666 208.995H164.342V209.88H173.116C173.116 209.355 172.973 209.071 172.691 209.027C172.58 209.005 172.462 208.995 172.33 208.995H171.349L163.621 190.231H161.197ZM160.903 194.195L163.817 201.725H158.087L160.903 194.195Z" fill="white"/>
<path d="M196.954 190.231V191.117H199.574L194.957 205.131L189.882 191.084L192.502 191.117V190.231H184.904L187.394 196.683L184.184 205.426L179.044 191.117H181.663V190.231H172.789V191.117H174.426L180.714 207.357C181.237 208.689 181.696 209.464 182.088 209.681C182.33 209.812 182.634 209.88 183.005 209.88H183.66L187.983 198.156L191.52 207.357C192.044 208.689 192.502 209.464 192.895 209.681C193.135 209.812 193.441 209.88 193.811 209.88H194.466L200.72 191.117H202.357V190.231H196.954Z" fill="url(#paint9_linear_1680_5052)"/>
<path d="M196.954 190.231V191.117H199.574L194.957 205.131L189.882 191.084L192.502 191.117V190.231H184.904L187.394 196.683L184.184 205.426L179.044 191.117H181.663V190.231H172.789V191.117H174.426L180.714 207.357C181.237 208.689 181.696 209.464 182.088 209.681C182.33 209.812 182.634 209.88 183.005 209.88H183.66L187.983 198.156L191.52 207.357C192.044 208.689 192.502 209.464 192.895 209.681C193.135 209.812 193.441 209.88 193.811 209.88H194.466L200.72 191.117H202.357V190.231H196.954Z" fill="white"/>
<path d="M211.624 190.231L204.453 208.995H202.357V209.88H208.382C208.382 209.355 208.24 209.071 207.956 209.027C207.847 209.005 207.729 208.995 207.597 208.995H205.763L208.12 202.707H214.637L217.092 208.995H214.768V209.88H223.542C223.542 209.355 223.401 209.071 223.116 209.027C223.007 209.005 222.889 208.995 222.757 208.995H221.774L214.048 190.231H211.624ZM211.329 194.195L214.244 201.725H208.513L211.329 194.195Z" fill="url(#paint10_linear_1680_5052)"/>
<path d="M211.624 190.231L204.453 208.995H202.357V209.88H208.382C208.382 209.355 208.24 209.071 207.956 209.027C207.847 209.005 207.729 208.995 207.597 208.995H205.763L208.12 202.707H214.637L217.092 208.995H214.768V209.88H223.542C223.542 209.355 223.401 209.071 223.116 209.027C223.007 209.005 222.889 208.995 222.757 208.995H221.774L214.048 190.231H211.624ZM211.329 194.195L214.244 201.725H208.513L211.329 194.195Z" fill="white"/>
<path d="M224.197 190.231V191.117H226.818V208.995H224.197V209.879H234.02V208.995H231.401V200.905H233.006L237.886 209.911L243.647 209.879C243.647 209.397 243.472 209.124 243.124 209.061C243.015 209.038 242.906 209.027 242.796 209.027H242.37L237.328 200.513C239.62 199.88 241.028 198.636 241.553 196.78C241.683 196.322 241.749 195.855 241.749 195.372C241.749 193.758 241.028 192.459 239.586 191.476C238.365 190.648 236.88 190.231 235.135 190.231H224.197ZM231.401 191.117H233.17C234.958 191.117 236.117 192.001 236.64 193.769C236.793 194.336 236.869 194.926 236.869 195.536C236.869 197.414 236.302 198.713 235.168 199.432C234.664 199.762 234.088 199.924 233.432 199.924H231.401V191.117Z" fill="url(#paint11_linear_1680_5052)"/>
<path d="M224.197 190.231V191.117H226.818V208.995H224.197V209.879H234.02V208.995H231.401V200.905H233.006L237.886 209.911L243.647 209.879C243.647 209.397 243.472 209.124 243.124 209.061C243.015 209.038 242.906 209.027 242.796 209.027H242.37L237.328 200.513C239.62 199.88 241.028 198.636 241.553 196.78C241.683 196.322 241.749 195.855 241.749 195.372C241.749 193.758 241.028 192.459 239.586 191.476C238.365 190.648 236.88 190.231 235.135 190.231H224.197ZM231.401 191.117H233.17C234.958 191.117 236.117 192.001 236.64 193.769C236.793 194.336 236.869 194.926 236.869 195.536C236.869 197.414 236.302 198.713 235.168 199.432C234.664 199.762 234.088 199.924 233.432 199.924H231.401V191.117Z" fill="white"/>
<path d="M244.305 190.231V191.117H246.924V208.995H244.305V209.88H254.061C257.094 209.88 259.594 208.962 261.56 207.128C263.479 205.317 264.441 202.98 264.441 200.122C264.441 196.476 263.066 193.758 260.315 191.967C258.503 190.811 256.386 190.231 253.962 190.231H244.305ZM251.507 191.117H254.061C256.354 191.117 257.882 192.24 258.645 194.488C259.082 195.863 259.299 197.687 259.299 199.958C259.299 204.498 258.394 207.303 256.583 208.371C255.884 208.789 255.02 208.995 253.995 208.995H251.507V191.117Z" fill="url(#paint12_linear_1680_5052)"/>
<path d="M244.305 190.231V191.117H246.924V208.995H244.305V209.88H254.061C257.094 209.88 259.594 208.962 261.56 207.128C263.479 205.317 264.441 202.98 264.441 200.122C264.441 196.476 263.066 193.758 260.315 191.967C258.503 190.811 256.386 190.231 253.962 190.231H244.305ZM251.507 191.117H254.061C256.354 191.117 257.882 192.24 258.645 194.488C259.082 195.863 259.299 197.687 259.299 199.958C259.299 204.498 258.394 207.303 256.583 208.371C255.884 208.789 255.02 208.995 253.995 208.995H251.507V191.117Z" fill="white"/>
<path d="M226.088 113.17C226.64 113.68 228.588 115.22 229.379 114.299C230.192 113.352 228.281 111.727 227.654 111.273C226.52 110.452 225.238 109.868 223.934 109.393C224.32 110.809 225.008 112.174 226.088 113.17ZM189.085 111.448C188.462 111.907 186.565 113.549 187.387 114.489C188.186 115.402 190.121 113.846 190.669 113.33C191.741 112.323 192.414 110.955 192.789 109.533C191.487 110.018 190.21 110.618 189.085 111.448ZM234.602 114.578C235.201 115.623 237.218 118.152 238.673 117.569C240.205 116.951 238.108 114.434 237.52 113.85C236.368 112.709 234.895 111.852 233.482 111.09C233.653 112.292 234.001 113.526 234.602 114.578ZM179.244 114.113C178.66 114.704 176.586 117.239 178.124 117.842C179.584 118.413 181.579 115.864 182.166 114.817C182.758 113.759 183.096 112.522 183.254 111.319C181.85 112.093 180.384 112.961 179.244 114.113ZM198.983 111.939C198.341 111.999 193.036 112.538 193.135 113.826C193.278 115.689 205.686 112.838 207.023 112.513C204.997 112.145 202.914 111.855 200.84 111.855C200.22 111.855 199.6 111.88 198.983 111.939ZM209.726 112.647C211.045 112.956 223.664 115.518 223.59 113.793C223.568 113.266 222.167 112.885 221.833 112.776C220.405 112.308 218.852 112.056 217.355 111.969C216.945 111.946 216.536 111.933 216.127 111.933C213.979 111.933 211.829 112.243 209.726 112.647ZM244.405 118.497C244.943 119.804 246.55 122.428 248.215 122.391C250.159 122.346 248.496 119.159 248.005 118.447C246.887 116.82 245.211 115.511 243.621 114.395C243.65 115.78 243.882 117.218 244.405 118.497ZM168.8 118.807C168.317 119.522 166.682 122.725 168.625 122.751C170.292 122.774 171.873 120.136 172.399 118.822C172.913 117.539 173.131 116.098 173.148 114.713C171.567 115.845 169.904 117.169 168.8 118.807ZM225.658 115.387C224.273 115.825 223.196 116.897 222.426 118.125C223.686 118.094 225.017 118.046 226.25 117.768C226.957 117.609 229.174 116.998 228.977 115.871C228.868 115.26 228.233 115.08 227.533 115.08C226.804 115.08 226.004 115.277 225.658 115.387ZM187.805 116.058C187.617 117.185 189.84 117.779 190.546 117.93C191.782 118.196 193.113 118.232 194.375 118.25C193.594 117.032 192.507 115.97 191.119 115.543C190.779 115.438 189.998 115.254 189.279 115.254C188.564 115.254 187.909 115.435 187.805 116.058ZM233.159 118.578C232.181 119.071 231.304 119.851 230.605 120.702C232.301 120.92 234.216 121.095 235.898 120.73C236.712 120.551 239.104 119.752 237.93 118.575C237.448 118.094 236.721 117.914 235.952 117.914C234.939 117.914 233.854 118.228 233.159 118.578ZM178.876 118.844C177.712 120.029 180.112 120.808 180.927 120.978C182.611 121.329 184.526 121.136 186.219 120.905C185.512 120.056 184.628 119.287 183.645 118.801C182.959 118.462 181.893 118.163 180.893 118.163C180.108 118.163 179.364 118.348 178.876 118.844ZM254.351 124.389C254.752 125.812 256.273 129.291 258.131 129.085C259.97 128.88 258.608 125.462 258.184 124.623C257.203 122.682 255.622 121.016 254.066 119.545C253.876 121.135 253.913 122.845 254.351 124.389ZM158.678 125.072C158.26 125.917 156.929 129.349 158.769 129.535C160.631 129.723 162.119 126.23 162.509 124.805C162.932 123.259 162.954 121.547 162.75 119.958C161.206 121.443 159.639 123.124 158.678 125.072ZM242.566 122.492C241.25 122.832 240.013 123.668 239.035 124.608C240.785 124.981 242.559 125.436 244.361 125.432C245.18 125.429 248.416 125.141 247.559 123.539C247.044 122.576 245.673 122.28 244.412 122.28C243.705 122.28 243.035 122.372 242.566 122.492ZM169.291 123.893C168.448 125.502 171.689 125.764 172.504 125.758C174.308 125.745 176.076 125.275 177.826 124.885C176.837 123.954 175.593 123.128 174.276 122.802C173.821 122.69 173.179 122.605 172.499 122.605C171.219 122.605 169.808 122.907 169.291 123.893ZM207.568 133.005H198.991L205.929 138.173L203.277 146.531L210.217 141.363L217.153 146.531L214.503 138.173L221.442 133.005H212.866L210.217 124.645L207.568 133.005ZM264.416 134.122C264.772 135.212 265.901 138.232 267.519 137.872C269.303 137.474 268.323 133.798 267.95 132.771C267.174 130.645 265.885 128.522 264.429 126.804C263.771 129.216 263.636 131.726 264.416 134.122ZM148.986 133.309C148.622 134.34 147.676 138.025 149.464 138.407C151.083 138.751 152.186 135.722 152.531 134.631C153.29 132.225 153.133 129.719 152.452 127.311C151.012 129.043 149.742 131.175 148.986 133.309ZM251.686 128.229C250.183 128.377 248.687 129.099 247.465 129.981C249.307 130.664 251.171 131.448 253.122 131.746C253.997 131.879 257.186 132.127 257.019 130.477C256.843 128.726 253.87 128.205 252.236 128.205C252.028 128.205 251.842 128.213 251.686 128.229ZM159.894 130.918C159.744 132.57 162.931 132.293 163.803 132.151C165.752 131.835 167.608 131.035 169.444 130.334C168.213 129.463 166.712 128.755 165.208 128.621C165.067 128.609 164.904 128.602 164.722 128.602C163.103 128.602 160.058 129.141 159.894 130.918ZM255.567 136.973C257.514 138.028 259.444 139.326 261.592 139.924C262.549 140.188 265.799 140.929 265.762 139.081C265.726 137.353 263.096 136.379 261.801 136.034C261.219 135.88 260.623 135.81 260.025 135.81C258.485 135.81 256.933 136.278 255.567 136.973ZM155.165 136.517C153.871 136.873 151.251 137.87 151.23 139.599C151.209 141.449 154.451 140.679 155.407 140.404C157.551 139.787 159.469 138.473 161.406 137.398C160.055 136.727 158.522 136.277 157.004 136.277C156.384 136.277 155.767 136.351 155.165 136.517ZM272.85 143.701C273.023 145.095 273.507 148.566 275.365 148.819C277.373 149.096 277.189 145.033 277.041 143.93C276.68 141.257 275.445 138.724 274.206 136.378C273.167 138.637 272.544 141.205 272.85 143.701ZM139.996 144.55C139.857 145.656 139.711 149.72 141.716 149.424C143.572 149.153 144.026 145.68 144.185 144.284C144.468 141.785 143.824 139.222 142.761 136.973C141.545 139.33 140.333 141.874 139.996 144.55ZM232.22 143.915H226.216L231.074 147.531L229.218 153.384L234.076 149.767L238.932 153.384L237.077 147.531L241.934 143.915H235.93L234.076 138.062L232.22 143.915ZM184.502 143.915H178.5L183.356 147.531L181.502 153.384L186.358 149.767L191.214 153.384L189.36 147.531L194.215 143.915H188.212L186.358 138.062L184.502 143.915ZM262.93 145.678C264.705 147.156 266.545 148.697 268.588 149.778C269.533 150.278 273.184 151.865 273.469 149.784C273.72 147.935 271.039 146.349 269.713 145.769C268.662 145.309 267.542 145.111 266.412 145.111C265.237 145.111 264.052 145.326 262.93 145.678ZM147.339 146.323C146.021 146.914 143.352 148.525 143.622 150.372C143.924 152.45 147.561 150.829 148.501 150.321C150.534 149.223 152.361 147.665 154.122 146.17C153.024 145.837 151.869 145.634 150.722 145.634C149.563 145.634 148.414 145.839 147.339 146.323ZM279.998 156.06C279.923 157.441 279.91 162.139 282.192 161.898C284.27 161.677 284.489 157.347 284.416 155.916C284.284 153.353 283.689 150.748 282.834 148.336C281.267 150.628 280.149 153.25 279.998 156.06ZM132.731 156.602C132.671 158.035 132.926 162.362 135.008 162.564C137.292 162.785 137.236 158.088 137.149 156.708C136.972 153.897 135.832 151.288 134.243 149.009C133.408 151.429 132.838 154.038 132.731 156.602ZM269.117 156.056C270.671 157.89 272.243 159.787 274.105 161.307C275 162.038 278.613 164.641 279.454 162.574C280.306 160.475 277.204 157.966 275.743 157.101C274.324 156.263 272.591 155.938 270.908 155.938C270.299 155.938 269.697 155.981 269.117 156.056ZM141.413 157.709C139.959 158.586 136.88 161.125 137.754 163.216C138.61 165.274 142.201 162.639 143.089 161.9C144.937 160.363 146.492 158.452 148.028 156.605C147.488 156.538 146.926 156.501 146.357 156.501C144.636 156.501 142.858 156.839 141.413 157.709ZM285.037 170.346C284.682 171.799 283.771 176.42 286.06 176.851C288.195 177.255 289.428 172.945 289.67 171.512C290.155 168.647 290.096 165.515 289.582 162.655C287.447 164.792 285.763 167.373 285.037 170.346ZM127.618 172.245C127.873 173.675 129.143 177.974 131.276 177.554C133.56 177.1 132.607 172.485 132.239 171.039C131.486 168.071 129.78 165.504 127.626 163.388C127.136 166.253 127.107 169.385 127.618 172.245ZM277.76 174.491C278.583 175.477 281.494 178.701 282.991 177.189C284.752 175.406 281.763 171.754 280.535 170.595C278.705 168.871 276.019 168.139 273.585 167.995C274.884 170.204 276.118 172.52 277.76 174.491ZM136.744 171.245C135.526 172.415 132.569 176.092 134.348 177.861C135.858 179.361 138.74 176.11 139.553 175.117C141.178 173.13 142.389 170.803 143.671 168.582C141.236 168.75 138.557 169.507 136.744 171.245ZM287.653 185.528C286.908 186.97 284.499 192.249 287.024 193.193C289.283 194.036 291.519 189.607 292.087 188.045C293.112 185.229 293.673 182.052 293.724 179.046C291.251 180.696 289.037 182.852 287.653 185.528ZM125.349 188.801C125.932 190.356 128.208 194.765 130.459 193.9C132.976 192.934 130.521 187.678 129.762 186.244C128.352 183.581 126.119 181.446 123.632 179.817C123.709 182.822 124.299 185.992 125.349 188.801ZM279.046 189.229C279.685 190.388 282.104 194.269 283.861 192.709C285.801 190.989 283.671 186.954 282.571 185.393C281.028 183.199 278.36 181.864 275.852 181.199C276.806 183.91 277.657 186.707 279.046 189.229ZM134.84 186.062C133.757 187.631 131.661 191.687 133.619 193.389C135.389 194.933 137.773 191.031 138.4 189.866C139.768 187.331 140.593 184.527 141.522 181.808C139.02 182.494 136.365 183.855 134.84 186.062ZM276.675 203.037C277.034 204.542 279.128 210.83 281.549 208.798C283.698 206.992 282.279 202.151 281.101 200.197C279.806 198.052 277.66 196.348 275.461 195.244C275.676 197.832 276.071 200.513 276.675 203.037ZM136.446 200.853C135.283 202.815 133.91 207.671 136.076 209.457C138.514 211.467 140.55 205.161 140.897 203.652C141.477 201.123 141.848 198.438 142.041 195.846C139.852 196.972 137.722 198.696 136.446 200.853ZM287.305 201.827C286.175 203.134 285.094 204.535 284.421 206.153C283.974 207.23 283.215 209.4 284.449 210.231C285.67 211.053 287.574 209.66 288.466 208.888C289.73 207.796 290.672 206.376 291.488 204.925C292.886 202.448 293.787 199.722 294.542 196.979C291.855 198.037 289.217 199.61 287.305 201.827ZM126.101 205.675C126.932 207.117 127.885 208.529 129.158 209.609C130.059 210.374 131.974 211.749 133.188 210.916C134.415 210.075 133.636 207.911 133.178 206.838C132.492 205.227 131.398 203.836 130.258 202.538C128.325 200.338 125.671 198.789 122.977 197.756C123.756 200.492 124.682 203.209 126.101 205.675ZM271.544 217.1C271.489 218.876 271.854 225.566 274.772 225.033C277.672 224.502 277.432 218.895 276.99 216.86C276.348 213.902 274.356 211.305 272.058 209.45C271.9 212.004 271.623 214.539 271.544 217.1ZM140.706 217.479C140.283 219.516 140.094 225.126 143 225.628C145.922 226.136 146.226 219.442 146.156 217.668C146.053 215.108 145.754 212.574 145.572 210.024C143.29 211.901 141.322 214.514 140.706 217.479ZM282.152 219.547C280.78 220.69 279.385 221.853 278.419 223.392C277.802 224.375 276.83 226.333 278.055 227.256C279.259 228.167 281.37 227.193 282.475 226.567C283.99 225.708 285.271 224.553 286.451 223.268C288.422 221.115 290.165 218.423 291.409 215.765C288.149 216.304 284.737 217.395 282.152 219.547ZM131.306 223.97C132.496 225.245 133.787 226.387 135.311 227.233C136.42 227.849 138.54 228.802 139.736 227.883C140.953 226.949 139.963 225 139.337 224.021C138.357 222.489 136.952 221.34 135.569 220.209C132.965 218.079 129.544 217.021 126.279 216.513C127.548 219.157 129.313 221.836 131.306 223.97ZM230.276 226.093L235.455 231.272L240.636 226.093L235.455 220.915L230.276 226.093ZM203.579 226.093L208.758 231.272L213.939 226.093L208.758 220.915L203.579 226.093ZM176.882 226.093L182.063 231.272L187.243 226.093L182.063 220.915L176.882 226.093ZM262.695 232.14C262.374 233.835 261.659 240.096 264.723 239.665C267.698 239.249 268.668 234.085 268.672 231.677C268.676 228.547 267.243 225.453 265.354 223.043C264.455 226.063 263.284 229.028 262.695 232.14ZM149.159 232.217C149.186 234.627 150.202 239.779 153.181 240.171C156.248 240.573 155.476 234.318 155.14 232.628C154.523 229.521 153.325 226.567 152.398 223.554C150.532 225.982 149.126 229.087 149.159 232.217ZM273.873 235.675C272.248 236.414 270.584 237.228 269.191 238.373C268.188 239.198 266.304 240.977 266.991 242.478C267.667 243.956 270.136 243.649 271.372 243.387C273.065 243.031 274.645 242.248 276.102 241.322C278.959 239.505 281.658 237.013 283.755 234.331C283.037 234.28 282.298 234.251 281.553 234.251C278.93 234.251 276.209 234.616 273.873 235.675ZM134.101 235.01C136.223 237.671 138.944 240.139 141.815 241.929C143.282 242.843 144.868 243.609 146.565 243.954C147.802 244.203 150.274 244.488 150.938 243.003C151.61 241.496 149.713 239.735 148.699 238.918C147.295 237.786 145.626 236.987 143.994 236.263C141.725 235.258 139.102 234.908 136.56 234.908C135.727 234.908 134.902 234.945 134.101 235.01ZM250.074 244.532C249.515 246.04 247.568 251.231 250.318 251.879C251.805 252.234 253.342 250.837 254.176 249.756C255.289 248.317 256.172 246.597 256.635 244.823C257.451 241.708 256.704 238.01 255.368 235.145C253.644 238.279 251.332 241.139 250.074 244.532ZM161.313 245.254C161.794 247.025 162.691 248.737 163.818 250.166C164.661 251.239 166.211 252.621 167.695 252.254C170.438 251.578 168.446 246.407 167.871 244.903C166.583 241.522 164.246 238.684 162.495 235.566C161.184 238.444 160.472 242.148 161.313 245.254ZM235.218 252.013C234.099 253.363 230.171 258.539 232.709 260.263C234.089 261.201 236.179 260.041 237.332 259.26C238.802 258.262 239.969 256.758 240.903 255.248C242.777 252.22 242.956 248.182 242.329 244.729C239.812 246.963 237.368 249.415 235.218 252.013ZM177.14 255.534C178.087 257.038 179.267 258.534 180.748 259.515C181.908 260.286 184.008 261.427 185.38 260.478C187.901 258.732 183.927 253.592 182.795 252.25C180.621 249.672 178.157 247.241 175.618 245.031C175.023 248.49 175.24 252.524 177.14 255.534ZM261.571 250.163C258.733 250.547 254.876 251.255 252.844 253.541C251.316 255.26 252.644 256.712 254.462 257.181C257.665 258.006 260.892 257.032 263.857 255.814C266.439 254.753 269.241 253.213 271.412 251.417C268.943 250.638 266.261 250.028 263.632 250.028C262.939 250.028 262.252 250.071 261.571 250.163ZM146.6 251.981C148.785 253.757 151.602 255.273 154.192 256.31C157.169 257.502 160.403 258.447 163.599 257.593C165.412 257.108 166.728 255.642 165.186 253.938C163.132 251.669 159.269 250.998 156.428 250.637C155.798 250.557 155.161 250.521 154.521 250.521C151.84 250.521 149.108 251.164 146.6 251.981ZM216.383 257.78H210.239L215.211 261.394L213.311 267.238L218.285 263.627L223.257 267.238L221.357 261.394L226.329 257.78H220.183L218.285 251.936L216.383 257.78ZM197.336 257.78H191.188L196.162 261.394L194.262 267.238L199.234 263.627L204.207 267.238L202.308 261.394L207.28 257.78H201.134L199.234 251.936L197.336 257.78ZM238.963 261.583C237.496 261.727 235.844 261.95 234.671 262.952C232.917 264.449 234.231 266.156 235.853 266.991C241.578 269.941 248.858 267.716 254.475 265.578C251.482 263.644 248.027 262.12 244.503 261.629C243.555 261.498 242.609 261.441 241.664 261.441C240.764 261.441 239.866 261.493 238.963 261.583ZM173.599 261.95C170.077 262.472 166.638 264.028 163.664 265.988C169.3 268.076 176.597 270.236 182.295 267.234C183.911 266.382 185.211 264.666 183.442 263.185C182.26 262.193 180.605 261.983 179.138 261.853C178.307 261.778 177.478 261.735 176.651 261.735C175.633 261.735 174.616 261.8 173.599 261.95Z" fill="url(#paint13_linear_1680_5052)"/>
<path d="M226.088 113.17C226.64 113.68 228.588 115.22 229.379 114.299C230.192 113.352 228.281 111.727 227.654 111.273C226.52 110.452 225.238 109.868 223.934 109.393C224.32 110.809 225.008 112.174 226.088 113.17ZM189.085 111.448C188.462 111.907 186.565 113.549 187.387 114.489C188.186 115.402 190.121 113.846 190.669 113.33C191.741 112.323 192.414 110.955 192.789 109.533C191.487 110.018 190.21 110.618 189.085 111.448ZM234.602 114.578C235.201 115.623 237.218 118.152 238.673 117.569C240.205 116.951 238.108 114.434 237.52 113.85C236.368 112.709 234.895 111.852 233.482 111.09C233.653 112.292 234.001 113.526 234.602 114.578ZM179.244 114.113C178.66 114.704 176.586 117.239 178.124 117.842C179.584 118.413 181.579 115.864 182.166 114.817C182.758 113.759 183.096 112.522 183.254 111.319C181.85 112.093 180.384 112.961 179.244 114.113ZM198.983 111.939C198.341 111.999 193.036 112.538 193.135 113.826C193.278 115.689 205.686 112.838 207.023 112.513C204.997 112.145 202.914 111.855 200.84 111.855C200.22 111.855 199.6 111.88 198.983 111.939ZM209.726 112.647C211.045 112.956 223.664 115.518 223.59 113.793C223.568 113.266 222.167 112.885 221.833 112.776C220.405 112.308 218.852 112.056 217.355 111.969C216.945 111.946 216.536 111.933 216.127 111.933C213.979 111.933 211.829 112.243 209.726 112.647ZM244.405 118.497C244.943 119.804 246.55 122.428 248.215 122.391C250.159 122.346 248.496 119.159 248.005 118.447C246.887 116.82 245.211 115.511 243.621 114.395C243.65 115.78 243.882 117.218 244.405 118.497ZM168.8 118.807C168.317 119.522 166.682 122.725 168.625 122.751C170.292 122.774 171.873 120.136 172.399 118.822C172.913 117.539 173.131 116.098 173.148 114.713C171.567 115.845 169.904 117.169 168.8 118.807ZM225.658 115.387C224.273 115.825 223.196 116.897 222.426 118.125C223.686 118.094 225.017 118.046 226.25 117.768C226.957 117.609 229.174 116.998 228.977 115.871C228.868 115.26 228.233 115.08 227.533 115.08C226.804 115.08 226.004 115.277 225.658 115.387ZM187.805 116.058C187.617 117.185 189.84 117.779 190.546 117.93C191.782 118.196 193.113 118.232 194.375 118.25C193.594 117.032 192.507 115.97 191.119 115.543C190.779 115.438 189.998 115.254 189.279 115.254C188.564 115.254 187.909 115.435 187.805 116.058ZM233.159 118.578C232.181 119.071 231.304 119.851 230.605 120.702C232.301 120.92 234.216 121.095 235.898 120.73C236.712 120.551 239.104 119.752 237.93 118.575C237.448 118.094 236.721 117.914 235.952 117.914C234.939 117.914 233.854 118.228 233.159 118.578ZM178.876 118.844C177.712 120.029 180.112 120.808 180.927 120.978C182.611 121.329 184.526 121.136 186.219 120.905C185.512 120.056 184.628 119.287 183.645 118.801C182.959 118.462 181.893 118.163 180.893 118.163C180.108 118.163 179.364 118.348 178.876 118.844ZM254.351 124.389C254.752 125.812 256.273 129.291 258.131 129.085C259.97 128.88 258.608 125.462 258.184 124.623C257.203 122.682 255.622 121.016 254.066 119.545C253.876 121.135 253.913 122.845 254.351 124.389ZM158.678 125.072C158.26 125.917 156.929 129.349 158.769 129.535C160.631 129.723 162.119 126.23 162.509 124.805C162.932 123.259 162.954 121.547 162.75 119.958C161.206 121.443 159.639 123.124 158.678 125.072ZM242.566 122.492C241.25 122.832 240.013 123.668 239.035 124.608C240.785 124.981 242.559 125.436 244.361 125.432C245.18 125.429 248.416 125.141 247.559 123.539C247.044 122.576 245.673 122.28 244.412 122.28C243.705 122.28 243.035 122.372 242.566 122.492ZM169.291 123.893C168.448 125.502 171.689 125.764 172.504 125.758C174.308 125.745 176.076 125.275 177.826 124.885C176.837 123.954 175.593 123.128 174.276 122.802C173.821 122.69 173.179 122.605 172.499 122.605C171.219 122.605 169.808 122.907 169.291 123.893ZM207.568 133.005H198.991L205.929 138.173L203.277 146.531L210.217 141.363L217.153 146.531L214.503 138.173L221.442 133.005H212.866L210.217 124.645L207.568 133.005ZM264.416 134.122C264.772 135.212 265.901 138.232 267.519 137.872C269.303 137.474 268.323 133.798 267.95 132.771C267.174 130.645 265.885 128.522 264.429 126.804C263.771 129.216 263.636 131.726 264.416 134.122ZM148.986 133.309C148.622 134.34 147.676 138.025 149.464 138.407C151.083 138.751 152.186 135.722 152.531 134.631C153.29 132.225 153.133 129.719 152.452 127.311C151.012 129.043 149.742 131.175 148.986 133.309ZM251.686 128.229C250.183 128.377 248.687 129.099 247.465 129.981C249.307 130.664 251.171 131.448 253.122 131.746C253.997 131.879 257.186 132.127 257.019 130.477C256.843 128.726 253.87 128.205 252.236 128.205C252.028 128.205 251.842 128.213 251.686 128.229ZM159.894 130.918C159.744 132.57 162.931 132.293 163.803 132.151C165.752 131.835 167.608 131.035 169.444 130.334C168.213 129.463 166.712 128.755 165.208 128.621C165.067 128.609 164.904 128.602 164.722 128.602C163.103 128.602 160.058 129.141 159.894 130.918ZM255.567 136.973C257.514 138.028 259.444 139.326 261.592 139.924C262.549 140.188 265.799 140.929 265.762 139.081C265.726 137.353 263.096 136.379 261.801 136.034C261.219 135.88 260.623 135.81 260.025 135.81C258.485 135.81 256.933 136.278 255.567 136.973ZM155.165 136.517C153.871 136.873 151.251 137.87 151.23 139.599C151.209 141.449 154.451 140.679 155.407 140.404C157.551 139.787 159.469 138.473 161.406 137.398C160.055 136.727 158.522 136.277 157.004 136.277C156.384 136.277 155.767 136.351 155.165 136.517ZM272.85 143.701C273.023 145.095 273.507 148.566 275.365 148.819C277.373 149.096 277.189 145.033 277.041 143.93C276.68 141.257 275.445 138.724 274.206 136.378C273.167 138.637 272.544 141.205 272.85 143.701ZM139.996 144.55C139.857 145.656 139.711 149.72 141.716 149.424C143.572 149.153 144.026 145.68 144.185 144.284C144.468 141.785 143.824 139.222 142.761 136.973C141.545 139.33 140.333 141.874 139.996 144.55ZM232.22 143.915H226.216L231.074 147.531L229.218 153.384L234.076 149.767L238.932 153.384L237.077 147.531L241.934 143.915H235.93L234.076 138.062L232.22 143.915ZM184.502 143.915H178.5L183.356 147.531L181.502 153.384L186.358 149.767L191.214 153.384L189.36 147.531L194.215 143.915H188.212L186.358 138.062L184.502 143.915ZM262.93 145.678C264.705 147.156 266.545 148.697 268.588 149.778C269.533 150.278 273.184 151.865 273.469 149.784C273.72 147.935 271.039 146.349 269.713 145.769C268.662 145.309 267.542 145.111 266.412 145.111C265.237 145.111 264.052 145.326 262.93 145.678ZM147.339 146.323C146.021 146.914 143.352 148.525 143.622 150.372C143.924 152.45 147.561 150.829 148.501 150.321C150.534 149.223 152.361 147.665 154.122 146.17C153.024 145.837 151.869 145.634 150.722 145.634C149.563 145.634 148.414 145.839 147.339 146.323ZM279.998 156.06C279.923 157.441 279.91 162.139 282.192 161.898C284.27 161.677 284.489 157.347 284.416 155.916C284.284 153.353 283.689 150.748 282.834 148.336C281.267 150.628 280.149 153.25 279.998 156.06ZM132.731 156.602C132.671 158.035 132.926 162.362 135.008 162.564C137.292 162.785 137.236 158.088 137.149 156.708C136.972 153.897 135.832 151.288 134.243 149.009C133.408 151.429 132.838 154.038 132.731 156.602ZM269.117 156.056C270.671 157.89 272.243 159.787 274.105 161.307C275 162.038 278.613 164.641 279.454 162.574C280.306 160.475 277.204 157.966 275.743 157.101C274.324 156.263 272.591 155.938 270.908 155.938C270.299 155.938 269.697 155.981 269.117 156.056ZM141.413 157.709C139.959 158.586 136.88 161.125 137.754 163.216C138.61 165.274 142.201 162.639 143.089 161.9C144.937 160.363 146.492 158.452 148.028 156.605C147.488 156.538 146.926 156.501 146.357 156.501C144.636 156.501 142.858 156.839 141.413 157.709ZM285.037 170.346C284.682 171.799 283.771 176.42 286.06 176.851C288.195 177.255 289.428 172.945 289.67 171.512C290.155 168.647 290.096 165.515 289.582 162.655C287.447 164.792 285.763 167.373 285.037 170.346ZM127.618 172.245C127.873 173.675 129.143 177.974 131.276 177.554C133.56 177.1 132.607 172.485 132.239 171.039C131.486 168.071 129.78 165.504 127.626 163.388C127.136 166.253 127.107 169.385 127.618 172.245ZM277.76 174.491C278.583 175.477 281.494 178.701 282.991 177.189C284.752 175.406 281.763 171.754 280.535 170.595C278.705 168.871 276.019 168.139 273.585 167.995C274.884 170.204 276.118 172.52 277.76 174.491ZM136.744 171.245C135.526 172.415 132.569 176.092 134.348 177.861C135.858 179.361 138.74 176.11 139.553 175.117C141.178 173.13 142.389 170.803 143.671 168.582C141.236 168.75 138.557 169.507 136.744 171.245ZM287.653 185.528C286.908 186.97 284.499 192.249 287.024 193.193C289.283 194.036 291.519 189.607 292.087 188.045C293.112 185.229 293.673 182.052 293.724 179.046C291.251 180.696 289.037 182.852 287.653 185.528ZM125.349 188.801C125.932 190.356 128.208 194.765 130.459 193.9C132.976 192.934 130.521 187.678 129.762 186.244C128.352 183.581 126.119 181.446 123.632 179.817C123.709 182.822 124.299 185.992 125.349 188.801ZM279.046 189.229C279.685 190.388 282.104 194.269 283.861 192.709C285.801 190.989 283.671 186.954 282.571 185.393C281.028 183.199 278.36 181.864 275.852 181.199C276.806 183.91 277.657 186.707 279.046 189.229ZM134.84 186.062C133.757 187.631 131.661 191.687 133.619 193.389C135.389 194.933 137.773 191.031 138.4 189.866C139.768 187.331 140.593 184.527 141.522 181.808C139.02 182.494 136.365 183.855 134.84 186.062ZM276.675 203.037C277.034 204.542 279.128 210.83 281.549 208.798C283.698 206.992 282.279 202.151 281.101 200.197C279.806 198.052 277.66 196.348 275.461 195.244C275.676 197.832 276.071 200.513 276.675 203.037ZM136.446 200.853C135.283 202.815 133.91 207.671 136.076 209.457C138.514 211.467 140.55 205.161 140.897 203.652C141.477 201.123 141.848 198.438 142.041 195.846C139.852 196.972 137.722 198.696 136.446 200.853ZM287.305 201.827C286.175 203.134 285.094 204.535 284.421 206.153C283.974 207.23 283.215 209.4 284.449 210.231C285.67 211.053 287.574 209.66 288.466 208.888C289.73 207.796 290.672 206.376 291.488 204.925C292.886 202.448 293.787 199.722 294.542 196.979C291.855 198.037 289.217 199.61 287.305 201.827ZM126.101 205.675C126.932 207.117 127.885 208.529 129.158 209.609C130.059 210.374 131.974 211.749 133.188 210.916C134.415 210.075 133.636 207.911 133.178 206.838C132.492 205.227 131.398 203.836 130.258 202.538C128.325 200.338 125.671 198.789 122.977 197.756C123.756 200.492 124.682 203.209 126.101 205.675ZM271.544 217.1C271.489 218.876 271.854 225.566 274.772 225.033C277.672 224.502 277.432 218.895 276.99 216.86C276.348 213.902 274.356 211.305 272.058 209.45C271.9 212.004 271.623 214.539 271.544 217.1ZM140.706 217.479C140.283 219.516 140.094 225.126 143 225.628C145.922 226.136 146.226 219.442 146.156 217.668C146.053 215.108 145.754 212.574 145.572 210.024C143.29 211.901 141.322 214.514 140.706 217.479ZM282.152 219.547C280.78 220.69 279.385 221.853 278.419 223.392C277.802 224.375 276.83 226.333 278.055 227.256C279.259 228.167 281.37 227.193 282.475 226.567C283.99 225.708 285.271 224.553 286.451 223.268C288.422 221.115 290.165 218.423 291.409 215.765C288.149 216.304 284.737 217.395 282.152 219.547ZM131.306 223.97C132.496 225.245 133.787 226.387 135.311 227.233C136.42 227.849 138.54 228.802 139.736 227.883C140.953 226.949 139.963 225 139.337 224.021C138.357 222.489 136.952 221.34 135.569 220.209C132.965 218.079 129.544 217.021 126.279 216.513C127.548 219.157 129.313 221.836 131.306 223.97ZM230.276 226.093L235.455 231.272L240.636 226.093L235.455 220.915L230.276 226.093ZM203.579 226.093L208.758 231.272L213.939 226.093L208.758 220.915L203.579 226.093ZM176.882 226.093L182.063 231.272L187.243 226.093L182.063 220.915L176.882 226.093ZM262.695 232.14C262.374 233.835 261.659 240.096 264.723 239.665C267.698 239.249 268.668 234.085 268.672 231.677C268.676 228.547 267.243 225.453 265.354 223.043C264.455 226.063 263.284 229.028 262.695 232.14ZM149.159 232.217C149.186 234.627 150.202 239.779 153.181 240.171C156.248 240.573 155.476 234.318 155.14 232.628C154.523 229.521 153.325 226.567 152.398 223.554C150.532 225.982 149.126 229.087 149.159 232.217ZM273.873 235.675C272.248 236.414 270.584 237.228 269.191 238.373C268.188 239.198 266.304 240.977 266.991 242.478C267.667 243.956 270.136 243.649 271.372 243.387C273.065 243.031 274.645 242.248 276.102 241.322C278.959 239.505 281.658 237.013 283.755 234.331C283.037 234.28 282.298 234.251 281.553 234.251C278.93 234.251 276.209 234.616 273.873 235.675ZM134.101 235.01C136.223 237.671 138.944 240.139 141.815 241.929C143.282 242.843 144.868 243.609 146.565 243.954C147.802 244.203 150.274 244.488 150.938 243.003C151.61 241.496 149.713 239.735 148.699 238.918C147.295 237.786 145.626 236.987 143.994 236.263C141.725 235.258 139.102 234.908 136.56 234.908C135.727 234.908 134.902 234.945 134.101 235.01ZM250.074 244.532C249.515 246.04 247.568 251.231 250.318 251.879C251.805 252.234 253.342 250.837 254.176 249.756C255.289 248.317 256.172 246.597 256.635 244.823C257.451 241.708 256.704 238.01 255.368 235.145C253.644 238.279 251.332 241.139 250.074 244.532ZM161.313 245.254C161.794 247.025 162.691 248.737 163.818 250.166C164.661 251.239 166.211 252.621 167.695 252.254C170.438 251.578 168.446 246.407 167.871 244.903C166.583 241.522 164.246 238.684 162.495 235.566C161.184 238.444 160.472 242.148 161.313 245.254ZM235.218 252.013C234.099 253.363 230.171 258.539 232.709 260.263C234.089 261.201 236.179 260.041 237.332 259.26C238.802 258.262 239.969 256.758 240.903 255.248C242.777 252.22 242.956 248.182 242.329 244.729C239.812 246.963 237.368 249.415 235.218 252.013ZM177.14 255.534C178.087 257.038 179.267 258.534 180.748 259.515C181.908 260.286 184.008 261.427 185.38 260.478C187.901 258.732 183.927 253.592 182.795 252.25C180.621 249.672 178.157 247.241 175.618 245.031C175.023 248.49 175.24 252.524 177.14 255.534ZM261.571 250.163C258.733 250.547 254.876 251.255 252.844 253.541C251.316 255.26 252.644 256.712 254.462 257.181C257.665 258.006 260.892 257.032 263.857 255.814C266.439 254.753 269.241 253.213 271.412 251.417C268.943 250.638 266.261 250.028 263.632 250.028C262.939 250.028 262.252 250.071 261.571 250.163ZM146.6 251.981C148.785 253.757 151.602 255.273 154.192 256.31C157.169 257.502 160.403 258.447 163.599 257.593C165.412 257.108 166.728 255.642 165.186 253.938C163.132 251.669 159.269 250.998 156.428 250.637C155.798 250.557 155.161 250.521 154.521 250.521C151.84 250.521 149.108 251.164 146.6 251.981ZM216.383 257.78H210.239L215.211 261.394L213.311 267.238L218.285 263.627L223.257 267.238L221.357 261.394L226.329 257.78H220.183L218.285 251.936L216.383 257.78ZM197.336 257.78H191.188L196.162 261.394L194.262 267.238L199.234 263.627L204.207 267.238L202.308 261.394L207.28 257.78H201.134L199.234 251.936L197.336 257.78ZM238.963 261.583C237.496 261.727 235.844 261.95 234.671 262.952C232.917 264.449 234.231 266.156 235.853 266.991C241.578 269.941 248.858 267.716 254.475 265.578C251.482 263.644 248.027 262.12 244.503 261.629C243.555 261.498 242.609 261.441 241.664 261.441C240.764 261.441 239.866 261.493 238.963 261.583ZM173.599 261.95C170.077 262.472 166.638 264.028 163.664 265.988C169.3 268.076 176.597 270.236 182.295 267.234C183.911 266.382 185.211 264.666 183.442 263.185C182.26 262.193 180.605 261.983 179.138 261.853C178.307 261.778 177.478 261.735 176.651 261.735C175.633 261.735 174.616 261.8 173.599 261.95Z" fill="white"/>
<defs>
<filter id="filter0_f_1680_5052" x="0.000312805" y="6.86646e-05" width="404.486" height="399.223" filterUnits="userSpaceOnUse" color-interpolation-filters="sRGB">
<feFlood flood-opacity="0" result="BackgroundImageFix"/>
<feBlend mode="normal" in="SourceGraphic" in2="BackgroundImageFix" result="shape"/>
<feGaussianBlur stdDeviation="52.8817" result="effect1_foregroundBlur_1680_5052"/>
</filter>
<linearGradient id="paint0_linear_1680_5052" x1="209.261" y1="468.218" x2="209.261" y2="-27.9657" gradientUnits="userSpaceOnUse">
<stop stop-color="#C59158"/>
<stop offset="0.192458" stop-color="#C59158"/>
<stop offset="0.402404" stop-color="#FFF5E6"/>
<stop offset="0.614201" stop-color="#F5DEAF"/>
<stop offset="0.807016" stop-color="#C59158"/>
<stop offset="1" stop-color="#C59158"/>
</linearGradient>
<linearGradient id="paint1_linear_1680_5052" x1="299.16" y1="276.575" x2="116.946" y2="73.75" gradientUnits="userSpaceOnUse">
<stop stop-color="#9B6220"/>
<stop offset="0.155" stop-color="#CE8F45"/>
<stop offset="0.315" stop-color="#F9D190"/>
<stop offset="0.435" stop-color="#E7BC60"/>
<stop offset="0.807016" stop-color="#D59347"/>
<stop offset="1" stop-color="#9B6220"/>
</linearGradient>
<linearGradient id="paint2_linear_1680_5052" x1="208.746" y1="81.7785" x2="208.746" y2="313.516" gradientUnits="userSpaceOnUse">
<stop stop-color="#625534"/>
<stop offset="0.994647" stop-color="#4B361A"/>
</linearGradient>
<linearGradient id="paint3_linear_1680_5052" x1="211.689" y1="310.286" x2="206.323" y2="88.4804" gradientUnits="userSpaceOnUse">
<stop stop-color="#5C472B"/>
<stop offset="1" stop-color="#51401E"/>
</linearGradient>
<linearGradient id="paint4_linear_1680_5052" x1="167.202" y1="224.629" x2="167.901" y2="126.617" gradientUnits="userSpaceOnUse">
<stop stop-color="#835B2D"/>
<stop offset="0.001155" stop-color="#835B2D"/>
<stop offset="1" stop-color="#F9E07E"/>
</linearGradient>
<linearGradient id="paint5_linear_1680_5052" x1="187.87" y1="224.629" x2="188.66" y2="126.619" gradientUnits="userSpaceOnUse">
<stop stop-color="#835B2D"/>
<stop offset="0.001155" stop-color="#835B2D"/>
<stop offset="1" stop-color="#F9E07E"/>
</linearGradient>
<linearGradient id="paint6_linear_1680_5052" x1="207.989" y1="226.346" x2="208.91" y2="125.066" gradientUnits="userSpaceOnUse">
<stop stop-color="#835B2D"/>
<stop offset="0.001155" stop-color="#835B2D"/>
<stop offset="1" stop-color="#F9E07E"/>
</linearGradient>
<linearGradient id="paint7_linear_1680_5052" x1="224.431" y1="224.629" x2="225.188" y2="126.618" gradientUnits="userSpaceOnUse">
<stop stop-color="#835B2D"/>
<stop offset="0.001155" stop-color="#835B2D"/>
<stop offset="1" stop-color="#F9E07E"/>
</linearGradient>
<linearGradient id="paint8_linear_1680_5052" x1="146.722" y1="251.499" x2="147.338" y2="153.472" gradientUnits="userSpaceOnUse">
<stop stop-color="#835B2D"/>
<stop offset="0.001155" stop-color="#835B2D"/>
<stop offset="1" stop-color="#F9E07E"/>
</linearGradient>
<linearGradient id="paint9_linear_1680_5052" x1="165.518" y1="251.499" x2="165.96" y2="153.47" gradientUnits="userSpaceOnUse">
<stop stop-color="#835B2D"/>
<stop offset="0.001155" stop-color="#835B2D"/>
<stop offset="1" stop-color="#F9E07E"/>
</linearGradient>
<linearGradient id="paint10_linear_1680_5052" x1="197.148" y1="251.499" x2="197.764" y2="153.472" gradientUnits="userSpaceOnUse">
<stop stop-color="#835B2D"/>
<stop offset="0.001155" stop-color="#835B2D"/>
<stop offset="1" stop-color="#F9E07E"/>
</linearGradient>
<linearGradient id="paint11_linear_1680_5052" x1="219.415" y1="251.597" x2="220.088" y2="153.413" gradientUnits="userSpaceOnUse">
<stop stop-color="#835B2D"/>
<stop offset="0.001155" stop-color="#835B2D"/>
<stop offset="1" stop-color="#F9E07E"/>
</linearGradient>
<linearGradient id="paint12_linear_1680_5052" x1="239.353" y1="251.499" x2="240.001" y2="153.472" gradientUnits="userSpaceOnUse">
<stop stop-color="#835B2D"/>
<stop offset="0.001155" stop-color="#835B2D"/>
<stop offset="1" stop-color="#F9E07E"/>
</linearGradient>
<linearGradient id="paint13_linear_1680_5052" x1="80.7895" y1="606.182" x2="85.7898" y2="-188.672" gradientUnits="userSpaceOnUse">
<stop stop-color="#835B2D"/>
<stop offset="0.001155" stop-color="#835B2D"/>
<stop offset="1" stop-color="#F9E07E"/>
</linearGradient>
</defs>
</svg>
