<svg width="145" height="145" viewBox="0 0 145 145" fill="none" xmlns="http://www.w3.org/2000/svg">
<mask id="mask0_1481_6301" style="mask-type:luminance" maskUnits="userSpaceOnUse" x="0" y="0" width="145" height="145">
<path d="M144.373 72.1841C144.373 112.053 112.053 144.373 72.1841 144.373C32.3202 144.373 0 112.053 0 72.1841C0 32.3202 32.3202 0 72.1841 0C112.053 0 144.373 32.3202 144.373 72.1841Z" fill="white"/>
</mask>
<g mask="url(#mask0_1481_6301)">
<path d="M72.1824 72.1746C91.3187 67.2395 120.829 52.1823 139.915 47.2471C142.785 55.0023 144.346 63.4122 144.346 72.1746C120.309 72.1746 96.2539 72.1746 72.1824 72.1746ZM144.346 72.1746C144.346 63.4122 142.785 55.0023 139.915 47.2471C147.871 45.1824 160.058 38.9379 168.015 36.9236C172.044 47.9018 174.259 59.7864 174.259 72.1746C164.288 72.1746 154.317 72.1746 144.346 72.1746ZM72.1824 72.1746C86.4843 62.4051 113.628 36.0675 127.929 26.2979C133.016 32.492 137.095 39.5422 139.915 47.2471C120.829 52.1823 91.3187 67.2395 72.1824 72.1746ZM139.915 47.2471C137.095 39.5422 133.016 32.492 127.929 26.2979C133.821 22.2692 145.051 11.3414 150.994 7.31271C158.195 16.0751 163.986 26.0461 168.015 36.9236C160.058 38.9379 147.871 45.1824 139.915 47.2471ZM72.1824 72.1746C80.7434 56.7145 98.6711 24.5857 107.282 9.07526C115.189 13.5068 122.189 19.3484 127.929 26.2979C113.628 36.0675 86.4843 62.4051 72.1824 72.1746ZM127.929 26.2979C122.189 19.3484 115.189 13.5068 107.282 9.07526C110.807 2.67971 118.261 -10.6653 121.786 -17.0609C132.965 -10.8164 142.886 -2.55759 150.994 7.31271C145.051 11.3414 133.821 22.2692 127.929 26.2979ZM72.1824 72.1746C72.1824 48.1368 72.1824 24.0821 72.1824 0.0107021C84.9232 0.0107021 96.8581 3.28401 107.282 9.07526C98.6711 24.5857 80.7434 56.7145 72.1824 72.1746ZM107.282 9.07526C96.8581 3.28401 84.9232 0.0107021 72.1824 0.0107021C72.1824 -9.96031 72.1824 -19.9313 72.1824 -29.9023C90.2108 -29.9023 107.081 -25.219 121.786 -17.0609C118.261 -10.6653 110.807 2.67971 107.282 9.07526ZM72.1824 72.1746C65.8372 54.4484 49.4707 23.8303 43.1758 6.05374C52.039 2.17612 61.8589 0.0107021 72.1824 0.0107021C72.1824 24.0821 72.1824 48.1368 72.1824 72.1746ZM72.1824 0.0107021C61.8589 0.0107021 52.039 2.17612 43.1758 6.05374C40.5572 -1.29862 33.7588 -13.989 31.1401 -21.291C43.6794 -26.8305 57.5784 -29.9023 72.1824 -29.9023C72.1824 -19.9313 72.1824 -9.96031 72.1824 0.0107021ZM72.1824 72.1746C58.7367 61.549 31.5934 34.9092 18.198 24.2835C25.0467 16.5283 33.5573 10.2839 43.1758 6.05374C49.4707 23.8303 65.8372 54.4484 72.1824 72.1746ZM43.1758 6.05374C33.5573 10.2839 25.0467 16.5283 18.198 24.2835C12.6082 19.852 1.37817 8.82346 -4.16128 4.44226C5.55794 -6.53593 17.5433 -15.3487 31.1401 -21.291C33.7588 -13.989 40.5572 -1.29862 43.1758 6.05374ZM72.1824 72.1746C53.5497 66.7359 23.6367 51.1751 5.004 45.7363C8.12624 37.7797 12.6082 30.528 18.198 24.2835C31.5934 34.9092 58.7367 61.549 72.1824 72.1746ZM18.198 24.2835C12.6082 30.528 8.12624 37.7797 5.004 45.7363C-2.70087 43.4702 -15.1394 37.0243 -22.8443 34.7582C-18.4128 23.5282 -12.0676 13.3054 -4.16128 4.44226C1.37817 8.82346 12.6082 19.852 18.198 24.2835ZM72.1824 72.1746C48.111 72.1746 24.0396 72.1746 -0.0318623 72.1746C-0.0318623 62.8583 1.78105 53.9448 5.004 45.7363C23.6367 51.1751 53.5497 66.7359 72.1824 72.1746ZM5.004 45.7363C1.78105 53.9448 -0.0318623 62.8583 -0.0318623 72.1746C-9.9693 72.1746 -19.9235 72.1746 -29.8945 72.1746C-29.8945 58.9807 -27.3766 46.3407 -22.8443 34.7582C-15.1394 37.0243 -2.70087 43.4702 5.004 45.7363ZM72.1824 72.1746C54.5569 78.6205 23.8381 95.0878 6.2126 101.534C2.23427 92.5699 -0.0318623 82.6492 -0.0318623 72.1746C24.0396 72.1746 48.111 72.1746 72.1824 72.1746ZM-0.0318623 72.1746C-0.0318623 82.6492 2.23427 92.5699 6.2126 101.534C-1.0894 104.203 -13.8301 111.001 -21.1321 113.67C-26.7723 101.03 -29.8945 86.9801 -29.8945 72.1746C-19.9235 72.1746 -9.9693 72.1746 -0.0318623 72.1746ZM72.1824 72.1746C60.2978 84.3614 33.3559 111.354 21.4209 123.54C15.0757 117.246 9.88879 109.793 6.2126 101.534C23.8381 95.0878 54.5569 78.6205 72.1824 72.1746ZM6.2126 101.534C9.88879 109.793 15.0757 117.246 21.4209 123.54C16.5361 128.576 5.35651 139.756 0.421362 144.792C-8.54248 135.929 -15.8948 125.404 -21.1321 113.67C-13.8301 111.001 -1.0894 104.203 6.2126 101.534ZM72.1824 72.1746C66.8444 90.908 51.3339 120.771 45.9959 139.504C36.7299 135.878 28.3704 130.389 21.4209 123.54C33.3559 111.354 60.2978 84.3614 72.1824 72.1746ZM21.4209 123.54C28.3704 130.389 36.7299 135.878 45.9959 139.504C43.7802 147.209 37.3846 159.597 35.1688 167.352C22.0252 162.266 10.2413 154.511 0.421362 144.792C5.35651 139.756 16.5361 128.576 21.4209 123.54ZM72.1824 72.1746C72.1824 96.2461 72.1824 120.317 72.1824 144.389C62.9668 144.389 54.1037 142.626 45.9959 139.504C51.3339 120.771 66.8444 90.908 72.1824 72.1746ZM45.9959 139.504C54.1037 142.626 62.9668 144.389 72.1824 144.389C72.1824 154.36 72.1824 164.314 72.1824 174.252C59.1395 174.252 46.6506 171.834 35.1688 167.352C37.3846 159.597 43.7802 147.209 45.9959 139.504ZM72.1824 72.1746C78.9809 89.4476 95.7503 120.469 102.549 137.691C93.3331 141.972 83.0096 144.389 72.1824 144.389C72.1824 120.317 72.1824 96.2461 72.1824 72.1746ZM72.1824 144.389C83.0096 144.389 93.3331 141.972 102.549 137.691C105.369 144.842 112.318 157.684 115.138 164.835C102.095 170.878 87.5418 174.252 72.1824 174.252C72.1824 164.314 72.1824 154.36 72.1824 144.389ZM72.1824 72.1746C85.2757 83.1528 112.369 109.944 125.462 120.922C119.016 127.922 111.261 133.663 102.549 137.691C95.7503 120.469 78.9809 89.4476 72.1824 72.1746ZM102.549 137.691C111.261 133.663 119.016 127.922 125.462 120.922C130.85 125.454 142.08 136.533 147.519 141.065C138.454 150.986 127.476 159.094 115.138 164.835C112.318 157.684 105.369 144.842 102.549 137.691ZM72.1824 72.1746C90.2108 78.2177 120.627 94.3828 138.605 100.426C135.383 108.03 130.901 114.929 125.462 120.922C112.369 109.944 85.2757 83.1528 72.1824 72.1746ZM125.462 120.922C130.901 114.929 135.383 108.03 138.605 100.426C146.109 102.944 158.699 109.641 166.152 112.159C161.619 122.835 155.274 132.605 147.519 141.065C142.08 136.533 130.85 125.454 125.462 120.922ZM72.1824 72.1746C96.2539 72.1746 120.309 72.1746 144.346 72.1746C144.346 82.196 142.332 91.7641 138.605 100.426C120.627 94.3828 90.2108 78.2177 72.1824 72.1746ZM138.605 100.426C142.332 91.7641 144.346 82.196 144.346 72.1746C154.317 72.1746 164.288 72.1746 174.259 72.1746C174.259 86.3758 171.389 99.8719 166.152 112.159C158.699 109.641 146.109 102.944 138.605 100.426Z" fill="url(#paint0_linear_1481_6301)"/>
</g>
<defs>
<linearGradient id="paint0_linear_1481_6301" x1="-15838.5" y1="-82804.7" x2="-66991" y2="-102230" gradientUnits="userSpaceOnUse">
<stop stop-color="#FFF8C9"/>
<stop offset="1" stop-color="#B27018"/>
</linearGradient>
</defs>
</svg>
