<svg width="502" height="252" viewBox="0 0 502 252" fill="none" xmlns="http://www.w3.org/2000/svg">
<path d="M340.736 -0.438828L188.459 37.6798C364.103 70.9767 452.286 157.25 502.233 251.466V-0.438828H340.736Z" fill="url(#paint0_linear_1681_5552)"/>
<path d="M102.703 -0.438477C212.113 64.4494 416.583 68.9104 502.232 197.242V136.246V-0.438477H102.703Z" fill="url(#paint1_linear_1681_5552)"/>
<path d="M0 -0.438927C109.786 84.5145 355.172 -4.14146 502.232 108.022V78.6479L457.258 -0.438927H0Z" fill="url(#paint2_linear_1681_5552)"/>
<path d="M69.0879 -0.438759C188.247 42.6577 385.53 7.84789 502.233 108.632V70.4888L469.308 -0.438759H69.0879Z" fill="url(#paint3_linear_1681_5552)"/>
<path d="M202.775 -0.438377C296.317 16.3568 417.021 17.0982 502.232 118.413V-0.438377H202.775Z" fill="url(#paint4_linear_1681_5552)"/>
<defs>
<linearGradient id="paint0_linear_1681_5552" x1="556.421" y1="185.348" x2="389.318" y2="42.6349" gradientUnits="userSpaceOnUse">
<stop stop-color="#9B6220"/>
<stop offset="0.192458" stop-color="#9B6220"/>
<stop offset="0.402404" stop-color="#F9D190"/>
<stop offset="0.614201" stop-color="#E7BC60"/>
<stop offset="0.807016" stop-color="#9B6220"/>
<stop offset="1" stop-color="#9B6220"/>
</linearGradient>
<linearGradient id="paint1_linear_1681_5552" x1="307.423" y1="-11.5945" x2="280.755" y2="89.8943" gradientUnits="userSpaceOnUse">
<stop stop-color="#CCCCCC"/>
<stop offset="1" stop-color="#FCFCFC"/>
</linearGradient>
<linearGradient id="paint2_linear_1681_5552" x1="257.558" y1="-31.2411" x2="261.6" y2="74.3876" gradientUnits="userSpaceOnUse">
<stop stop-color="#9B6220"/>
<stop offset="0.192458" stop-color="#9B6220"/>
<stop offset="0.402404" stop-color="#F9D190"/>
<stop offset="0.614201" stop-color="#E7BC60"/>
<stop offset="0.807016" stop-color="#9B6220"/>
<stop offset="1" stop-color="#9B6220"/>
</linearGradient>
<linearGradient id="paint3_linear_1681_5552" x1="493.229" y1="-14.1756" x2="72.7595" y2="-117.255" gradientUnits="userSpaceOnUse">
<stop stop-color="#9B6220"/>
<stop offset="0.192458" stop-color="#9B6220"/>
<stop offset="0.402404" stop-color="#F9D06F"/>
<stop offset="0.614201" stop-color="#E7BC60"/>
<stop offset="0.807016" stop-color="#9B6220"/>
<stop offset="1" stop-color="#9B6220"/>
</linearGradient>
<linearGradient id="paint4_linear_1681_5552" x1="358.839" y1="-110.192" x2="307.959" y2="54.0745" gradientUnits="userSpaceOnUse">
<stop stop-color="#CCCCCC"/>
<stop offset="1" stop-color="#FCFCFC"/>
</linearGradient>
</defs>
</svg>
