<svg width="272" height="279" viewBox="0 0 272 279" fill="none" xmlns="http://www.w3.org/2000/svg">
<path d="M36.5332 206.348L76.7444 204.386L86.5325 242.531L135.075 178.549L110.075 160.458L85.0776 142.366L36.5332 206.348Z" fill="url(#paint0_linear_1681_5599)"/>
<path d="M39.2871 204.626L77.9934 202.738L87.4126 239.456L134.138 177.871L110.074 160.457L86.0124 143.044L39.2871 204.626Z" fill="url(#paint1_linear_1681_5599)"/>
<path d="M138.486 160.976L113.486 179.068L162.031 243.05L171.817 204.905L212.03 206.866L163.486 142.884L138.486 160.976Z" fill="url(#paint2_linear_1681_5599)"/>
<path d="M138.485 160.976L114.424 178.389L161.147 239.974L170.566 203.257L209.275 205.145L162.547 143.562L138.485 160.976Z" fill="url(#paint3_linear_1681_5599)"/>
<g style="mix-blend-mode:multiply" filter="url(#filter0_f_1681_5599)">
<ellipse cx="135.724" cy="140.698" rx="65.5579" ry="67.6622" fill="#808080"/>
</g>
<path d="M124.633 186.941C121.139 186.941 117.704 185.999 114.699 184.216L94.5222 172.254C93.1917 171.464 91.7557 170.87 90.2558 170.485L67.5369 164.669C60.6361 162.902 55.2515 157.514 53.4859 150.608L47.6721 127.872C47.289 126.373 46.695 124.936 45.905 123.603L33.9508 103.414C30.3185 97.2808 30.3185 89.6605 33.9508 83.5277L45.905 63.3386C46.695 62.0056 47.289 60.5686 47.6721 59.0692L53.4859 36.3331C55.2515 29.4276 60.6361 24.0392 67.5369 22.2724L90.2558 16.4546C91.7557 16.0712 93.1917 15.4768 94.5222 14.6877L114.699 2.72374C117.704 0.942001 121.139 -0.000152588 124.633 -0.000152588C128.129 -0.000152588 131.564 0.942001 134.571 2.72374L154.746 14.6877C156.08 15.4768 157.514 16.0727 159.011 16.4546L181.732 22.2724C188.634 24.0392 194.018 29.4276 195.784 36.3331L201.596 59.0692C201.981 60.5686 202.575 62.0041 203.363 63.3386L215.318 83.5277C218.95 89.6605 218.95 97.2808 215.318 103.414L203.363 123.603C202.575 124.937 201.981 126.373 201.596 127.871L195.784 150.608C194.018 157.514 188.634 162.902 181.732 164.669L159.011 170.485C157.514 170.869 156.08 171.463 154.746 172.254L134.571 184.216C131.564 185.999 128.129 186.941 124.633 186.941Z" fill="url(#paint4_linear_1681_5599)"/>
<path d="M133.753 4.10263L153.928 16.0666C155.389 16.933 156.968 17.5868 158.613 18.0088L181.334 23.8251C187.666 25.4464 192.611 30.3948 194.231 36.7312L200.043 59.4658C200.465 61.1138 201.118 62.692 201.984 64.1542L213.938 84.3448C217.27 89.9709 217.27 96.9686 213.938 102.596L201.984 122.785C201.118 124.249 200.465 125.827 200.043 127.474L194.231 150.21C192.611 156.546 187.666 161.495 181.334 163.116L158.613 168.932C156.968 169.354 155.389 170.008 153.928 170.874L133.753 182.837C128.129 186.172 121.136 186.172 115.514 182.837L95.3375 170.874C93.8763 170.008 92.2992 169.354 90.6524 168.932L67.9334 163.116C61.5999 161.495 56.6564 156.546 55.0363 150.21L49.2224 127.474C48.8022 125.827 48.1488 124.249 47.2816 122.785L35.3274 102.596C31.995 96.9686 31.995 89.9709 35.3274 84.3448L47.2816 64.1542C48.1488 62.692 48.8022 61.1138 49.2224 59.4658L55.0363 36.7312C56.6564 30.3948 61.5999 25.4464 67.9334 23.8251L90.6524 18.0088C92.2992 17.5868 93.8763 16.933 95.3375 16.0666L115.514 4.10263C121.136 0.76799 128.129 0.76799 133.753 4.10263Z" fill="url(#paint5_linear_1681_5599)"/>
<path d="M205.65 94.7518C205.65 139.529 169.378 175.826 124.634 175.826C79.8877 175.826 43.6152 139.529 43.6152 94.7518C43.6152 49.9765 79.8877 13.6774 124.634 13.6774C169.378 13.6774 205.65 49.9765 205.65 94.7518Z" fill="url(#paint6_linear_1681_5599)"/>
<path d="M203.203 94.7515C203.203 138.175 168.027 173.377 124.634 173.377C81.2406 173.377 46.0625 138.175 46.0625 94.7515C46.0625 51.3285 81.2406 16.1261 124.634 16.1261C168.027 16.1261 203.203 51.3285 203.203 94.7515Z" fill="url(#paint7_linear_1681_5599)"/>
<path d="M196.749 94.7513C196.749 134.608 164.461 166.917 124.633 166.917C84.8043 166.917 52.5176 134.608 52.5176 94.7513C52.5176 54.8962 84.8043 22.5856 124.633 22.5856C164.461 22.5856 196.749 54.8962 196.749 94.7513Z" fill="url(#paint8_linear_1681_5599)"/>
<path d="M191.219 94.7516C191.219 131.551 161.408 161.383 124.635 161.383C87.8601 161.383 58.0488 131.551 58.0488 94.7516C58.0488 57.9517 87.8601 28.1213 124.635 28.1213C161.408 28.1213 191.219 57.9517 191.219 94.7516Z" fill="url(#paint9_linear_1681_5599)"/>
<path d="M185.808 94.7516C185.808 128.56 158.419 155.968 124.633 155.968C90.8468 155.968 63.459 128.56 63.459 94.7516C63.459 60.9431 90.8468 33.5349 124.633 33.5349C158.419 33.5349 185.808 60.9431 185.808 94.7516Z" fill="url(#paint10_linear_1681_5599)"/>
<path d="M183.791 94.7516C183.791 127.446 157.305 153.949 124.635 153.949C91.9634 153.949 65.4785 127.446 65.4785 94.7516C65.4785 62.0576 91.9634 35.5544 124.635 35.5544C157.305 35.5544 183.791 62.0576 183.791 94.7516Z" fill="url(#paint11_linear_1681_5599)"/>
<path d="M179.758 101.638C179.702 102.098 180.029 102.517 180.488 102.573C180.948 102.631 181.367 102.304 181.424 101.843C181.48 101.382 181.154 100.964 180.695 100.908C180.234 100.85 179.816 101.177 179.758 101.638ZM178.491 108.415C178.377 108.865 178.649 109.323 179.097 109.436C179.547 109.548 180.004 109.278 180.118 108.828C180.231 108.378 179.959 107.922 179.509 107.808C179.06 107.694 178.604 107.967 178.491 108.415ZM176.386 114.987C176.216 115.42 176.429 115.906 176.862 116.075C177.293 116.243 177.78 116.03 177.948 115.599C178.117 115.168 177.904 114.681 177.473 114.511C177.041 114.343 176.554 114.556 176.386 114.987ZM173.479 121.245C173.258 121.651 173.408 122.162 173.816 122.383C174.222 122.604 174.732 122.453 174.953 122.045C175.174 121.639 175.023 121.128 174.617 120.907C174.21 120.686 173.699 120.837 173.479 121.243V121.245ZM169.818 127.092C169.548 127.468 169.635 127.993 170.011 128.262C170.388 128.533 170.912 128.446 171.183 128.069C171.452 127.692 171.366 127.168 170.99 126.897C170.612 126.628 170.087 126.713 169.818 127.092ZM165.464 132.44C165.15 132.781 165.172 133.312 165.513 133.626C165.853 133.941 166.384 133.919 166.698 133.578C167.012 133.237 166.99 132.706 166.65 132.392C166.309 132.077 165.779 132.099 165.464 132.44ZM160.487 137.211C160.133 137.51 160.088 138.041 160.389 138.394C160.687 138.748 161.216 138.793 161.571 138.492C161.924 138.193 161.967 137.664 161.669 137.309C161.37 136.956 160.84 136.911 160.487 137.211ZM154.96 141.332C154.572 141.584 154.463 142.105 154.717 142.493C154.971 142.882 155.49 142.991 155.877 142.737C156.266 142.484 156.375 141.964 156.122 141.574C155.868 141.187 155.349 141.078 154.96 141.332ZM148.969 144.734C148.554 144.938 148.38 145.441 148.583 145.857C148.787 146.274 149.29 146.447 149.707 146.243C150.122 146.04 150.295 145.538 150.092 145.12C149.889 144.703 149.386 144.53 148.969 144.734ZM142.599 147.368C142.161 147.518 141.927 147.994 142.077 148.433C142.228 148.872 142.703 149.107 143.142 148.956C143.581 148.807 143.814 148.329 143.665 147.891C143.516 147.452 143.038 147.217 142.599 147.368ZM135.952 149.185C135.498 149.278 135.206 149.723 135.301 150.176C135.394 150.631 135.839 150.924 136.291 150.829C136.746 150.735 137.038 150.29 136.943 149.837C136.85 149.382 136.405 149.091 135.952 149.185ZM129.13 150.161C128.668 150.197 128.322 150.601 128.36 151.064C128.397 151.526 128.802 151.872 129.264 151.834C129.726 151.797 130.069 151.392 130.032 150.93C129.996 150.467 129.592 150.123 129.13 150.161ZM122.237 150.288C121.774 150.27 121.383 150.629 121.363 151.092C121.343 151.556 121.704 151.946 122.166 151.966C122.629 151.987 123.02 151.627 123.04 151.163C123.058 150.699 122.699 150.309 122.237 150.288ZM115.382 149.572C114.924 149.496 114.492 149.804 114.416 150.262C114.34 150.72 114.648 151.152 115.105 151.229C115.562 151.305 115.995 150.997 116.071 150.539C116.147 150.081 115.839 149.649 115.382 149.572ZM108.67 148.011C108.226 147.877 107.758 148.129 107.626 148.575C107.492 149.018 107.744 149.487 108.187 149.619C108.632 149.751 109.099 149.499 109.233 149.056C109.365 148.612 109.113 148.143 108.67 148.011ZM102.2 145.622C101.777 145.433 101.281 145.626 101.094 146.05C100.906 146.473 101.099 146.97 101.522 147.157C101.946 147.345 102.441 147.152 102.629 146.728C102.816 146.305 102.625 145.808 102.2 145.622ZM96.0804 142.445C95.6822 142.205 95.1673 142.334 94.9293 142.733C94.6898 143.13 94.819 143.645 95.2156 143.884C95.6138 144.123 96.1287 143.993 96.3667 143.597C96.6063 143.2 96.4771 142.683 96.0804 142.445ZM90.3996 138.533C90.0356 138.248 89.5083 138.312 89.222 138.676C88.9374 139.042 89.0011 139.57 89.3651 139.854C89.7307 140.141 90.2581 140.077 90.5427 139.711C90.829 139.347 90.7651 138.819 90.3996 138.533ZM85.246 133.952C84.9194 133.623 84.3889 133.622 84.0607 133.949C83.7309 134.275 83.7309 134.806 84.0576 135.136C84.3842 135.465 84.9147 135.466 85.2429 135.139C85.5727 134.812 85.5743 134.28 85.246 133.952ZM80.696 128.771C80.4129 128.404 79.8856 128.337 79.52 128.622C79.1529 128.905 79.086 129.433 79.3707 129.799C79.6538 130.166 80.1812 130.233 80.5483 129.948C80.9139 129.665 80.9807 129.137 80.6976 128.771H80.696ZM76.8212 123.069C76.5848 122.671 76.0699 122.538 75.6716 122.775C75.2734 123.012 75.1412 123.527 75.3776 123.925C75.6141 124.325 76.129 124.456 76.5272 124.22C76.9254 123.983 77.0577 123.468 76.8212 123.069ZM73.6821 116.935C73.497 116.51 73.0023 116.315 72.5776 116.5C72.153 116.686 71.9585 117.179 72.1436 117.605C72.3287 118.03 72.8234 118.225 73.2481 118.04C73.6727 117.855 73.8672 117.36 73.6821 116.935ZM71.3301 110.451C71.1994 110.008 70.7328 109.752 70.2879 109.883C69.8446 110.014 69.5894 110.481 69.7201 110.924C69.8507 111.37 70.3174 111.625 70.7607 111.494C71.2056 111.363 71.4607 110.896 71.3301 110.451ZM69.8041 103.727C69.7294 103.269 69.2985 102.958 68.8412 103.032C68.3839 103.107 68.0727 103.538 68.1474 103.996C68.2221 104.454 68.653 104.765 69.1103 104.69C69.5676 104.615 69.8772 104.184 69.8041 103.727ZM69.1227 96.8634C69.1056 96.3995 68.7168 96.0384 68.2532 96.0555C67.7897 96.0727 67.4288 96.4634 67.4459 96.9257C67.463 97.3896 67.8534 97.7507 68.3154 97.7336C68.779 97.7165 69.1399 97.3273 69.1227 96.8634ZM69.2861 89.9676C69.3265 89.5053 68.9843 89.099 68.5223 89.0601C68.0603 89.0196 67.6543 89.362 67.6154 89.8243C67.575 90.2867 67.9172 90.693 68.3792 90.7319C68.8412 90.7723 69.2472 90.4283 69.2861 89.9676ZM70.2972 83.1449C70.392 82.6919 70.1028 82.2452 69.6501 82.1486C69.1974 82.0521 68.751 82.3432 68.6546 82.7962C68.5597 83.2492 68.849 83.6959 69.3016 83.7924C69.7543 83.8874 70.2007 83.5979 70.2972 83.1449ZM72.1483 76.4965C72.3008 76.0591 72.0689 75.5812 71.6318 75.4287C71.1932 75.2761 70.7156 75.5081 70.5632 75.9455C70.4107 76.3844 70.6425 76.8623 71.0812 77.0149C71.5183 77.1674 71.9959 76.9355 72.1483 76.4965ZM74.8145 70.1346C75.0198 69.7189 74.8503 69.2146 74.4349 69.0091C74.0196 68.8036 73.5156 68.9733 73.3103 69.3889C73.1049 69.8046 73.2761 70.3089 73.6914 70.5144C74.1068 70.7198 74.6092 70.5502 74.8145 70.1346ZM78.2508 64.1525C78.5059 63.7649 78.4 63.2449 78.0127 62.9897C77.6269 62.7328 77.1059 62.8402 76.8508 63.2263C76.5956 63.6139 76.7014 64.1338 77.0887 64.3906C77.4745 64.6459 77.9956 64.5385 78.2508 64.1525ZM82.3994 58.642C82.7012 58.2902 82.6591 57.7594 82.3076 57.459C81.956 57.157 81.4256 57.199 81.1238 57.5508C80.8236 57.9026 80.8641 58.4334 81.2172 58.7354C81.5687 59.0358 82.0992 58.9954 82.3994 58.642ZM87.1952 53.6872C87.5374 53.3744 87.5607 52.8435 87.2496 52.5011C86.9369 52.1586 86.4065 52.1337 86.0643 52.4466C85.7221 52.7595 85.6972 53.2903 86.0098 53.6328C86.3225 53.9752 86.853 53.9986 87.1952 53.6872ZM92.5618 49.3598C92.9398 49.0921 93.0301 48.5675 92.7625 48.1892C92.4934 47.811 91.9707 47.7222 91.5927 47.99C91.2147 48.2577 91.1245 48.7823 91.3921 49.1606C91.6596 49.5388 92.1838 49.6276 92.5618 49.3598ZM98.42 45.7313C98.8291 45.5118 98.9816 45.0028 98.7622 44.595C98.5445 44.1856 98.0358 44.033 97.6267 44.251C97.2192 44.4704 97.0651 44.9795 97.2845 45.3889C97.5038 45.7967 98.0109 45.9508 98.42 45.7313ZM104.68 42.8593C105.112 42.6928 105.328 42.2071 105.162 41.7744C104.995 41.3416 104.51 41.1252 104.078 41.2918C103.645 41.4584 103.429 41.9441 103.595 42.3768C103.762 42.8095 104.249 43.0259 104.68 42.8593ZM111.253 40.789C111.703 40.6769 111.978 40.2224 111.866 39.7725C111.756 39.3211 111.302 39.0472 110.85 39.1592C110.401 39.2698 110.127 39.7243 110.238 40.1757C110.35 40.6256 110.804 40.8995 111.253 40.789ZM118.034 39.5546C118.494 39.5001 118.823 39.0814 118.768 38.6222C118.714 38.1614 118.297 37.8314 117.836 37.8859C117.378 37.9404 117.048 38.3591 117.102 38.8183C117.157 39.2791 117.574 39.6091 118.034 39.5546ZM124.916 39.167C125.379 39.1686 125.757 38.795 125.759 38.3311C125.762 37.8672 125.389 37.4905 124.925 37.4874C124.462 37.4859 124.084 37.8595 124.082 38.3233C124.079 38.7872 124.454 39.1639 124.916 39.167ZM131.794 39.6231C132.253 39.6823 132.673 39.3585 132.732 38.8977C132.791 38.4385 132.468 38.0167 132.007 37.9575C131.549 37.8984 131.129 38.2237 131.069 38.6845C131.01 39.1437 131.334 39.5639 131.794 39.6231ZM138.561 40.9276C139.009 41.0443 139.468 40.7735 139.583 40.3251C139.7 39.8753 139.429 39.4177 138.981 39.3025C138.531 39.1857 138.074 39.4566 137.959 39.9049C137.842 40.3547 138.113 40.8124 138.561 40.9276ZM145.118 43.0679C145.547 43.2392 146.035 43.0275 146.207 42.5978C146.378 42.1666 146.168 41.6779 145.737 41.5066C145.306 41.3354 144.817 41.5471 144.646 41.9783C144.475 42.4079 144.687 42.8967 145.118 43.0679ZM151.354 46.0084C151.76 46.2325 152.27 46.0831 152.494 45.6768C152.717 45.2706 152.569 44.76 152.163 44.5374C151.757 44.3132 151.247 44.4627 151.024 44.8689C150.8 45.2752 150.948 45.7858 151.354 46.0084ZM157.178 49.7007C157.553 49.9731 158.079 49.8891 158.349 49.5139C158.621 49.1388 158.537 48.6142 158.163 48.3418C157.788 48.0694 157.262 48.1534 156.991 48.5286C156.719 48.9037 156.803 49.4299 157.178 49.7007ZM162.501 54.0858C162.84 54.4017 163.371 54.3831 163.688 54.0437C164.004 53.7044 163.985 53.1736 163.646 52.8576C163.307 52.5416 162.776 52.5602 162.461 52.898C162.143 53.2374 162.162 53.7698 162.501 54.0858ZM167.244 59.0903C167.541 59.4468 168.07 59.4935 168.426 59.1961C168.781 58.8973 168.827 58.368 168.53 58.0131C168.233 57.6582 167.704 57.6099 167.348 57.9088C166.993 58.2061 166.947 58.7354 167.244 59.0903ZM171.333 64.6412C171.584 65.0319 172.103 65.1425 172.492 64.8919C172.881 64.6397 172.993 64.1198 172.743 63.7306C172.491 63.3415 171.971 63.2294 171.582 63.4815C171.193 63.7322 171.081 64.2521 171.333 64.6412ZM174.703 70.6545C174.905 71.0717 175.406 71.2476 175.823 71.0452C176.241 70.8444 176.415 70.3432 176.215 69.9244C176.014 69.5073 175.512 69.3314 175.095 69.5337C174.678 69.7345 174.502 70.2358 174.703 70.6545ZM177.302 77.0413C177.448 77.4819 177.924 77.7185 178.365 77.5706C178.803 77.4227 179.04 76.9464 178.892 76.5074C178.744 76.0669 178.27 75.8303 177.829 75.9782C177.391 76.126 177.154 76.6024 177.302 77.0413ZM179.083 83.7037C179.175 84.1582 179.617 84.4524 180.071 84.3606C180.525 84.2688 180.819 83.8267 180.727 83.3721C180.637 82.9176 180.194 82.6234 179.74 82.7137C179.285 82.8055 178.991 83.2492 179.083 83.7037ZM180.023 90.5357C180.057 90.9981 180.46 91.3452 180.922 91.3094C181.384 91.2751 181.731 90.872 181.697 90.4096C181.662 89.9473 181.259 89.6002 180.797 89.636C180.335 89.6702 179.989 90.0734 180.023 90.5357ZM180.18 94.7527C180.18 95.2165 180.556 95.5917 181.02 95.5917C181.483 95.5917 181.858 95.2165 181.858 94.7527C181.858 94.2888 181.483 93.9136 181.02 93.9136C180.556 93.9136 180.18 94.2888 180.18 94.7527Z" fill="url(#paint12_linear_1681_5599)"/>
<path d="M145.266 98.8921C146.612 98.8921 147.758 99.224 148.7 99.8833C149.813 100.665 150.369 101.7 150.369 102.986C150.369 103.37 150.318 103.743 150.218 104.108C149.813 105.585 148.727 106.576 146.958 107.08L150.849 113.86H151.177C151.262 113.86 151.346 113.869 151.43 113.887C151.699 113.938 151.834 114.155 151.834 114.539L147.389 114.564L143.623 107.392H142.385V113.834H144.405V114.539H136.827V113.834H138.849V99.5972H136.827V98.8921H145.266ZM96.0537 113.834H96.8096C96.9116 113.834 97.0038 113.842 97.0889 113.86C97.3065 113.895 97.417 114.121 97.417 114.539H90.6475V113.834H92.4404L90.5449 108.828H85.5186L83.6982 113.834H85.1133C85.2142 113.834 85.3077 113.842 85.3916 113.86C85.6106 113.895 85.7197 114.121 85.7197 114.539H81.0723V113.834H82.6885L88.2207 98.8921H90.0908L96.0537 113.834ZM104.01 99.5972H101.989L105.955 110.992L108.432 104.03L106.511 98.8921H112.373V99.5972L110.352 99.5708L114.267 110.757L117.829 99.5972H115.808V98.8921H119.977V99.5972H118.713L113.888 114.539H113.383C113.097 114.539 112.861 114.485 112.676 114.38C112.373 114.207 112.019 113.591 111.615 112.53L108.887 105.203L105.551 114.539H105.045C104.759 114.539 104.524 114.485 104.338 114.38C104.035 114.207 103.681 113.59 103.277 112.53L98.4258 99.5972H97.1631V98.8921H104.01V99.5972ZM134.959 113.834H135.717C135.819 113.834 135.91 113.842 135.994 113.86C136.214 113.895 136.322 114.121 136.322 114.539H129.553V113.834H131.346L129.452 108.828H124.424L122.605 113.834H124.021C124.122 113.834 124.214 113.842 124.298 113.86C124.517 113.895 124.626 114.121 124.626 114.539H119.978V113.834H121.595L127.127 98.8921H128.998L134.959 113.834ZM159.793 98.8921C161.662 98.8922 163.296 99.3538 164.693 100.274C166.816 101.7 167.877 103.865 167.877 106.768C167.877 109.044 167.135 110.906 165.654 112.348C164.138 113.808 162.208 114.539 159.869 114.539H152.341V113.834H154.362V99.5972H152.341V98.8921H159.793ZM157.898 99.5972V113.834H159.818C160.609 113.834 161.276 113.67 161.814 113.337C163.212 112.487 163.91 110.253 163.91 106.637C163.91 104.829 163.742 103.377 163.405 102.282C162.816 100.492 161.638 99.5972 159.869 99.5972H157.898ZM85.8213 108.045H90.2422L87.9941 102.048L85.8213 108.045ZM124.727 108.045H129.148L126.899 102.048L124.727 108.045ZM142.385 106.611H143.952C144.458 106.611 144.902 106.481 145.291 106.219C146.166 105.647 146.604 104.612 146.604 103.117C146.604 102.631 146.546 102.161 146.428 101.709C146.024 100.302 145.13 99.5972 143.75 99.5972H142.385V106.611ZM132.926 77.2417C134.476 77.2417 135.948 77.5803 137.347 78.2583C137.347 78.1014 137.355 77.9631 137.373 77.8413C137.457 77.5122 137.735 77.3452 138.206 77.3452V82.0649H137.222C137.204 81.1259 136.984 80.317 136.564 79.6401C135.872 78.5619 134.837 78.0239 133.456 78.0239C133.103 78.024 132.765 78.076 132.445 78.1802C131.487 78.5104 131.006 79.1886 131.006 80.2144C131.006 80.6136 131.09 80.9967 131.259 81.3608C131.613 82.109 132.495 82.8648 133.91 83.6294C135.46 84.4816 136.345 84.9674 136.564 85.0894C138.096 86.1151 138.863 87.3498 138.863 88.7925C138.863 89.9387 138.467 90.9128 137.677 91.7114C136.531 92.8425 134.887 93.4077 132.749 93.4077C130.913 93.4076 129.347 92.9641 128.05 92.0767C128.05 92.3729 128.034 92.6084 127.999 92.7817C127.915 93.0601 127.646 93.1997 127.192 93.1997V87.6714H128.177C128.244 88.5915 128.429 89.4097 128.732 90.1216C129.456 91.8088 130.711 92.6518 132.495 92.6519C132.968 92.6519 133.397 92.5812 133.786 92.4419C134.863 92.025 135.401 91.1916 135.401 89.939C135.401 89.5748 135.326 89.2182 135.174 88.8716C134.821 88.1409 133.918 87.3833 132.471 86.6011C130.855 85.7499 129.944 85.2539 129.743 85.1157C128.143 84.09 127.344 82.8561 127.344 81.4136C127.344 80.4405 127.672 79.5963 128.329 78.8843C129.356 77.7897 130.888 77.2417 132.926 77.2417ZM104.578 77.5024C105.504 77.5025 106.33 77.6065 107.054 77.8149C108.788 78.3361 109.656 79.4054 109.656 81.021C109.656 81.3699 109.597 81.726 109.479 82.0913C109.058 83.3077 108.089 84.1679 106.574 84.6714C106.977 84.724 107.365 84.8035 107.735 84.9077C109.773 85.4639 110.793 86.7065 110.793 88.6362C110.793 89.5051 110.54 90.304 110.035 91.0347C109.007 92.4422 107.34 93.146 105.032 93.146H96.3926V92.4419H98.4131V78.2065H96.3926V77.5024H104.578ZM124.663 82.5083H123.93L123.375 80.7085C123.324 80.5528 123.264 80.3956 123.197 80.2388C122.675 78.8843 121.724 78.2067 120.343 78.2065H117.488V84.6987H122.34V85.481H117.488V92.4419H120.343C120.662 92.4419 120.966 92.4084 121.252 92.3394C122.212 92.0772 122.912 91.2783 123.35 89.939L123.93 88.1401H124.663L124.562 93.146H111.932V92.4419H113.952V78.2065H111.932V77.5024H124.562L124.663 82.5083ZM153.565 83.0815H152.808L152.024 80.7349C151.905 80.4048 151.797 80.1181 151.696 79.8735C151.19 78.7624 150.331 78.2065 149.119 78.2065H148.688V92.4419H150.406C150.76 92.4781 150.988 92.7129 151.09 93.146H142.752V92.4419H145.152V78.2065H144.722C144.15 78.2066 143.661 78.3195 143.257 78.5454C142.668 78.8932 142.188 79.6228 141.818 80.7349L141.034 83.0815H140.276L140.377 77.5024H153.464L153.565 83.0815ZM101.95 92.4419H103.643C103.861 92.4419 104.08 92.4252 104.299 92.3901C106.051 92.129 106.928 90.8168 106.928 88.4526C106.928 87.9306 106.851 87.4447 106.699 86.9917C106.261 85.6884 105.369 85.0366 104.021 85.0366H101.95V92.4419ZM101.95 84.3071H103.365C103.668 84.3071 103.954 84.2717 104.224 84.2026C105.402 83.8549 105.991 82.8645 105.991 81.231C105.975 79.2498 105.033 78.2406 103.163 78.2065H101.95V84.3071Z" fill="url(#paint13_linear_1681_5599)"/>
<path d="M125.897 57.8766L121.625 59.9927L122.367 55.3719L118.984 52.0579L123.716 51.3183L125.897 47.1529L128.079 51.3183L132.808 52.0579L129.427 55.3719L130.168 59.9927L125.897 57.8766Z" fill="url(#paint14_linear_1681_5599)"/>
<path d="M145.203 61.0136L142.862 62.1724L143.268 59.6401L141.416 57.8243L144.007 57.4197L145.203 55.1383L146.398 57.4197L148.989 57.8243L147.136 59.6401L147.543 62.1724L145.203 61.0136Z" fill="url(#paint15_linear_1681_5599)"/>
<path d="M107.24 61.0136L104.9 62.1724L105.306 59.6401L103.453 57.8243L106.044 57.4197L107.24 55.1383L108.435 57.4197L111.028 57.8243L109.175 59.6401L109.582 62.1724L107.24 61.0136Z" fill="url(#paint16_linear_1681_5599)"/>
<path d="M125.951 141.508L122.405 143.265L123.02 139.429L120.213 136.677L124.139 136.064L125.951 132.606L127.763 136.064L131.689 136.677L128.882 139.429L129.497 143.265L125.951 141.508Z" fill="url(#paint17_linear_1681_5599)"/>
<path d="M145.203 136.556L142.862 137.715L143.268 135.183L141.416 133.367L144.007 132.962L145.203 130.681L146.398 132.962L148.989 133.367L147.136 135.183L147.543 137.715L145.203 136.556Z" fill="url(#paint18_linear_1681_5599)"/>
<path d="M107.24 136.556L104.9 137.715L105.306 135.183L103.453 133.367L106.044 132.962L107.24 130.681L108.435 132.962L111.028 133.367L109.175 135.183L109.582 137.715L107.24 136.556Z" fill="url(#paint19_linear_1681_5599)"/>
<defs>
<filter id="filter0_f_1681_5599" x="-0.000648499" y="2.86898" width="271.449" height="275.658" filterUnits="userSpaceOnUse" color-interpolation-filters="sRGB">
<feFlood flood-opacity="0" result="BackgroundImageFix"/>
<feBlend mode="normal" in="SourceGraphic" in2="BackgroundImageFix" result="shape"/>
<feGaussianBlur stdDeviation="35.0833" result="effect1_foregroundBlur_1681_5599"/>
</filter>
<linearGradient id="paint0_linear_1681_5599" x1="128.725" y1="203.63" x2="73.5748" y2="185.165" gradientUnits="userSpaceOnUse">
<stop stop-color="#DEE2ED"/>
<stop offset="0.110945" stop-color="#DEE2ED"/>
<stop offset="0.649887" stop-color="#FBFCFE"/>
<stop offset="1" stop-color="#FBFCFE"/>
</linearGradient>
<linearGradient id="paint1_linear_1681_5599" x1="96.6594" y1="176.741" x2="76.0041" y2="208.324" gradientUnits="userSpaceOnUse">
<stop stop-color="#DEE2ED"/>
<stop offset="0.110945" stop-color="#DEE2ED"/>
<stop offset="0.649887" stop-color="#FBFCFE"/>
<stop offset="1" stop-color="#FBFCFE"/>
</linearGradient>
<linearGradient id="paint2_linear_1681_5599" x1="119.837" y1="204.149" x2="174.987" y2="185.684" gradientUnits="userSpaceOnUse">
<stop stop-color="#DEE2ED"/>
<stop offset="0.110945" stop-color="#DEE2ED"/>
<stop offset="0.649887" stop-color="#FBFCFE"/>
<stop offset="1" stop-color="#FBFCFE"/>
</linearGradient>
<linearGradient id="paint3_linear_1681_5599" x1="152.548" y1="176.114" x2="169.76" y2="206.487" gradientUnits="userSpaceOnUse">
<stop stop-color="#DEE2ED"/>
<stop offset="0.110945" stop-color="#DEE2ED"/>
<stop offset="0.649887" stop-color="#FBFCFE"/>
<stop offset="1" stop-color="#FBFCFE"/>
</linearGradient>
<linearGradient id="paint4_linear_1681_5599" x1="124.633" y1="-46.8693" x2="124.633" y2="193.536" gradientUnits="userSpaceOnUse">
<stop stop-color="#B17A3E"/>
<stop offset="0.192458" stop-color="#B17A3E"/>
<stop offset="0.402404" stop-color="#FFE3B8"/>
<stop offset="0.614201" stop-color="#F0CD86"/>
<stop offset="0.807016" stop-color="#B17A3E"/>
<stop offset="1" stop-color="#B17A3E"/>
</linearGradient>
<linearGradient id="paint5_linear_1681_5599" x1="124.634" y1="-44.4636" x2="124.634" y2="191.818" gradientUnits="userSpaceOnUse">
<stop stop-color="#9B6220"/>
<stop offset="0.192458" stop-color="#9B6220"/>
<stop offset="0.402404" stop-color="#F9D190"/>
<stop offset="0.614201" stop-color="#E7BC60"/>
<stop offset="0.807016" stop-color="#9B6220"/>
<stop offset="1" stop-color="#9B6220"/>
</linearGradient>
<linearGradient id="paint6_linear_1681_5599" x1="124.634" y1="-73.8879" x2="124.634" y2="225.886" gradientUnits="userSpaceOnUse">
<stop stop-color="#B17A3E"/>
<stop offset="0.192458" stop-color="#B17A3E"/>
<stop offset="0.402404" stop-color="#FFE3B8"/>
<stop offset="0.614201" stop-color="#F0CD86"/>
<stop offset="0.807016" stop-color="#B17A3E"/>
<stop offset="1" stop-color="#B17A3E"/>
</linearGradient>
<linearGradient id="paint7_linear_1681_5599" x1="124.634" y1="-68.7941" x2="124.634" y2="221.924" gradientUnits="userSpaceOnUse">
<stop stop-color="#9B6220"/>
<stop offset="0.192458" stop-color="#9B6220"/>
<stop offset="0.402404" stop-color="#F9D190"/>
<stop offset="0.614201" stop-color="#E7BC60"/>
<stop offset="0.807016" stop-color="#9B6220"/>
<stop offset="1" stop-color="#9B6220"/>
</linearGradient>
<linearGradient id="paint8_linear_1681_5599" x1="218.43" y1="94.7513" x2="34.4882" y2="94.7513" gradientUnits="userSpaceOnUse">
<stop stop-color="#9B6220"/>
<stop offset="0.192458" stop-color="#9B6220"/>
<stop offset="0.402404" stop-color="#F9D190"/>
<stop offset="0.614201" stop-color="#E7BC60"/>
<stop offset="0.807016" stop-color="#9B6220"/>
<stop offset="1" stop-color="#9B6220"/>
</linearGradient>
<linearGradient id="paint9_linear_1681_5599" x1="124.635" y1="158.53" x2="124.635" y2="20.1348" gradientUnits="userSpaceOnUse">
<stop stop-color="white"/>
<stop offset="0.215808" stop-color="white"/>
<stop offset="0.994647" stop-color="#F2DDBE"/>
<stop offset="0.998808" stop-color="#F2DDBE"/>
<stop offset="1" stop-color="#F2DDBE"/>
</linearGradient>
<linearGradient id="paint10_linear_1681_5599" x1="126.301" y1="25.7437" x2="123.256" y2="151.5" gradientUnits="userSpaceOnUse">
<stop stop-color="white"/>
<stop offset="0.215808" stop-color="white"/>
<stop offset="0.994647" stop-color="#F8EDDC"/>
<stop offset="0.998808" stop-color="#F8EDDC"/>
<stop offset="1" stop-color="#F8EDDC"/>
</linearGradient>
<linearGradient id="paint11_linear_1681_5599" x1="126.247" y1="28.0202" x2="123.303" y2="149.628" gradientUnits="userSpaceOnUse">
<stop stop-color="white"/>
<stop offset="0.215808" stop-color="white"/>
<stop offset="0.994647" stop-color="#F2DDBE"/>
<stop offset="0.998808" stop-color="#F2DDBE"/>
<stop offset="1" stop-color="#F2DDBE"/>
</linearGradient>
<linearGradient id="paint12_linear_1681_5599" x1="126.016" y1="37.503" x2="123.244" y2="152.002" gradientUnits="userSpaceOnUse">
<stop stop-color="#9B6220"/>
<stop offset="0.192458" stop-color="#9B6220"/>
<stop offset="0.402404" stop-color="#F9D190"/>
<stop offset="0.614201" stop-color="#E7BC60"/>
<stop offset="0.807016" stop-color="#9B6220"/>
<stop offset="1" stop-color="#9B6220"/>
</linearGradient>
<linearGradient id="paint13_linear_1681_5599" x1="160.161" y1="130.658" x2="66.5617" y2="71.8752" gradientUnits="userSpaceOnUse">
<stop stop-color="#9B6220"/>
<stop offset="0.192458" stop-color="#9B6220"/>
<stop offset="0.402404" stop-color="#F7CA80"/>
<stop offset="0.614201" stop-color="#E5B651"/>
<stop offset="0.807016" stop-color="#9B6220"/>
<stop offset="1" stop-color="#9B6220"/>
</linearGradient>
<linearGradient id="paint14_linear_1681_5599" x1="126.041" y1="38.9209" x2="125.681" y2="73.1798" gradientUnits="userSpaceOnUse">
<stop stop-color="#9B6220"/>
<stop offset="0.192458" stop-color="#9B6220"/>
<stop offset="0.402404" stop-color="#F9D190"/>
<stop offset="0.614201" stop-color="#E7BC60"/>
<stop offset="0.807016" stop-color="#9B6220"/>
<stop offset="1" stop-color="#9B6220"/>
</linearGradient>
<linearGradient id="paint15_linear_1681_5599" x1="145.281" y1="50.6278" x2="145.084" y2="69.3991" gradientUnits="userSpaceOnUse">
<stop stop-color="#9B6220"/>
<stop offset="0.192458" stop-color="#9B6220"/>
<stop offset="0.402404" stop-color="#F9D190"/>
<stop offset="0.614201" stop-color="#E7BC60"/>
<stop offset="0.807016" stop-color="#9B6220"/>
<stop offset="1" stop-color="#9B6220"/>
</linearGradient>
<linearGradient id="paint16_linear_1681_5599" x1="107.32" y1="50.6278" x2="107.123" y2="69.3991" gradientUnits="userSpaceOnUse">
<stop stop-color="#9B6220"/>
<stop offset="0.192458" stop-color="#9B6220"/>
<stop offset="0.402404" stop-color="#F9D190"/>
<stop offset="0.614201" stop-color="#E7BC60"/>
<stop offset="0.807016" stop-color="#9B6220"/>
<stop offset="1" stop-color="#9B6220"/>
</linearGradient>
<linearGradient id="paint17_linear_1681_5599" x1="126.071" y1="125.772" x2="125.772" y2="154.213" gradientUnits="userSpaceOnUse">
<stop stop-color="#9B6220"/>
<stop offset="0.192458" stop-color="#9B6220"/>
<stop offset="0.402404" stop-color="#F9D190"/>
<stop offset="0.614201" stop-color="#E7BC60"/>
<stop offset="0.807016" stop-color="#9B6220"/>
<stop offset="1" stop-color="#9B6220"/>
</linearGradient>
<linearGradient id="paint18_linear_1681_5599" x1="145.281" y1="126.17" x2="145.084" y2="144.942" gradientUnits="userSpaceOnUse">
<stop stop-color="#9B6220"/>
<stop offset="0.192458" stop-color="#9B6220"/>
<stop offset="0.402404" stop-color="#F9D190"/>
<stop offset="0.614201" stop-color="#E7BC60"/>
<stop offset="0.807016" stop-color="#9B6220"/>
<stop offset="1" stop-color="#9B6220"/>
</linearGradient>
<linearGradient id="paint19_linear_1681_5599" x1="107.32" y1="126.17" x2="107.123" y2="144.942" gradientUnits="userSpaceOnUse">
<stop stop-color="#9B6220"/>
<stop offset="0.192458" stop-color="#9B6220"/>
<stop offset="0.402404" stop-color="#F9D190"/>
<stop offset="0.614201" stop-color="#E7BC60"/>
<stop offset="0.807016" stop-color="#9B6220"/>
<stop offset="1" stop-color="#9B6220"/>
</linearGradient>
</defs>
</svg>
