<svg width="842" height="124" viewBox="0 0 842 124" fill="none" xmlns="http://www.w3.org/2000/svg">
<path d="M867.827 348.515C880.625 459.794 592.037 610.438 483.304 583.528C242.652 523.971 -2.15315 551.923 -95.1261 385.327C-214.123 172.104 257.491 128.148 505.365 119.588C597.814 116.395 686.428 151.923 755.178 213.813L835.771 286.364C853.675 302.481 865.074 324.583 867.827 348.515Z" stroke="url(#paint0_linear_1681_5535)" stroke-width="1.53911" stroke-miterlimit="10" stroke-linecap="round"/>
<path d="M867.827 348.515C880.625 459.794 592.037 610.438 483.304 583.528C242.652 523.971 -2.15315 551.923 -95.1261 385.327C-214.123 172.104 257.491 128.148 505.365 119.588C597.814 116.395 686.428 151.923 755.178 213.813L835.771 286.364C853.675 302.481 865.074 324.583 867.827 348.515Z" stroke="url(#paint1_linear_1681_5535)" stroke-width="1.53911" stroke-miterlimit="10" stroke-linecap="round"/>
<path d="M874.838 338.713C887.637 449.992 599.049 600.636 490.316 573.726C249.664 514.169 4.8586 542.12 -88.1144 375.524C-207.111 162.299 264.504 118.345 512.377 109.785C604.826 106.593 693.439 142.121 762.19 204.011L842.783 276.562C860.686 292.679 872.086 314.781 874.838 338.713Z" stroke="url(#paint2_linear_1681_5535)" stroke-width="1.42072" stroke-miterlimit="10" stroke-linecap="round"/>
<path d="M874.838 338.713C887.637 449.992 599.049 600.636 490.316 573.726C249.664 514.169 4.8586 542.12 -88.1144 375.524C-207.111 162.299 264.504 118.345 512.377 109.785C604.826 106.593 693.439 142.121 762.19 204.011L842.783 276.562C860.686 292.679 872.086 314.781 874.838 338.713Z" stroke="url(#paint3_linear_1681_5535)" stroke-width="1.42072" stroke-miterlimit="10" stroke-linecap="round"/>
<path d="M881.848 328.911C894.647 440.19 606.059 590.834 497.326 563.924C256.674 504.367 11.8684 532.319 -81.1046 365.722C-200.102 152.499 271.517 108.545 519.39 99.9862C611.837 96.7939 700.448 132.321 769.198 194.209L849.792 266.76C867.696 282.877 879.096 304.979 881.848 328.911Z" stroke="url(#paint4_linear_1681_5535)" stroke-width="1.30233" stroke-miterlimit="10" stroke-linecap="round"/>
<path d="M881.848 328.911C894.647 440.19 606.059 590.834 497.326 563.924C256.674 504.367 11.8684 532.319 -81.1046 365.722C-200.102 152.499 271.517 108.545 519.39 99.9862C611.837 96.7939 700.448 132.321 769.198 194.209L849.792 266.76C867.696 282.877 879.096 304.979 881.848 328.911Z" stroke="url(#paint5_linear_1681_5535)" stroke-width="1.30233" stroke-miterlimit="10" stroke-linecap="round"/>
<path d="M888.858 319.109C901.657 430.388 613.069 581.032 504.336 554.123C263.684 494.565 18.8782 522.517 -74.0949 355.921C-193.092 142.697 278.527 98.7437 526.399 90.1844C618.847 86.9921 707.458 122.519 776.208 184.407L856.802 256.958C874.706 273.075 886.106 295.177 888.858 319.109Z" stroke="url(#paint6_linear_1681_5535)" stroke-width="1.18393" stroke-miterlimit="10" stroke-linecap="round"/>
<path d="M888.858 319.109C901.657 430.388 613.069 581.032 504.336 554.123C263.684 494.565 18.8782 522.517 -74.0949 355.921C-193.092 142.697 278.527 98.7437 526.399 90.1844C618.847 86.9921 707.458 122.519 776.208 184.407L856.802 256.958C874.706 273.075 886.106 295.177 888.858 319.109Z" stroke="url(#paint7_linear_1681_5535)" stroke-width="1.18393" stroke-miterlimit="10" stroke-linecap="round"/>
<path d="M895.868 309.307C908.666 420.586 620.079 571.23 511.346 544.32C270.694 484.763 25.888 512.715 -67.0851 346.118C-186.082 132.895 285.535 88.9415 533.406 80.3822C625.853 77.1899 714.465 112.716 783.215 174.604L863.811 247.156C881.715 263.273 893.115 285.375 895.868 309.307Z" stroke="url(#paint8_linear_1681_5535)" stroke-width="1.06554" stroke-miterlimit="10" stroke-linecap="round"/>
<path d="M895.868 309.307C908.666 420.586 620.079 571.23 511.346 544.32C270.694 484.763 25.888 512.715 -67.0851 346.118C-186.082 132.895 285.535 88.9415 533.406 80.3822C625.853 77.1899 714.465 112.716 783.215 174.604L863.811 247.156C881.715 263.273 893.115 285.375 895.868 309.307Z" stroke="url(#paint9_linear_1681_5535)" stroke-width="1.06554" stroke-miterlimit="10" stroke-linecap="round"/>
<path d="M902.88 299.506C915.678 410.785 627.09 561.429 518.358 534.519C277.706 474.962 32.8997 502.913 -60.0734 336.317C-179.07 123.093 292.546 79.1402 540.418 70.5809C632.865 67.3886 721.477 102.915 790.227 164.803L870.823 237.355C888.727 253.472 900.127 275.574 902.88 299.506Z" stroke="url(#paint10_linear_1681_5535)" stroke-width="0.947147" stroke-miterlimit="10" stroke-linecap="round"/>
<path d="M902.88 299.506C915.678 410.785 627.09 561.429 518.358 534.519C277.706 474.962 32.8997 502.913 -60.0734 336.317C-179.07 123.093 292.546 79.1402 540.418 70.5809C632.865 67.3886 721.477 102.915 790.227 164.803L870.823 237.355C888.727 253.472 900.127 275.574 902.88 299.506Z" stroke="url(#paint11_linear_1681_5535)" stroke-width="0.947147" stroke-miterlimit="10" stroke-linecap="round"/>
<path d="M909.887 289.704C922.686 400.983 634.098 551.626 525.365 524.717C284.713 465.16 39.9075 493.111 -53.0656 326.515C-172.062 113.292 299.55 69.3367 547.423 60.7763C639.872 57.5835 728.485 93.111 797.236 155.001L877.831 227.552C895.735 243.67 907.135 265.772 909.887 289.704Z" stroke="url(#paint12_linear_1681_5535)" stroke-width="0.828753" stroke-miterlimit="10" stroke-linecap="round"/>
<path d="M909.887 289.704C922.686 400.983 634.098 551.626 525.365 524.717C284.713 465.16 39.9075 493.111 -53.0656 326.515C-172.062 113.292 299.55 69.3367 547.423 60.7763C639.872 57.5835 728.485 93.111 797.236 155.001L877.831 227.552C895.735 243.67 907.135 265.772 909.887 289.704Z" stroke="url(#paint13_linear_1681_5535)" stroke-width="0.828753" stroke-miterlimit="10" stroke-linecap="round"/>
<path d="M916.899 279.902C929.698 391.181 641.109 541.825 532.377 514.915C291.725 455.358 46.9191 483.309 -46.0539 316.713C-165.051 103.488 306.564 59.5338 554.438 50.9741C646.887 47.7816 735.5 83.3096 804.25 145.2L884.843 217.751C902.747 233.868 914.147 255.97 916.899 279.902Z" stroke="url(#paint14_linear_1681_5535)" stroke-width="0.71036" stroke-miterlimit="10" stroke-linecap="round"/>
<path d="M916.899 279.902C929.698 391.181 641.109 541.825 532.377 514.915C291.725 455.358 46.9191 483.309 -46.0539 316.713C-165.051 103.488 306.564 59.5338 554.438 50.9741C646.887 47.7816 735.5 83.3096 804.25 145.2L884.843 217.751C902.747 233.868 914.147 255.97 916.899 279.902Z" stroke="url(#paint15_linear_1681_5535)" stroke-width="0.71036" stroke-miterlimit="10" stroke-linecap="round"/>
<path d="M923.909 270.1C936.707 381.379 648.119 532.023 539.387 505.113C298.735 445.556 53.9289 473.508 -39.0441 306.911C-158.041 93.6876 313.577 49.7344 561.45 41.1752C653.897 37.9829 742.509 73.5097 811.259 135.398L891.853 207.949C909.756 224.066 921.156 246.168 923.909 270.1Z" stroke="url(#paint16_linear_1681_5535)" stroke-width="0.591967" stroke-miterlimit="10" stroke-linecap="round"/>
<path d="M923.909 270.1C936.707 381.379 648.119 532.023 539.387 505.113C298.735 445.556 53.9289 473.508 -39.0441 306.911C-158.041 93.6876 313.577 49.7344 561.45 41.1752C653.897 37.9829 742.509 73.5097 811.259 135.398L891.853 207.949C909.756 224.066 921.156 246.168 923.909 270.1Z" stroke="url(#paint17_linear_1681_5535)" stroke-width="0.591967" stroke-miterlimit="10" stroke-linecap="round"/>
<path d="M930.921 260.298C943.719 371.577 655.131 522.221 546.399 495.311C305.746 435.754 60.9407 463.706 -32.0324 297.11C-151.029 83.8858 320.589 39.9327 568.462 31.3734C660.909 28.1811 749.521 63.708 818.27 125.596L898.864 198.147C916.768 214.264 928.168 236.366 930.921 260.298Z" stroke="url(#paint18_linear_1681_5535)" stroke-width="0.473573" stroke-miterlimit="10" stroke-linecap="round"/>
<path d="M930.921 260.298C943.719 371.577 655.131 522.221 546.399 495.311C305.746 435.754 60.9407 463.706 -32.0324 297.11C-151.029 83.8858 320.589 39.9327 568.462 31.3734C660.909 28.1811 749.521 63.708 818.27 125.596L898.864 198.147C916.768 214.264 928.168 236.366 930.921 260.298Z" stroke="url(#paint19_linear_1681_5535)" stroke-width="0.473573" stroke-miterlimit="10" stroke-linecap="round"/>
<path d="M937.928 250.496C950.727 361.776 662.139 512.419 553.407 485.51C312.754 425.952 67.9485 453.904 -25.0246 287.308C-144.022 74.0841 327.597 30.1309 575.47 21.5716C667.917 18.3793 756.529 53.9062 825.278 115.795L905.872 188.345C923.776 204.462 935.176 226.565 937.928 250.496Z" stroke="url(#paint20_linear_1681_5535)" stroke-width="0.35518" stroke-miterlimit="10" stroke-linecap="round"/>
<path d="M937.928 250.496C950.727 361.776 662.139 512.419 553.407 485.51C312.754 425.952 67.9485 453.904 -25.0246 287.308C-144.022 74.0841 327.597 30.1309 575.47 21.5716C667.917 18.3793 756.529 53.9062 825.278 115.795L905.872 188.345C923.776 204.462 935.176 226.565 937.928 250.496Z" stroke="url(#paint21_linear_1681_5535)" stroke-width="0.35518" stroke-miterlimit="10" stroke-linecap="round"/>
<path d="M944.938 240.694C957.737 351.973 669.149 502.616 560.416 475.707C319.764 416.15 74.9582 444.101 -18.0148 277.505C-137.012 64.2813 334.607 20.3282 582.48 11.7689C674.927 8.57662 763.538 44.1035 832.288 105.992L912.882 178.543C930.786 194.66 942.186 216.762 944.938 240.694Z" stroke="url(#paint22_linear_1681_5535)" stroke-width="0.236787" stroke-miterlimit="10" stroke-linecap="round"/>
<path d="M944.938 240.694C957.737 351.973 669.149 502.616 560.416 475.707C319.764 416.15 74.9582 444.101 -18.0148 277.505C-137.012 64.2813 334.607 20.3282 582.48 11.7689C674.927 8.57662 763.538 44.1035 832.288 105.992L912.882 178.543C930.786 194.66 942.186 216.762 944.938 240.694Z" stroke="url(#paint23_linear_1681_5535)" stroke-width="0.236787" stroke-miterlimit="10" stroke-linecap="round"/>
<path d="M951.95 230.892C964.748 342.171 676.16 492.815 567.428 465.905C326.776 406.348 81.97 434.3 -11.0031 267.704C-130 54.4807 341.613 10.5252 589.485 1.96474C681.934 -1.22806 770.548 34.2994 839.298 96.189L919.894 168.741C937.798 184.858 949.197 206.96 951.95 230.892Z" stroke="url(#paint24_linear_1681_5535)" stroke-width="0.118393" stroke-miterlimit="10" stroke-linecap="round"/>
<path d="M951.95 230.892C964.748 342.171 676.16 492.815 567.428 465.905C326.776 406.348 81.97 434.3 -11.0031 267.704C-130 54.4807 341.613 10.5252 589.485 1.96474C681.934 -1.22806 770.548 34.2994 839.298 96.189L919.894 168.741C937.798 184.858 949.197 206.96 951.95 230.892Z" stroke="url(#paint25_linear_1681_5535)" stroke-width="0.118393" stroke-miterlimit="10" stroke-linecap="round"/>
<defs>
<linearGradient id="paint0_linear_1681_5535" x1="614.661" y1="3435.14" x2="382.217" y2="2779.29" gradientUnits="userSpaceOnUse">
<stop stop-color="#9B6220"/>
<stop offset="0.192458" stop-color="#9B6220"/>
<stop offset="0.402404" stop-color="#F9D190"/>
<stop offset="0.614201" stop-color="#E7BC60"/>
<stop offset="0.807016" stop-color="#9B6220"/>
<stop offset="1" stop-color="#9B6220"/>
</linearGradient>
<linearGradient id="paint1_linear_1681_5535" x1="411.521" y1="923.766" x2="411.521" y2="105.937" gradientUnits="userSpaceOnUse">
<stop stop-color="#FFC74A"/>
<stop offset="0.431274" stop-color="#B97800"/>
<stop offset="0.459893" stop-color="#FFC74A"/>
<stop offset="0.528254" stop-color="#EBB43E"/>
<stop offset="0.540201" stop-color="#EBB43E"/>
<stop offset="0.693186" stop-color="#865600"/>
<stop offset="0.795009" stop-color="#865600"/>
<stop offset="0.833533" stop-color="#865600"/>
<stop offset="1" stop-color="#FFC74A"/>
</linearGradient>
<linearGradient id="paint2_linear_1681_5535" x1="621.672" y1="3425.34" x2="389.229" y2="2769.49" gradientUnits="userSpaceOnUse">
<stop stop-color="#9B6220"/>
<stop offset="0.192458" stop-color="#9B6220"/>
<stop offset="0.402404" stop-color="#F9D190"/>
<stop offset="0.614201" stop-color="#E7BC60"/>
<stop offset="0.807016" stop-color="#9B6220"/>
<stop offset="1" stop-color="#9B6220"/>
</linearGradient>
<linearGradient id="paint3_linear_1681_5535" x1="418.533" y1="913.964" x2="418.533" y2="96.1349" gradientUnits="userSpaceOnUse">
<stop stop-color="#FFC74A"/>
<stop offset="0.431274" stop-color="#B97800"/>
<stop offset="0.459893" stop-color="#FFC74A"/>
<stop offset="0.528254" stop-color="#EBB43E"/>
<stop offset="0.540201" stop-color="#EBB43E"/>
<stop offset="0.693186" stop-color="#865600"/>
<stop offset="0.795009" stop-color="#865600"/>
<stop offset="0.833533" stop-color="#865600"/>
<stop offset="1" stop-color="#FFC74A"/>
</linearGradient>
<linearGradient id="paint4_linear_1681_5535" x1="628.682" y1="3415.53" x2="396.24" y2="2759.68" gradientUnits="userSpaceOnUse">
<stop stop-color="#9B6220"/>
<stop offset="0.192458" stop-color="#9B6220"/>
<stop offset="0.402404" stop-color="#F9D190"/>
<stop offset="0.614201" stop-color="#E7BC60"/>
<stop offset="0.807016" stop-color="#9B6220"/>
<stop offset="1" stop-color="#9B6220"/>
</linearGradient>
<linearGradient id="paint5_linear_1681_5535" x1="425.543" y1="904.162" x2="425.543" y2="86.3361" gradientUnits="userSpaceOnUse">
<stop stop-color="#FFC74A"/>
<stop offset="0.431274" stop-color="#B97800"/>
<stop offset="0.459893" stop-color="#FFC74A"/>
<stop offset="0.528254" stop-color="#EBB43E"/>
<stop offset="0.540201" stop-color="#EBB43E"/>
<stop offset="0.693186" stop-color="#865600"/>
<stop offset="0.795009" stop-color="#865600"/>
<stop offset="0.833533" stop-color="#865600"/>
<stop offset="1" stop-color="#FFC74A"/>
</linearGradient>
<linearGradient id="paint6_linear_1681_5535" x1="635.692" y1="3405.73" x2="403.25" y2="2749.88" gradientUnits="userSpaceOnUse">
<stop stop-color="#9B6220"/>
<stop offset="0.192458" stop-color="#9B6220"/>
<stop offset="0.402404" stop-color="#F9D190"/>
<stop offset="0.614201" stop-color="#E7BC60"/>
<stop offset="0.807016" stop-color="#9B6220"/>
<stop offset="1" stop-color="#9B6220"/>
</linearGradient>
<linearGradient id="paint7_linear_1681_5535" x1="432.552" y1="894.36" x2="432.552" y2="76.5343" gradientUnits="userSpaceOnUse">
<stop stop-color="#FFC74A"/>
<stop offset="0.431274" stop-color="#B97800"/>
<stop offset="0.459893" stop-color="#FFC74A"/>
<stop offset="0.528254" stop-color="#EBB43E"/>
<stop offset="0.540201" stop-color="#EBB43E"/>
<stop offset="0.693186" stop-color="#865600"/>
<stop offset="0.795009" stop-color="#865600"/>
<stop offset="0.833533" stop-color="#865600"/>
<stop offset="1" stop-color="#FFC74A"/>
</linearGradient>
<linearGradient id="paint8_linear_1681_5535" x1="642.702" y1="3395.93" x2="410.26" y2="2740.08" gradientUnits="userSpaceOnUse">
<stop stop-color="#9B6220"/>
<stop offset="0.192458" stop-color="#9B6220"/>
<stop offset="0.402404" stop-color="#F9D190"/>
<stop offset="0.614201" stop-color="#E7BC60"/>
<stop offset="0.807016" stop-color="#9B6220"/>
<stop offset="1" stop-color="#9B6220"/>
</linearGradient>
<linearGradient id="paint9_linear_1681_5535" x1="439.562" y1="884.558" x2="439.562" y2="66.7321" gradientUnits="userSpaceOnUse">
<stop stop-color="#FFC74A"/>
<stop offset="0.431274" stop-color="#B97800"/>
<stop offset="0.459893" stop-color="#FFC74A"/>
<stop offset="0.528254" stop-color="#EBB43E"/>
<stop offset="0.540201" stop-color="#EBB43E"/>
<stop offset="0.693186" stop-color="#865600"/>
<stop offset="0.795009" stop-color="#865600"/>
<stop offset="0.833533" stop-color="#865600"/>
<stop offset="1" stop-color="#FFC74A"/>
</linearGradient>
<linearGradient id="paint10_linear_1681_5535" x1="649.713" y1="3386.13" x2="417.271" y2="2730.28" gradientUnits="userSpaceOnUse">
<stop stop-color="#9B6220"/>
<stop offset="0.192458" stop-color="#9B6220"/>
<stop offset="0.402404" stop-color="#F9D190"/>
<stop offset="0.614201" stop-color="#E7BC60"/>
<stop offset="0.807016" stop-color="#9B6220"/>
<stop offset="1" stop-color="#9B6220"/>
</linearGradient>
<linearGradient id="paint11_linear_1681_5535" x1="446.574" y1="874.757" x2="446.574" y2="56.9308" gradientUnits="userSpaceOnUse">
<stop stop-color="#FFC74A"/>
<stop offset="0.431274" stop-color="#B97800"/>
<stop offset="0.459893" stop-color="#FFC74A"/>
<stop offset="0.528254" stop-color="#EBB43E"/>
<stop offset="0.540201" stop-color="#EBB43E"/>
<stop offset="0.693186" stop-color="#865600"/>
<stop offset="0.795009" stop-color="#865600"/>
<stop offset="0.833533" stop-color="#865600"/>
<stop offset="1" stop-color="#FFC74A"/>
</linearGradient>
<linearGradient id="paint12_linear_1681_5535" x1="656.721" y1="3376.33" x2="424.278" y2="2720.48" gradientUnits="userSpaceOnUse">
<stop stop-color="#9B6220"/>
<stop offset="0.192458" stop-color="#9B6220"/>
<stop offset="0.402404" stop-color="#F9D190"/>
<stop offset="0.614201" stop-color="#E7BC60"/>
<stop offset="0.807016" stop-color="#9B6220"/>
<stop offset="1" stop-color="#9B6220"/>
</linearGradient>
<linearGradient id="paint13_linear_1681_5535" x1="453.582" y1="864.954" x2="453.582" y2="47.1256" gradientUnits="userSpaceOnUse">
<stop stop-color="#FFC74A"/>
<stop offset="0.431274" stop-color="#B97800"/>
<stop offset="0.459893" stop-color="#FFC74A"/>
<stop offset="0.528254" stop-color="#EBB43E"/>
<stop offset="0.540201" stop-color="#EBB43E"/>
<stop offset="0.693186" stop-color="#865600"/>
<stop offset="0.795009" stop-color="#865600"/>
<stop offset="0.833533" stop-color="#865600"/>
<stop offset="1" stop-color="#FFC74A"/>
</linearGradient>
<linearGradient id="paint14_linear_1681_5535" x1="663.733" y1="3366.53" x2="431.289" y2="2710.68" gradientUnits="userSpaceOnUse">
<stop stop-color="#9B6220"/>
<stop offset="0.192458" stop-color="#9B6220"/>
<stop offset="0.402404" stop-color="#F9D190"/>
<stop offset="0.614201" stop-color="#E7BC60"/>
<stop offset="0.807016" stop-color="#9B6220"/>
<stop offset="1" stop-color="#9B6220"/>
</linearGradient>
<linearGradient id="paint15_linear_1681_5535" x1="460.593" y1="855.153" x2="460.593" y2="37.3238" gradientUnits="userSpaceOnUse">
<stop stop-color="#FFC74A"/>
<stop offset="0.431274" stop-color="#B97800"/>
<stop offset="0.459893" stop-color="#FFC74A"/>
<stop offset="0.528254" stop-color="#EBB43E"/>
<stop offset="0.540201" stop-color="#EBB43E"/>
<stop offset="0.693186" stop-color="#865600"/>
<stop offset="0.795009" stop-color="#865600"/>
<stop offset="0.833533" stop-color="#865600"/>
<stop offset="1" stop-color="#FFC74A"/>
</linearGradient>
<linearGradient id="paint16_linear_1681_5535" x1="670.743" y1="3356.72" x2="438.301" y2="2700.87" gradientUnits="userSpaceOnUse">
<stop stop-color="#9B6220"/>
<stop offset="0.192458" stop-color="#9B6220"/>
<stop offset="0.402404" stop-color="#F9D190"/>
<stop offset="0.614201" stop-color="#E7BC60"/>
<stop offset="0.807016" stop-color="#9B6220"/>
<stop offset="1" stop-color="#9B6220"/>
</linearGradient>
<linearGradient id="paint17_linear_1681_5535" x1="467.603" y1="845.351" x2="467.603" y2="27.5251" gradientUnits="userSpaceOnUse">
<stop stop-color="#FFC74A"/>
<stop offset="0.431274" stop-color="#B97800"/>
<stop offset="0.459893" stop-color="#FFC74A"/>
<stop offset="0.528254" stop-color="#EBB43E"/>
<stop offset="0.540201" stop-color="#EBB43E"/>
<stop offset="0.693186" stop-color="#865600"/>
<stop offset="0.795009" stop-color="#865600"/>
<stop offset="0.833533" stop-color="#865600"/>
<stop offset="1" stop-color="#FFC74A"/>
</linearGradient>
<linearGradient id="paint18_linear_1681_5535" x1="677.754" y1="3346.92" x2="445.312" y2="2691.07" gradientUnits="userSpaceOnUse">
<stop stop-color="#9B6220"/>
<stop offset="0.192458" stop-color="#9B6220"/>
<stop offset="0.402404" stop-color="#F9D190"/>
<stop offset="0.614201" stop-color="#E7BC60"/>
<stop offset="0.807016" stop-color="#9B6220"/>
<stop offset="1" stop-color="#9B6220"/>
</linearGradient>
<linearGradient id="paint19_linear_1681_5535" x1="474.615" y1="835.549" x2="474.615" y2="17.7233" gradientUnits="userSpaceOnUse">
<stop stop-color="#FFC74A"/>
<stop offset="0.431274" stop-color="#B97800"/>
<stop offset="0.459893" stop-color="#FFC74A"/>
<stop offset="0.528254" stop-color="#EBB43E"/>
<stop offset="0.540201" stop-color="#EBB43E"/>
<stop offset="0.693186" stop-color="#865600"/>
<stop offset="0.795009" stop-color="#865600"/>
<stop offset="0.833533" stop-color="#865600"/>
<stop offset="1" stop-color="#FFC74A"/>
</linearGradient>
<linearGradient id="paint20_linear_1681_5535" x1="684.762" y1="3337.12" x2="452.32" y2="2681.27" gradientUnits="userSpaceOnUse">
<stop stop-color="#9B6220"/>
<stop offset="0.192458" stop-color="#9B6220"/>
<stop offset="0.402404" stop-color="#F9D190"/>
<stop offset="0.614201" stop-color="#E7BC60"/>
<stop offset="0.807016" stop-color="#9B6220"/>
<stop offset="1" stop-color="#9B6220"/>
</linearGradient>
<linearGradient id="paint21_linear_1681_5535" x1="481.623" y1="825.747" x2="481.623" y2="7.92154" gradientUnits="userSpaceOnUse">
<stop stop-color="#FFC74A"/>
<stop offset="0.431274" stop-color="#B97800"/>
<stop offset="0.459893" stop-color="#FFC74A"/>
<stop offset="0.528254" stop-color="#EBB43E"/>
<stop offset="0.540201" stop-color="#EBB43E"/>
<stop offset="0.693186" stop-color="#865600"/>
<stop offset="0.795009" stop-color="#865600"/>
<stop offset="0.833533" stop-color="#865600"/>
<stop offset="1" stop-color="#FFC74A"/>
</linearGradient>
<linearGradient id="paint22_linear_1681_5535" x1="691.772" y1="3327.31" x2="459.33" y2="2671.47" gradientUnits="userSpaceOnUse">
<stop stop-color="#9B6220"/>
<stop offset="0.192458" stop-color="#9B6220"/>
<stop offset="0.402404" stop-color="#F9D190"/>
<stop offset="0.614201" stop-color="#E7BC60"/>
<stop offset="0.807016" stop-color="#9B6220"/>
<stop offset="1" stop-color="#9B6220"/>
</linearGradient>
<linearGradient id="paint23_linear_1681_5535" x1="488.632" y1="815.945" x2="488.633" y2="-1.88119" gradientUnits="userSpaceOnUse">
<stop stop-color="#FFC74A"/>
<stop offset="0.431274" stop-color="#B97800"/>
<stop offset="0.459893" stop-color="#FFC74A"/>
<stop offset="0.528254" stop-color="#EBB43E"/>
<stop offset="0.540201" stop-color="#EBB43E"/>
<stop offset="0.693186" stop-color="#865600"/>
<stop offset="0.795009" stop-color="#865600"/>
<stop offset="0.833533" stop-color="#865600"/>
<stop offset="1" stop-color="#FFC74A"/>
</linearGradient>
<linearGradient id="paint24_linear_1681_5535" x1="698.784" y1="3317.52" x2="466.34" y2="2661.67" gradientUnits="userSpaceOnUse">
<stop stop-color="#9B6220"/>
<stop offset="0.192458" stop-color="#9B6220"/>
<stop offset="0.402404" stop-color="#F9D190"/>
<stop offset="0.614201" stop-color="#E7BC60"/>
<stop offset="0.807016" stop-color="#9B6220"/>
<stop offset="1" stop-color="#9B6220"/>
</linearGradient>
<linearGradient id="paint25_linear_1681_5535" x1="495.644" y1="806.143" x2="495.644" y2="-11.6859" gradientUnits="userSpaceOnUse">
<stop stop-color="#FFC74A"/>
<stop offset="0.431274" stop-color="#B97800"/>
<stop offset="0.459893" stop-color="#FFC74A"/>
<stop offset="0.528254" stop-color="#EBB43E"/>
<stop offset="0.540201" stop-color="#EBB43E"/>
<stop offset="0.693186" stop-color="#865600"/>
<stop offset="0.795009" stop-color="#865600"/>
<stop offset="0.833533" stop-color="#865600"/>
<stop offset="1" stop-color="#FFC74A"/>
</linearGradient>
</defs>
</svg>
