<svg width="662" height="144" viewBox="0 0 662 144" fill="none" xmlns="http://www.w3.org/2000/svg">
<path d="M-20.1646 -122.789C-45.4438 -191.29 117.044 -331.028 190.175 -330.258C348.727 -328.589 495.693 -379.843 579.479 -287.732C687.526 -168.952 401.071 -72.2423 245.975 -30.2273C186.954 -14.2385 124.275 -24.1936 70.5138 -54.2463L9.1753 -88.5344C-4.39304 -96.1191 -14.811 -108.282 -20.1646 -122.789Z" stroke="url(#paint0_linear_1681_5582)" stroke-width="1.89225" stroke-miterlimit="10" stroke-linecap="round"/>
<path d="M-20.1646 -122.789C-45.4438 -191.29 117.044 -331.028 190.175 -330.258C348.727 -328.589 495.693 -379.843 579.479 -287.732C687.526 -168.952 401.071 -72.2423 245.975 -30.2273C186.954 -14.2385 124.275 -24.1936 70.5138 -54.2463L9.1753 -88.5344C-4.39304 -96.1191 -14.811 -108.282 -20.1646 -122.789Z" stroke="url(#paint1_linear_1681_5582)" stroke-width="1.89225" stroke-miterlimit="10" stroke-linecap="round"/>
<path d="M-23.1236 -115.511C-48.4028 -184.011 114.085 -323.749 187.216 -322.979C345.768 -321.31 492.734 -372.564 576.52 -280.453C684.567 -161.673 398.112 -64.9635 243.016 -22.9485C183.995 -6.95972 121.316 -16.9148 67.5548 -46.9674L6.21632 -81.2556C-7.35202 -88.8403 -17.77 -101.003 -23.1236 -115.511Z" stroke="url(#paint2_linear_1681_5582)" stroke-width="1.7759" stroke-miterlimit="10" stroke-linecap="round"/>
<path d="M-23.1236 -115.511C-48.4028 -184.011 114.085 -323.749 187.216 -322.979C345.768 -321.31 492.734 -372.564 576.52 -280.453C684.567 -161.673 398.112 -64.9635 243.016 -22.9485C183.995 -6.95972 121.316 -16.9148 67.5548 -46.9674L6.21632 -81.2556C-7.35202 -88.8403 -17.77 -101.003 -23.1236 -115.511Z" stroke="url(#paint3_linear_1681_5582)" stroke-width="1.7759" stroke-miterlimit="10" stroke-linecap="round"/>
<path d="M-26.0806 -108.232C-51.3597 -176.732 111.128 -316.471 184.259 -315.701C342.812 -314.032 489.777 -365.286 573.563 -273.175C681.61 -154.395 395.154 -57.6849 240.058 -15.6698C181.036 0.319013 118.357 -9.63634 64.5959 -39.6894L3.25899 -73.9773C-10.3092 -81.562 -20.727 -93.725 -26.0806 -108.232Z" stroke="url(#paint4_linear_1681_5582)" stroke-width="1.65751" stroke-miterlimit="10" stroke-linecap="round"/>
<path d="M-26.0806 -108.232C-51.3597 -176.732 111.128 -316.471 184.259 -315.701C342.812 -314.032 489.777 -365.286 573.563 -273.175C681.61 -154.395 395.154 -57.6849 240.058 -15.6698C181.036 0.319013 118.357 -9.63634 64.5959 -39.6894L3.25899 -73.9773C-10.3092 -81.562 -20.727 -93.725 -26.0806 -108.232Z" stroke="url(#paint5_linear_1681_5582)" stroke-width="1.65751" stroke-miterlimit="10" stroke-linecap="round"/>
<path d="M-29.038 -100.953C-54.3172 -169.453 108.171 -309.192 181.302 -308.422C339.854 -306.754 486.82 -358.007 570.606 -265.896C678.652 -147.116 392.199 -50.4059 237.103 -8.38984C178.08 7.59957 115.4 -2.35614 61.6373 -32.4103L0.301114 -66.6985C-13.2668 -74.2832 -23.6845 -86.4462 -29.038 -100.953Z" stroke="url(#paint6_linear_1681_5582)" stroke-width="1.53911" stroke-miterlimit="10" stroke-linecap="round"/>
<path d="M-29.038 -100.953C-54.3172 -169.453 108.171 -309.192 181.302 -308.422C339.854 -306.754 486.82 -358.007 570.606 -265.896C678.652 -147.116 392.199 -50.4059 237.103 -8.38984C178.08 7.59957 115.4 -2.35614 61.6373 -32.4103L0.301114 -66.6985C-13.2668 -74.2832 -23.6845 -86.4462 -29.038 -100.953Z" stroke="url(#paint7_linear_1681_5582)" stroke-width="1.53911" stroke-miterlimit="10" stroke-linecap="round"/>
<path d="M-31.995 -93.6742C-57.2742 -162.175 105.214 -301.913 178.345 -301.144C336.897 -299.475 483.863 -350.728 567.649 -258.617C675.695 -139.836 389.242 -43.1263 234.146 -1.11074C175.123 14.8784 112.443 4.92264 58.6805 -25.1315L-2.65593 -59.4197C-16.2239 -67.0045 -26.6415 -79.1674 -31.995 -93.6742Z" stroke="url(#paint8_linear_1681_5582)" stroke-width="1.42072" stroke-miterlimit="10" stroke-linecap="round"/>
<path d="M-31.995 -93.6742C-57.2742 -162.175 105.214 -301.913 178.345 -301.144C336.897 -299.475 483.863 -350.728 567.649 -258.617C675.695 -139.836 389.242 -43.1263 234.146 -1.11074C175.123 14.8784 112.443 4.92264 58.6805 -25.1315L-2.65593 -59.4197C-16.2239 -67.0045 -26.6415 -79.1674 -31.995 -93.6742Z" stroke="url(#paint9_linear_1681_5582)" stroke-width="1.42072" stroke-miterlimit="10" stroke-linecap="round"/>
<path d="M-34.9536 -86.3956C-60.2328 -154.896 102.255 -294.634 175.386 -293.865C333.939 -292.196 480.904 -343.449 564.69 -251.338C672.736 -132.558 386.281 -35.8485 231.185 6.16666C172.163 22.1554 109.484 12.2001 55.7228 -17.853L-5.61406 -52.1408C-19.1822 -59.7256 -29.6 -71.8886 -34.9536 -86.3956Z" stroke="url(#paint10_linear_1681_5582)" stroke-width="1.30233" stroke-miterlimit="10" stroke-linecap="round"/>
<path d="M-34.9536 -86.3956C-60.2328 -154.896 102.255 -294.634 175.386 -293.865C333.939 -292.196 480.904 -343.449 564.69 -251.338C672.736 -132.558 386.281 -35.8485 231.185 6.16666C172.163 22.1554 109.484 12.2001 55.7228 -17.853L-5.61406 -52.1408C-19.1822 -59.7256 -29.6 -71.8886 -34.9536 -86.3956Z" stroke="url(#paint11_linear_1681_5582)" stroke-width="1.30233" stroke-miterlimit="10" stroke-linecap="round"/>
<path d="M-37.9126 -79.1168C-63.1918 -147.617 99.296 -287.355 172.427 -286.586C330.98 -284.917 477.945 -336.17 561.731 -244.06C669.777 -125.279 383.322 -28.5697 228.226 13.4455C169.204 29.4342 106.525 19.4789 52.7638 -10.5742L-8.57304 -44.862C-22.1412 -52.4467 -32.559 -64.6098 -37.9126 -79.1168Z" stroke="url(#paint12_linear_1681_5582)" stroke-width="1.18393" stroke-miterlimit="10" stroke-linecap="round"/>
<path d="M-37.9126 -79.1168C-63.1918 -147.617 99.296 -287.355 172.427 -286.586C330.98 -284.917 477.945 -336.17 561.731 -244.06C669.777 -125.279 383.322 -28.5697 228.226 13.4455C169.204 29.4342 106.525 19.4789 52.7638 -10.5742L-8.57304 -44.862C-22.1412 -52.4467 -32.559 -64.6098 -37.9126 -79.1168Z" stroke="url(#paint13_linear_1681_5582)" stroke-width="1.18393" stroke-miterlimit="10" stroke-linecap="round"/>
<path d="M-40.8697 -71.8387C-66.1489 -140.339 96.3388 -280.077 169.47 -279.307C328.022 -277.639 474.988 -328.892 558.774 -236.781C666.82 -118.001 380.366 -21.2916 225.27 20.7234C166.249 36.7122 103.57 26.7571 49.8087 -3.29557L-11.5298 -37.5837C-25.0981 -45.1684 -35.5161 -57.3316 -40.8697 -71.8387Z" stroke="url(#paint14_linear_1681_5582)" stroke-width="1.06554" stroke-miterlimit="10" stroke-linecap="round"/>
<path d="M-40.8697 -71.8387C-66.1489 -140.339 96.3388 -280.077 169.47 -279.307C328.022 -277.639 474.988 -328.892 558.774 -236.781C666.82 -118.001 380.366 -21.2916 225.27 20.7234C166.249 36.7122 103.57 26.7571 49.8087 -3.29557L-11.5298 -37.5837C-25.0981 -45.1684 -35.5161 -57.3316 -40.8697 -71.8387Z" stroke="url(#paint15_linear_1681_5582)" stroke-width="1.06554" stroke-miterlimit="10" stroke-linecap="round"/>
<path d="M-43.8267 -64.5599C-69.1059 -133.06 93.3818 -272.798 166.513 -272.029C325.065 -270.36 472.031 -321.613 555.817 -229.502C663.863 -110.722 377.409 -14.0128 222.313 28.0022C163.292 43.991 100.613 34.0359 46.8517 3.98324L-14.4868 -30.3049C-28.0551 -37.8896 -38.4731 -50.0528 -43.8267 -64.5599Z" stroke="url(#paint16_linear_1681_5582)" stroke-width="0.947147" stroke-miterlimit="10" stroke-linecap="round"/>
<path d="M-43.8267 -64.5599C-69.1059 -133.06 93.3818 -272.798 166.513 -272.029C325.065 -270.36 472.031 -321.613 555.817 -229.502C663.863 -110.722 377.409 -14.0128 222.313 28.0022C163.292 43.991 100.613 34.0359 46.8517 3.98324L-14.4868 -30.3049C-28.0551 -37.8896 -38.4731 -50.0528 -43.8267 -64.5599Z" stroke="url(#paint17_linear_1681_5582)" stroke-width="0.947147" stroke-miterlimit="10" stroke-linecap="round"/>
<path d="M-46.7842 -57.2808C-72.0633 -125.781 90.4245 -265.52 163.555 -264.75C322.108 -263.081 469.074 -314.334 552.86 -222.224C660.905 -103.444 374.454 -6.73376 219.358 35.2821C160.336 51.2715 97.6555 41.316 43.8931 11.2623L-17.4447 -23.0261C-31.0128 -30.6108 -41.4306 -42.7739 -46.7842 -57.2808Z" stroke="url(#paint18_linear_1681_5582)" stroke-width="0.828753" stroke-miterlimit="10" stroke-linecap="round"/>
<path d="M-46.7842 -57.2808C-72.0633 -125.781 90.4245 -265.52 163.555 -264.75C322.108 -263.081 469.074 -314.334 552.86 -222.224C660.905 -103.444 374.454 -6.73376 219.358 35.2821C160.336 51.2715 97.6555 41.316 43.8931 11.2623L-17.4447 -23.0261C-31.0128 -30.6108 -41.4306 -42.7739 -46.7842 -57.2808Z" stroke="url(#paint19_linear_1681_5582)" stroke-width="0.828753" stroke-miterlimit="10" stroke-linecap="round"/>
<path d="M-49.7411 -50.0023C-75.0203 -118.503 87.4676 -258.241 160.598 -257.472C319.151 -255.803 466.117 -307.056 549.902 -214.945C657.949 -96.1641 371.496 0.545623 216.4 42.5611C157.377 58.5503 94.6966 48.5945 40.9344 18.5404L-20.402 -15.7478C-33.97 -23.3326 -44.3876 -35.4956 -49.7411 -50.0023Z" stroke="url(#paint20_linear_1681_5582)" stroke-width="0.71036" stroke-miterlimit="10" stroke-linecap="round"/>
<path d="M-49.7411 -50.0023C-75.0203 -118.503 87.4676 -258.241 160.598 -257.472C319.151 -255.803 466.117 -307.056 549.902 -214.945C657.949 -96.1641 371.496 0.545623 216.4 42.5611C157.377 58.5503 94.6966 48.5945 40.9344 18.5404L-20.402 -15.7478C-33.97 -23.3326 -44.3876 -35.4956 -49.7411 -50.0023Z" stroke="url(#paint21_linear_1681_5582)" stroke-width="0.71036" stroke-miterlimit="10" stroke-linecap="round"/>
<path d="M-52.6997 -42.7237C-77.9789 -111.224 84.5089 -250.962 157.64 -250.193C316.192 -248.524 463.158 -299.777 546.944 -207.666C654.99 -88.8862 368.534 7.8234 213.439 49.8385C154.417 65.8273 91.7381 55.872 37.9767 25.8189L-23.3602 -8.46896C-36.9283 -16.0537 -47.3461 -28.2167 -52.6997 -42.7237Z" stroke="url(#paint22_linear_1681_5582)" stroke-width="0.591967" stroke-miterlimit="10" stroke-linecap="round"/>
<path d="M-52.6997 -42.7237C-77.9789 -111.224 84.5089 -250.962 157.64 -250.193C316.192 -248.524 463.158 -299.777 546.944 -207.666C654.99 -88.8862 368.534 7.8234 213.439 49.8385C154.417 65.8273 91.7381 55.872 37.9767 25.8189L-23.3602 -8.46896C-36.9283 -16.0537 -47.3461 -28.2167 -52.6997 -42.7237Z" stroke="url(#paint23_linear_1681_5582)" stroke-width="0.591967" stroke-miterlimit="10" stroke-linecap="round"/>
<path d="M-55.6567 -35.4449C-80.9359 -103.945 81.5519 -243.684 154.683 -242.914C313.235 -241.245 460.201 -292.499 543.987 -200.388C652.033 -81.6075 365.577 15.1022 210.482 57.1173C151.46 73.1061 88.7811 63.1508 35.0197 33.0977L-26.3172 -1.19016C-39.8853 -8.77487 -50.3031 -20.9379 -55.6567 -35.4449Z" stroke="url(#paint24_linear_1681_5582)" stroke-width="0.473573" stroke-miterlimit="10" stroke-linecap="round"/>
<path d="M-55.6567 -35.4449C-80.9359 -103.945 81.5519 -243.684 154.683 -242.914C313.235 -241.245 460.201 -292.499 543.987 -200.388C652.033 -81.6075 365.577 15.1022 210.482 57.1173C151.46 73.1061 88.7811 63.1508 35.0197 33.0977L-26.3172 -1.19016C-39.8853 -8.77487 -50.3031 -20.9379 -55.6567 -35.4449Z" stroke="url(#paint25_linear_1681_5582)" stroke-width="0.473573" stroke-miterlimit="10" stroke-linecap="round"/>
<path d="M-58.6157 -28.1661C-83.8949 -96.6665 78.5929 -236.405 151.724 -235.635C310.276 -233.966 457.242 -285.22 541.028 -193.109C649.074 -74.3286 362.619 22.381 207.523 64.3961C148.501 80.3849 85.8221 70.4296 32.0607 40.3765L-29.2762 6.08865C-42.8443 -1.49606 -53.2621 -13.6591 -58.6157 -28.1661Z" stroke="url(#paint26_linear_1681_5582)" stroke-width="0.35518" stroke-miterlimit="10" stroke-linecap="round"/>
<path d="M-58.6157 -28.1661C-83.8949 -96.6665 78.5929 -236.405 151.724 -235.635C310.276 -233.966 457.242 -285.22 541.028 -193.109C649.074 -74.3286 362.619 22.381 207.523 64.3961C148.501 80.3849 85.8221 70.4296 32.0607 40.3765L-29.2762 6.08865C-42.8443 -1.49606 -53.2621 -13.6591 -58.6157 -28.1661Z" stroke="url(#paint27_linear_1681_5582)" stroke-width="0.35518" stroke-miterlimit="10" stroke-linecap="round"/>
<path d="M-61.5727 -20.8873C-86.8519 -89.3877 75.6359 -229.126 148.767 -228.356C307.319 -226.688 454.285 -277.941 538.071 -185.83C646.117 -67.0498 359.661 29.6598 204.566 71.675C145.544 87.6637 82.8651 77.7084 29.1037 47.6553L-32.2332 13.3675C-45.8014 5.78275 -56.2192 -6.38032 -61.5727 -20.8873Z" stroke="url(#paint28_linear_1681_5582)" stroke-width="0.236787" stroke-miterlimit="10" stroke-linecap="round"/>
<path d="M-61.5727 -20.8873C-86.8519 -89.3877 75.6359 -229.126 148.767 -228.356C307.319 -226.688 454.285 -277.941 538.071 -185.83C646.117 -67.0498 359.661 29.6598 204.566 71.675C145.544 87.6637 82.8651 77.7084 29.1037 47.6553L-32.2332 13.3675C-45.8014 5.78275 -56.2192 -6.38032 -61.5727 -20.8873Z" stroke="url(#paint29_linear_1681_5582)" stroke-width="0.236787" stroke-miterlimit="10" stroke-linecap="round"/>
<path d="M-64.5303 -13.6089C-89.8094 -82.1094 72.6784 -221.848 145.809 -221.078C304.362 -219.409 451.328 -270.663 535.113 -178.552C643.159 -59.7721 356.708 36.9381 201.612 78.954C142.59 94.9434 79.9094 84.9879 26.147 54.9342L-35.1908 20.6458C-48.7589 13.061 -59.1767 0.897973 -64.5303 -13.6089Z" stroke="url(#paint30_linear_1681_5582)" stroke-width="0.118393" stroke-miterlimit="10" stroke-linecap="round"/>
<path d="M-64.5303 -13.6089C-89.8094 -82.1094 72.6784 -221.848 145.809 -221.078C304.362 -219.409 451.328 -270.663 535.113 -178.552C643.159 -59.7721 356.708 36.9381 201.612 78.954C142.59 94.9434 79.9094 84.9879 26.147 54.9342L-35.1908 20.6458C-48.7589 13.061 -59.1767 0.897973 -64.5303 -13.6089Z" stroke="url(#paint31_linear_1681_5582)" stroke-width="0.118393" stroke-miterlimit="10" stroke-linecap="round"/>
<defs>
<linearGradient id="paint0_linear_1681_5582" x1="-349.149" y1="-2139.7" x2="-97.8621" y2="-1754.01" gradientUnits="userSpaceOnUse">
<stop stop-color="#9B6220"/>
<stop offset="0.192458" stop-color="#9B6220"/>
<stop offset="0.402404" stop-color="#F9D190"/>
<stop offset="0.614201" stop-color="#E7BC60"/>
<stop offset="0.807016" stop-color="#9B6220"/>
<stop offset="1" stop-color="#9B6220"/>
</linearGradient>
<linearGradient id="paint1_linear_1681_5582" x1="175.662" y1="-559" x2="297.81" y2="-32.9245" gradientUnits="userSpaceOnUse">
<stop stop-color="#FFC74A"/>
<stop offset="0.431274" stop-color="#B97800"/>
<stop offset="0.459893" stop-color="#FFC74A"/>
<stop offset="0.528254" stop-color="#EBB43E"/>
<stop offset="0.540201" stop-color="#EBB43E"/>
<stop offset="0.693186" stop-color="#865600"/>
<stop offset="0.795009" stop-color="#865600"/>
<stop offset="0.833533" stop-color="#865600"/>
<stop offset="1" stop-color="#FFC74A"/>
</linearGradient>
<linearGradient id="paint2_linear_1681_5582" x1="-352.108" y1="-2132.42" x2="-100.821" y2="-1746.73" gradientUnits="userSpaceOnUse">
<stop stop-color="#9B6220"/>
<stop offset="0.192458" stop-color="#9B6220"/>
<stop offset="0.402404" stop-color="#F9D190"/>
<stop offset="0.614201" stop-color="#E7BC60"/>
<stop offset="0.807016" stop-color="#9B6220"/>
<stop offset="1" stop-color="#9B6220"/>
</linearGradient>
<linearGradient id="paint3_linear_1681_5582" x1="172.703" y1="-551.721" x2="294.851" y2="-25.6457" gradientUnits="userSpaceOnUse">
<stop stop-color="#FFC74A"/>
<stop offset="0.431274" stop-color="#B97800"/>
<stop offset="0.459893" stop-color="#FFC74A"/>
<stop offset="0.528254" stop-color="#EBB43E"/>
<stop offset="0.540201" stop-color="#EBB43E"/>
<stop offset="0.693186" stop-color="#865600"/>
<stop offset="0.795009" stop-color="#865600"/>
<stop offset="0.833533" stop-color="#865600"/>
<stop offset="1" stop-color="#FFC74A"/>
</linearGradient>
<linearGradient id="paint4_linear_1681_5582" x1="-355.065" y1="-2125.15" x2="-103.778" y2="-1739.45" gradientUnits="userSpaceOnUse">
<stop stop-color="#9B6220"/>
<stop offset="0.192458" stop-color="#9B6220"/>
<stop offset="0.402404" stop-color="#F9D190"/>
<stop offset="0.614201" stop-color="#E7BC60"/>
<stop offset="0.807016" stop-color="#9B6220"/>
<stop offset="1" stop-color="#9B6220"/>
</linearGradient>
<linearGradient id="paint5_linear_1681_5582" x1="169.746" y1="-544.443" x2="291.894" y2="-18.3674" gradientUnits="userSpaceOnUse">
<stop stop-color="#FFC74A"/>
<stop offset="0.431274" stop-color="#B97800"/>
<stop offset="0.459893" stop-color="#FFC74A"/>
<stop offset="0.528254" stop-color="#EBB43E"/>
<stop offset="0.540201" stop-color="#EBB43E"/>
<stop offset="0.693186" stop-color="#865600"/>
<stop offset="0.795009" stop-color="#865600"/>
<stop offset="0.833533" stop-color="#865600"/>
<stop offset="1" stop-color="#FFC74A"/>
</linearGradient>
<linearGradient id="paint6_linear_1681_5582" x1="-358.024" y1="-2117.87" x2="-106.736" y2="-1732.18" gradientUnits="userSpaceOnUse">
<stop stop-color="#9B6220"/>
<stop offset="0.192458" stop-color="#9B6220"/>
<stop offset="0.402404" stop-color="#F9D190"/>
<stop offset="0.614201" stop-color="#E7BC60"/>
<stop offset="0.807016" stop-color="#9B6220"/>
<stop offset="1" stop-color="#9B6220"/>
</linearGradient>
<linearGradient id="paint7_linear_1681_5582" x1="166.788" y1="-537.164" x2="288.937" y2="-11.0866" gradientUnits="userSpaceOnUse">
<stop stop-color="#FFC74A"/>
<stop offset="0.431274" stop-color="#B97800"/>
<stop offset="0.459893" stop-color="#FFC74A"/>
<stop offset="0.528254" stop-color="#EBB43E"/>
<stop offset="0.540201" stop-color="#EBB43E"/>
<stop offset="0.693186" stop-color="#865600"/>
<stop offset="0.795009" stop-color="#865600"/>
<stop offset="0.833533" stop-color="#865600"/>
<stop offset="1" stop-color="#FFC74A"/>
</linearGradient>
<linearGradient id="paint8_linear_1681_5582" x1="-360.982" y1="-2110.59" x2="-109.693" y2="-1724.9" gradientUnits="userSpaceOnUse">
<stop stop-color="#9B6220"/>
<stop offset="0.192458" stop-color="#9B6220"/>
<stop offset="0.402404" stop-color="#F9D190"/>
<stop offset="0.614201" stop-color="#E7BC60"/>
<stop offset="0.807016" stop-color="#9B6220"/>
<stop offset="1" stop-color="#9B6220"/>
</linearGradient>
<linearGradient id="paint9_linear_1681_5582" x1="163.831" y1="-529.885" x2="285.98" y2="-3.80778" gradientUnits="userSpaceOnUse">
<stop stop-color="#FFC74A"/>
<stop offset="0.431274" stop-color="#B97800"/>
<stop offset="0.459893" stop-color="#FFC74A"/>
<stop offset="0.528254" stop-color="#EBB43E"/>
<stop offset="0.540201" stop-color="#EBB43E"/>
<stop offset="0.693186" stop-color="#865600"/>
<stop offset="0.795009" stop-color="#865600"/>
<stop offset="0.833533" stop-color="#865600"/>
<stop offset="1" stop-color="#FFC74A"/>
</linearGradient>
<linearGradient id="paint10_linear_1681_5582" x1="-363.938" y1="-2103.31" x2="-112.651" y2="-1717.61" gradientUnits="userSpaceOnUse">
<stop stop-color="#9B6220"/>
<stop offset="0.192458" stop-color="#9B6220"/>
<stop offset="0.402404" stop-color="#F9D190"/>
<stop offset="0.614201" stop-color="#E7BC60"/>
<stop offset="0.807016" stop-color="#9B6220"/>
<stop offset="1" stop-color="#9B6220"/>
</linearGradient>
<linearGradient id="paint11_linear_1681_5582" x1="160.873" y1="-522.607" x2="283.021" y2="3.46904" gradientUnits="userSpaceOnUse">
<stop stop-color="#FFC74A"/>
<stop offset="0.431274" stop-color="#B97800"/>
<stop offset="0.459893" stop-color="#FFC74A"/>
<stop offset="0.528254" stop-color="#EBB43E"/>
<stop offset="0.540201" stop-color="#EBB43E"/>
<stop offset="0.693186" stop-color="#865600"/>
<stop offset="0.795009" stop-color="#865600"/>
<stop offset="0.833533" stop-color="#865600"/>
<stop offset="1" stop-color="#FFC74A"/>
</linearGradient>
<linearGradient id="paint12_linear_1681_5582" x1="-366.897" y1="-2096.03" x2="-115.61" y2="-1710.33" gradientUnits="userSpaceOnUse">
<stop stop-color="#9B6220"/>
<stop offset="0.192458" stop-color="#9B6220"/>
<stop offset="0.402404" stop-color="#F9D190"/>
<stop offset="0.614201" stop-color="#E7BC60"/>
<stop offset="0.807016" stop-color="#9B6220"/>
<stop offset="1" stop-color="#9B6220"/>
</linearGradient>
<linearGradient id="paint13_linear_1681_5582" x1="157.914" y1="-515.328" x2="280.062" y2="10.7478" gradientUnits="userSpaceOnUse">
<stop stop-color="#FFC74A"/>
<stop offset="0.431274" stop-color="#B97800"/>
<stop offset="0.459893" stop-color="#FFC74A"/>
<stop offset="0.528254" stop-color="#EBB43E"/>
<stop offset="0.540201" stop-color="#EBB43E"/>
<stop offset="0.693186" stop-color="#865600"/>
<stop offset="0.795009" stop-color="#865600"/>
<stop offset="0.833533" stop-color="#865600"/>
<stop offset="1" stop-color="#FFC74A"/>
</linearGradient>
<linearGradient id="paint14_linear_1681_5582" x1="-369.854" y1="-2088.75" x2="-118.567" y2="-1703.06" gradientUnits="userSpaceOnUse">
<stop stop-color="#9B6220"/>
<stop offset="0.192458" stop-color="#9B6220"/>
<stop offset="0.402404" stop-color="#F9D190"/>
<stop offset="0.614201" stop-color="#E7BC60"/>
<stop offset="0.807016" stop-color="#9B6220"/>
<stop offset="1" stop-color="#9B6220"/>
</linearGradient>
<linearGradient id="paint15_linear_1681_5582" x1="154.957" y1="-508.049" x2="277.105" y2="18.0262" gradientUnits="userSpaceOnUse">
<stop stop-color="#FFC74A"/>
<stop offset="0.431274" stop-color="#B97800"/>
<stop offset="0.459893" stop-color="#FFC74A"/>
<stop offset="0.528254" stop-color="#EBB43E"/>
<stop offset="0.540201" stop-color="#EBB43E"/>
<stop offset="0.693186" stop-color="#865600"/>
<stop offset="0.795009" stop-color="#865600"/>
<stop offset="0.833533" stop-color="#865600"/>
<stop offset="1" stop-color="#FFC74A"/>
</linearGradient>
<linearGradient id="paint16_linear_1681_5582" x1="-372.811" y1="-2081.47" x2="-121.524" y2="-1695.78" gradientUnits="userSpaceOnUse">
<stop stop-color="#9B6220"/>
<stop offset="0.192458" stop-color="#9B6220"/>
<stop offset="0.402404" stop-color="#F9D190"/>
<stop offset="0.614201" stop-color="#E7BC60"/>
<stop offset="0.807016" stop-color="#9B6220"/>
<stop offset="1" stop-color="#9B6220"/>
</linearGradient>
<linearGradient id="paint17_linear_1681_5582" x1="152" y1="-500.771" x2="274.148" y2="25.305" gradientUnits="userSpaceOnUse">
<stop stop-color="#FFC74A"/>
<stop offset="0.431274" stop-color="#B97800"/>
<stop offset="0.459893" stop-color="#FFC74A"/>
<stop offset="0.528254" stop-color="#EBB43E"/>
<stop offset="0.540201" stop-color="#EBB43E"/>
<stop offset="0.693186" stop-color="#865600"/>
<stop offset="0.795009" stop-color="#865600"/>
<stop offset="0.833533" stop-color="#865600"/>
<stop offset="1" stop-color="#FFC74A"/>
</linearGradient>
<linearGradient id="paint18_linear_1681_5582" x1="-375.771" y1="-2074.2" x2="-124.482" y2="-1688.5" gradientUnits="userSpaceOnUse">
<stop stop-color="#9B6220"/>
<stop offset="0.192458" stop-color="#9B6220"/>
<stop offset="0.402404" stop-color="#F9D190"/>
<stop offset="0.614201" stop-color="#E7BC60"/>
<stop offset="0.807016" stop-color="#9B6220"/>
<stop offset="1" stop-color="#9B6220"/>
</linearGradient>
<linearGradient id="paint19_linear_1681_5582" x1="149.042" y1="-493.492" x2="271.191" y2="32.5858" gradientUnits="userSpaceOnUse">
<stop stop-color="#FFC74A"/>
<stop offset="0.431274" stop-color="#B97800"/>
<stop offset="0.459893" stop-color="#FFC74A"/>
<stop offset="0.528254" stop-color="#EBB43E"/>
<stop offset="0.540201" stop-color="#EBB43E"/>
<stop offset="0.693186" stop-color="#865600"/>
<stop offset="0.795009" stop-color="#865600"/>
<stop offset="0.833533" stop-color="#865600"/>
<stop offset="1" stop-color="#FFC74A"/>
</linearGradient>
<linearGradient id="paint20_linear_1681_5582" x1="-378.728" y1="-2066.92" x2="-127.439" y2="-1681.23" gradientUnits="userSpaceOnUse">
<stop stop-color="#9B6220"/>
<stop offset="0.192458" stop-color="#9B6220"/>
<stop offset="0.402404" stop-color="#F9D190"/>
<stop offset="0.614201" stop-color="#E7BC60"/>
<stop offset="0.807016" stop-color="#9B6220"/>
<stop offset="1" stop-color="#9B6220"/>
</linearGradient>
<linearGradient id="paint21_linear_1681_5582" x1="146.085" y1="-486.214" x2="268.234" y2="39.8641" gradientUnits="userSpaceOnUse">
<stop stop-color="#FFC74A"/>
<stop offset="0.431274" stop-color="#B97800"/>
<stop offset="0.459893" stop-color="#FFC74A"/>
<stop offset="0.528254" stop-color="#EBB43E"/>
<stop offset="0.540201" stop-color="#EBB43E"/>
<stop offset="0.693186" stop-color="#865600"/>
<stop offset="0.795009" stop-color="#865600"/>
<stop offset="0.833533" stop-color="#865600"/>
<stop offset="1" stop-color="#FFC74A"/>
</linearGradient>
<linearGradient id="paint22_linear_1681_5582" x1="-381.685" y1="-2059.64" x2="-130.397" y2="-1673.94" gradientUnits="userSpaceOnUse">
<stop stop-color="#9B6220"/>
<stop offset="0.192458" stop-color="#9B6220"/>
<stop offset="0.402404" stop-color="#F9D190"/>
<stop offset="0.614201" stop-color="#E7BC60"/>
<stop offset="0.807016" stop-color="#9B6220"/>
<stop offset="1" stop-color="#9B6220"/>
</linearGradient>
<linearGradient id="paint23_linear_1681_5582" x1="143.127" y1="-478.935" x2="265.275" y2="47.1409" gradientUnits="userSpaceOnUse">
<stop stop-color="#FFC74A"/>
<stop offset="0.431274" stop-color="#B97800"/>
<stop offset="0.459893" stop-color="#FFC74A"/>
<stop offset="0.528254" stop-color="#EBB43E"/>
<stop offset="0.540201" stop-color="#EBB43E"/>
<stop offset="0.693186" stop-color="#865600"/>
<stop offset="0.795009" stop-color="#865600"/>
<stop offset="0.833533" stop-color="#865600"/>
<stop offset="1" stop-color="#FFC74A"/>
</linearGradient>
<linearGradient id="paint24_linear_1681_5582" x1="-384.642" y1="-2052.36" x2="-133.354" y2="-1666.66" gradientUnits="userSpaceOnUse">
<stop stop-color="#9B6220"/>
<stop offset="0.192458" stop-color="#9B6220"/>
<stop offset="0.402404" stop-color="#F9D190"/>
<stop offset="0.614201" stop-color="#E7BC60"/>
<stop offset="0.807016" stop-color="#9B6220"/>
<stop offset="1" stop-color="#9B6220"/>
</linearGradient>
<linearGradient id="paint25_linear_1681_5582" x1="140.17" y1="-471.656" x2="262.318" y2="54.4197" gradientUnits="userSpaceOnUse">
<stop stop-color="#FFC74A"/>
<stop offset="0.431274" stop-color="#B97800"/>
<stop offset="0.459893" stop-color="#FFC74A"/>
<stop offset="0.528254" stop-color="#EBB43E"/>
<stop offset="0.540201" stop-color="#EBB43E"/>
<stop offset="0.693186" stop-color="#865600"/>
<stop offset="0.795009" stop-color="#865600"/>
<stop offset="0.833533" stop-color="#865600"/>
<stop offset="1" stop-color="#FFC74A"/>
</linearGradient>
<linearGradient id="paint26_linear_1681_5582" x1="-387.601" y1="-2045.08" x2="-136.313" y2="-1659.38" gradientUnits="userSpaceOnUse">
<stop stop-color="#9B6220"/>
<stop offset="0.192458" stop-color="#9B6220"/>
<stop offset="0.402404" stop-color="#F9D190"/>
<stop offset="0.614201" stop-color="#E7BC60"/>
<stop offset="0.807016" stop-color="#9B6220"/>
<stop offset="1" stop-color="#9B6220"/>
</linearGradient>
<linearGradient id="paint27_linear_1681_5582" x1="137.211" y1="-464.377" x2="259.359" y2="61.6985" gradientUnits="userSpaceOnUse">
<stop stop-color="#FFC74A"/>
<stop offset="0.431274" stop-color="#B97800"/>
<stop offset="0.459893" stop-color="#FFC74A"/>
<stop offset="0.528254" stop-color="#EBB43E"/>
<stop offset="0.540201" stop-color="#EBB43E"/>
<stop offset="0.693186" stop-color="#865600"/>
<stop offset="0.795009" stop-color="#865600"/>
<stop offset="0.833533" stop-color="#865600"/>
<stop offset="1" stop-color="#FFC74A"/>
</linearGradient>
<linearGradient id="paint28_linear_1681_5582" x1="-390.558" y1="-2037.8" x2="-139.27" y2="-1652.1" gradientUnits="userSpaceOnUse">
<stop stop-color="#9B6220"/>
<stop offset="0.192458" stop-color="#9B6220"/>
<stop offset="0.402404" stop-color="#F9D190"/>
<stop offset="0.614201" stop-color="#E7BC60"/>
<stop offset="0.807016" stop-color="#9B6220"/>
<stop offset="1" stop-color="#9B6220"/>
</linearGradient>
<linearGradient id="paint29_linear_1681_5582" x1="134.254" y1="-457.098" x2="256.402" y2="68.9773" gradientUnits="userSpaceOnUse">
<stop stop-color="#FFC74A"/>
<stop offset="0.431274" stop-color="#B97800"/>
<stop offset="0.459893" stop-color="#FFC74A"/>
<stop offset="0.528254" stop-color="#EBB43E"/>
<stop offset="0.540201" stop-color="#EBB43E"/>
<stop offset="0.693186" stop-color="#865600"/>
<stop offset="0.795009" stop-color="#865600"/>
<stop offset="0.833533" stop-color="#865600"/>
<stop offset="1" stop-color="#FFC74A"/>
</linearGradient>
<linearGradient id="paint30_linear_1681_5582" x1="-393.517" y1="-2030.53" x2="-142.228" y2="-1644.83" gradientUnits="userSpaceOnUse">
<stop stop-color="#9B6220"/>
<stop offset="0.192458" stop-color="#9B6220"/>
<stop offset="0.402404" stop-color="#F9D190"/>
<stop offset="0.614201" stop-color="#E7BC60"/>
<stop offset="0.807016" stop-color="#9B6220"/>
<stop offset="1" stop-color="#9B6220"/>
</linearGradient>
<linearGradient id="paint31_linear_1681_5582" x1="131.296" y1="-449.82" x2="253.445" y2="76.2576" gradientUnits="userSpaceOnUse">
<stop stop-color="#FFC74A"/>
<stop offset="0.431274" stop-color="#B97800"/>
<stop offset="0.459893" stop-color="#FFC74A"/>
<stop offset="0.528254" stop-color="#EBB43E"/>
<stop offset="0.540201" stop-color="#EBB43E"/>
<stop offset="0.693186" stop-color="#865600"/>
<stop offset="0.795009" stop-color="#865600"/>
<stop offset="0.833533" stop-color="#865600"/>
<stop offset="1" stop-color="#FFC74A"/>
</linearGradient>
</defs>
</svg>
