<svg width="259" height="263" viewBox="0 0 259 263" fill="none" xmlns="http://www.w3.org/2000/svg">
<g style="mix-blend-mode:multiply" filter="url(#filter0_f_1681_5477)">
<ellipse cx="129.441" cy="131.344" rx="59.2746" ry="61.1773" fill="#808080"/>
</g>
<path d="M126.274 40.084C130.952 37.465 136.655 37.465 141.333 40.084C144.534 41.8761 148.269 42.4677 151.867 41.7525C157.126 40.7073 162.549 42.4696 166.189 46.406C168.68 49.0995 172.049 50.8164 175.692 51.2481C181.016 51.879 185.63 55.231 187.875 60.0995C189.412 63.4309 192.086 66.105 195.417 67.6413C200.286 69.8865 203.638 74.5002 204.269 79.8242C204.7 83.4673 206.417 86.8369 209.111 89.3274C213.047 92.9672 214.809 98.3909 213.764 103.649C213.049 107.247 213.64 110.983 215.433 114.184C218.052 118.862 218.052 124.565 215.433 129.243C213.64 132.444 213.049 136.179 213.764 139.777C214.809 145.035 213.047 150.459 209.111 154.099C206.417 156.589 204.7 159.959 204.269 163.602C203.638 168.926 200.286 173.54 195.417 175.785C192.086 177.321 189.412 179.995 187.875 183.327C185.63 188.195 181.016 191.547 175.692 192.178C172.049 192.61 168.68 194.327 166.189 197.02C162.549 200.957 157.126 202.719 151.867 201.674C148.269 200.959 144.534 201.55 141.333 203.342C136.655 205.961 130.952 205.961 126.274 203.342C123.073 201.55 119.338 200.959 115.74 201.674C110.481 202.719 105.058 200.957 101.418 197.02C98.9272 194.327 95.5576 192.61 91.9145 192.178C86.5905 191.547 81.9768 188.195 79.7316 183.327C78.1953 179.995 75.5212 177.321 72.1898 175.785C67.3214 173.54 63.9693 168.926 63.3384 163.602C62.9068 159.959 61.1899 156.589 58.4963 154.099C54.5599 150.459 52.7976 145.035 53.8429 139.777C54.5581 136.179 53.9665 132.444 52.1744 129.243C49.5554 124.565 49.5554 118.862 52.1744 114.184C53.9665 110.983 54.5581 107.247 53.8429 103.649C52.7976 98.3909 54.5599 92.9672 58.4963 89.3274C61.1899 86.8369 62.9068 83.4673 63.3384 79.8242C63.9693 74.5002 67.3214 69.8865 72.1898 67.6413C75.5212 66.105 78.1953 63.4309 79.7316 60.0995C81.9768 55.231 86.5905 51.879 91.9145 51.2481C95.5576 50.8164 98.9272 49.0995 101.418 46.406C105.058 42.4696 110.481 40.7073 115.74 41.7525C119.338 42.4677 123.073 41.8761 126.274 40.084Z" fill="url(#paint0_linear_1681_5477)"/>
<path d="M126.148 41.9441C130.701 39.3954 136.251 39.3954 140.803 41.9441C143.918 43.6882 147.553 44.2639 151.055 43.5679C156.172 42.5507 161.451 44.2657 164.993 48.0965C167.417 50.7178 170.696 52.3887 174.241 52.8088C179.422 53.4227 183.912 56.6849 186.097 61.4228C187.592 64.6648 190.195 67.2672 193.437 68.7623C198.175 70.9473 201.437 75.4373 202.051 80.6185C202.471 84.1638 204.142 87.4431 206.763 89.8668C210.594 93.4089 212.309 98.6872 211.292 103.805C210.596 107.306 211.172 110.941 212.916 114.056C215.464 118.609 215.464 124.159 212.916 128.711C211.172 131.827 210.596 135.462 211.292 138.963C212.309 144.081 210.594 149.359 206.763 152.901C204.142 155.325 202.471 158.604 202.051 162.149C201.437 167.331 198.175 171.821 193.437 174.006C190.195 175.501 187.592 178.103 186.097 181.345C183.912 186.083 179.422 189.345 174.241 189.959C170.696 190.379 167.417 192.05 164.993 194.671C161.451 198.502 156.172 200.217 151.055 199.2C147.553 198.504 143.918 199.08 140.803 200.824C136.251 203.373 130.701 203.373 126.148 200.824C123.033 199.08 119.398 198.504 115.896 199.2C110.779 200.217 105.501 198.502 101.959 194.671C99.5349 192.05 96.2556 190.379 92.7103 189.959C87.5291 189.345 83.0391 186.083 80.8541 181.345C79.359 178.103 76.7566 175.501 73.5146 174.006C68.7767 171.821 65.5145 167.331 64.9006 162.149C64.4805 158.604 62.8096 155.325 60.1883 152.901C56.3575 149.359 54.6425 144.081 55.6597 138.963C56.3557 135.462 55.78 131.827 54.0359 128.711C51.4872 124.159 51.4872 118.609 54.0359 114.056C55.78 110.941 56.3557 107.306 55.6597 103.805C54.6425 98.6872 56.3575 93.4089 60.1883 89.8668C62.8096 87.4431 64.4805 84.1638 64.9006 80.6185C65.5145 75.4373 68.7767 70.9473 73.5146 68.7623C76.7566 67.2672 79.359 64.6648 80.8541 61.4228C83.0391 56.6849 87.5291 53.4227 92.7103 52.8088C96.2556 52.3887 99.5349 50.7178 101.959 48.0965C105.501 44.2657 110.779 42.5507 115.896 43.5679C119.398 44.2639 123.033 43.6882 126.148 41.9441Z" fill="url(#paint1_linear_1681_5477)"/>
<path d="M127.216 53.516C131.105 51.3385 135.847 51.3385 139.736 53.516C142.398 55.006 145.503 55.4978 148.495 54.9032C152.867 54.0342 157.376 55.4994 160.402 58.7722C162.473 61.0116 165.274 62.4391 168.303 62.798C172.73 63.3225 176.566 66.1095 178.432 70.1572C179.71 72.9269 181.933 75.1503 184.703 76.4276C188.751 78.2943 191.538 82.1302 192.062 86.5567C192.421 89.5855 193.848 92.3871 196.088 94.4578C199.361 97.4839 200.826 101.993 199.957 106.365C199.362 109.357 199.854 112.462 201.344 115.124C203.522 119.013 203.521 123.755 201.344 127.644C199.854 130.305 199.362 133.411 199.957 136.402C200.826 140.774 199.361 145.284 196.088 148.31C193.848 150.381 192.421 153.182 192.062 156.211C191.538 160.638 188.751 164.473 184.703 166.34C181.933 167.617 179.71 169.841 178.432 172.611C176.566 176.658 172.73 179.445 168.303 179.97C165.274 180.329 162.473 181.756 160.402 183.996C157.376 187.268 152.867 188.734 148.495 187.865C145.503 187.27 142.398 187.762 139.736 189.252C135.847 191.429 131.105 191.429 127.216 189.252C124.555 187.762 121.449 187.27 118.458 187.865C114.086 188.734 109.576 187.268 106.55 183.996C104.479 181.756 101.678 180.329 98.6489 179.97C94.2225 179.445 90.3865 176.658 88.5199 172.611C87.2426 169.841 85.0192 167.617 82.2495 166.34C78.2017 164.473 75.4148 160.638 74.8903 156.211C74.5314 153.182 73.1039 150.381 70.8644 148.31C67.5916 145.284 66.1264 140.774 66.9955 136.402C67.5901 133.411 67.0982 130.305 65.6083 127.644C63.4308 123.755 63.4308 119.013 65.6083 115.124C67.0982 112.462 67.5901 109.357 66.9955 106.365C66.1264 101.993 67.5916 97.4839 70.8644 94.4578C73.1039 92.3871 74.5314 89.5855 74.8903 86.5567C75.4148 82.1302 78.2017 78.2943 82.2495 76.4276C85.0192 75.1503 87.2426 72.9269 88.5199 70.1572C90.3865 66.1094 94.2225 63.3225 98.6489 62.798C101.678 62.4391 104.479 61.0116 106.55 58.7722C109.576 55.4994 114.086 54.0342 118.458 54.9032C121.449 55.4978 124.555 55.006 127.216 53.516Z" fill="url(#paint2_linear_1681_5477)"/>
<path d="M127.216 53.516C131.105 51.3385 135.847 51.3385 139.736 53.516C142.398 55.006 145.503 55.4978 148.495 54.9032C152.867 54.0342 157.376 55.4994 160.402 58.7722C162.473 61.0116 165.274 62.4391 168.303 62.798C172.73 63.3225 176.566 66.1095 178.432 70.1572C179.71 72.9269 181.933 75.1503 184.703 76.4276C188.751 78.2943 191.538 82.1302 192.062 86.5567C192.421 89.5855 193.848 92.3871 196.088 94.4578C199.361 97.4839 200.826 101.993 199.957 106.365C199.362 109.357 199.854 112.462 201.344 115.124C203.522 119.013 203.521 123.755 201.344 127.644C199.854 130.305 199.362 133.411 199.957 136.402C200.826 140.774 199.361 145.284 196.088 148.31C193.848 150.381 192.421 153.182 192.062 156.211C191.538 160.638 188.751 164.473 184.703 166.34C181.933 167.617 179.71 169.841 178.432 172.611C176.566 176.658 172.73 179.445 168.303 179.97C165.274 180.329 162.473 181.756 160.402 183.996C157.376 187.268 152.867 188.734 148.495 187.865C145.503 187.27 142.398 187.762 139.736 189.252C135.847 191.429 131.105 191.429 127.216 189.252C124.555 187.762 121.449 187.27 118.458 187.865C114.086 188.734 109.576 187.268 106.55 183.996C104.479 181.756 101.678 180.329 98.6489 179.97C94.2225 179.445 90.3865 176.658 88.5199 172.611C87.2426 169.841 85.0192 167.617 82.2495 166.34C78.2017 164.473 75.4148 160.638 74.8903 156.211C74.5314 153.182 73.1039 150.381 70.8644 148.31C67.5916 145.284 66.1264 140.774 66.9955 136.402C67.5901 133.411 67.0982 130.305 65.6083 127.644C63.4308 123.755 63.4308 119.013 65.6083 115.124C67.0982 112.462 67.5901 109.357 66.9955 106.365C66.1264 101.993 67.5916 97.4839 70.8644 94.4578C73.1039 92.3871 74.5314 89.5855 74.8903 86.5567C75.4148 82.1302 78.2017 78.2943 82.2495 76.4276C85.0192 75.1503 87.2426 72.9269 88.5199 70.1572C90.3865 66.1094 94.2225 63.3225 98.6489 62.798C101.678 62.4391 104.479 61.0116 106.55 58.7722C109.576 55.4994 114.086 54.0342 118.458 54.9032C121.449 55.4978 124.555 55.006 127.216 53.516Z" fill="url(#paint3_linear_1681_5477)"/>
<path d="M127.416 55.7057C131.18 53.5984 135.769 53.5984 139.533 55.7057C142.108 57.1476 145.114 57.6236 148.009 57.0481C152.24 56.2071 156.604 57.6251 159.532 60.7923C161.536 62.9595 164.247 64.3409 167.178 64.6882C171.462 65.1958 175.174 67.8929 176.981 71.8101C178.217 74.4904 180.368 76.6421 183.049 77.8782C186.966 79.6846 189.663 83.3968 190.171 87.6805C190.518 90.6117 191.899 93.3229 194.067 95.3268C197.234 98.2553 198.652 102.619 197.811 106.85C197.235 109.745 197.711 112.751 199.153 115.326C201.26 119.09 201.26 123.678 199.153 127.442C197.711 130.018 197.235 133.023 197.811 135.918C198.652 140.149 197.234 144.513 194.067 147.442C191.899 149.446 190.518 152.157 190.171 155.088C189.663 159.372 186.966 163.084 183.049 164.89C180.368 166.126 178.217 168.278 176.981 170.958C175.174 174.876 171.462 177.573 167.178 178.08C164.247 178.428 161.536 179.809 159.532 181.976C156.604 185.143 152.24 186.561 148.009 185.72C145.114 185.145 142.108 185.621 139.533 187.063C135.769 189.17 131.18 189.17 127.416 187.063C124.841 185.621 121.835 185.145 118.94 185.72C114.71 186.561 110.346 185.143 107.417 181.976C105.413 179.809 102.702 178.428 99.7708 178.08C95.4872 177.573 91.775 174.876 89.9685 170.958C88.7324 168.278 86.5808 166.126 83.9004 164.89C79.9832 163.084 77.2862 159.372 76.7786 155.088C76.4313 152.157 75.0498 149.446 72.8826 147.442C69.7154 144.513 68.2975 140.149 69.1384 135.918C69.7139 133.023 69.2379 130.018 67.796 127.442C65.6887 123.678 65.6887 119.09 67.796 115.326C69.2379 112.751 69.7139 109.745 69.1384 106.85C68.2975 102.619 69.7154 98.2553 72.8826 95.3268C75.0498 93.3229 76.4313 90.6117 76.7786 87.6805C77.2862 83.3968 79.9832 79.6846 83.9004 77.8782C86.5808 76.6421 88.7324 74.4905 89.9685 71.8101C91.775 67.8929 95.4872 65.1958 99.7708 64.6882C102.702 64.3409 105.413 62.9595 107.417 60.7923C110.346 57.625 114.71 56.2071 118.94 57.0481C121.835 57.6236 124.841 57.1476 127.416 55.7057Z" fill="url(#paint4_linear_1681_5477)"/>
<path d="M127.416 55.7057C131.18 53.5984 135.769 53.5984 139.533 55.7057C142.108 57.1476 145.114 57.6236 148.009 57.0481C152.24 56.2071 156.604 57.6251 159.532 60.7923C161.536 62.9595 164.247 64.3409 167.178 64.6882C171.462 65.1958 175.174 67.8929 176.981 71.8101C178.217 74.4904 180.368 76.6421 183.049 77.8782C186.966 79.6846 189.663 83.3968 190.171 87.6805C190.518 90.6117 191.899 93.3229 194.067 95.3268C197.234 98.2553 198.652 102.619 197.811 106.85C197.235 109.745 197.711 112.751 199.153 115.326C201.26 119.09 201.26 123.678 199.153 127.442C197.711 130.018 197.235 133.023 197.811 135.918C198.652 140.149 197.234 144.513 194.067 147.442C191.899 149.446 190.518 152.157 190.171 155.088C189.663 159.372 186.966 163.084 183.049 164.89C180.368 166.126 178.217 168.278 176.981 170.958C175.174 174.876 171.462 177.573 167.178 178.08C164.247 178.428 161.536 179.809 159.532 181.976C156.604 185.143 152.24 186.561 148.009 185.72C145.114 185.145 142.108 185.621 139.533 187.063C135.769 189.17 131.18 189.17 127.416 187.063C124.841 185.621 121.835 185.145 118.94 185.72C114.71 186.561 110.346 185.143 107.417 181.976C105.413 179.809 102.702 178.428 99.7708 178.08C95.4872 177.573 91.775 174.876 89.9685 170.958C88.7324 168.278 86.5808 166.126 83.9004 164.89C79.9832 163.084 77.2862 159.372 76.7786 155.088C76.4313 152.157 75.0498 149.446 72.8826 147.442C69.7154 144.513 68.2975 140.149 69.1384 135.918C69.7139 133.023 69.2379 130.018 67.796 127.442C65.6887 123.678 65.6887 119.09 67.796 115.326C69.2379 112.751 69.7139 109.745 69.1384 106.85C68.2975 102.619 69.7154 98.2553 72.8826 95.3268C75.0498 93.3229 76.4313 90.6117 76.7786 87.6805C77.2862 83.3968 79.9832 79.6846 83.9004 77.8782C86.5808 76.6421 88.7324 74.4905 89.9685 71.8101C91.775 67.8929 95.4872 65.1958 99.7708 64.6882C102.702 64.3409 105.413 62.9595 107.417 60.7923C110.346 57.625 114.71 56.2071 118.94 57.0481C121.835 57.6236 124.841 57.1476 127.416 55.7057Z" fill="url(#paint5_linear_1681_5477)"/>
<path d="M127.416 55.7057C131.18 53.5984 135.769 53.5984 139.533 55.7057C142.108 57.1476 145.114 57.6236 148.009 57.0481C152.24 56.2071 156.604 57.6251 159.532 60.7923C161.536 62.9595 164.247 64.3409 167.178 64.6882C171.462 65.1958 175.174 67.8929 176.981 71.8101C178.217 74.4904 180.368 76.6421 183.049 77.8782C186.966 79.6846 189.663 83.3968 190.171 87.6805C190.518 90.6117 191.899 93.3229 194.067 95.3268C197.234 98.2553 198.652 102.619 197.811 106.85C197.235 109.745 197.711 112.751 199.153 115.326C201.26 119.09 201.26 123.678 199.153 127.442C197.711 130.018 197.235 133.023 197.811 135.918C198.652 140.149 197.234 144.513 194.067 147.442C191.899 149.446 190.518 152.157 190.171 155.088C189.663 159.372 186.966 163.084 183.049 164.89C180.368 166.126 178.217 168.278 176.981 170.958C175.174 174.876 171.462 177.573 167.178 178.08C164.247 178.428 161.536 179.809 159.532 181.976C156.604 185.143 152.24 186.561 148.009 185.72C145.114 185.145 142.108 185.621 139.533 187.063C135.769 189.17 131.18 189.17 127.416 187.063C124.841 185.621 121.835 185.145 118.94 185.72C114.71 186.561 110.346 185.143 107.417 181.976C105.413 179.809 102.702 178.428 99.7708 178.08C95.4872 177.573 91.775 174.876 89.9685 170.958C88.7324 168.278 86.5808 166.126 83.9004 164.89C79.9832 163.084 77.2862 159.372 76.7786 155.088C76.4313 152.157 75.0498 149.446 72.8826 147.442C69.7154 144.513 68.2975 140.149 69.1384 135.918C69.7139 133.023 69.2379 130.018 67.796 127.442C65.6887 123.678 65.6887 119.09 67.796 115.326C69.2379 112.751 69.7139 109.745 69.1384 106.85C68.2975 102.619 69.7154 98.2553 72.8826 95.3268C75.0498 93.3229 76.4313 90.6117 76.7786 87.6805C77.2862 83.3968 79.9832 79.6846 83.9004 77.8782C86.5808 76.6421 88.7324 74.4905 89.9685 71.8101C91.775 67.8929 95.4872 65.1958 99.7708 64.6882C102.702 64.3409 105.413 62.9595 107.417 60.7923C110.346 57.625 114.71 56.2071 118.94 57.0481C121.835 57.6236 124.841 57.1476 127.416 55.7057Z" fill="url(#paint6_linear_1681_5477)"/>
<path d="M149.333 123.887C150.361 123.887 151.237 124.14 151.956 124.644C152.806 125.241 153.23 126.032 153.23 127.014C153.23 127.307 153.192 127.591 153.115 127.87C152.806 128.999 151.976 129.755 150.625 130.14L153.597 135.318H153.848C153.912 135.318 153.976 135.325 154.04 135.339C154.245 135.377 154.349 135.544 154.349 135.837L150.954 135.855L148.078 130.379H147.133V135.299H148.676V135.837H142.888V135.299H144.432V124.426H142.888V123.887H149.333ZM111.745 135.299H112.323C112.401 135.299 112.471 135.305 112.536 135.318C112.702 135.345 112.787 135.518 112.787 135.837H107.616V135.299H108.985L107.538 131.475H103.699L102.31 135.299H103.39C103.467 135.299 103.538 135.305 103.603 135.318C103.77 135.345 103.853 135.518 103.854 135.837H100.303V135.299H101.538L105.763 123.887H107.191L111.745 135.299ZM117.823 124.426H116.28L119.31 133.128L121.201 127.811L119.733 123.887H124.211V124.426L122.667 124.405L125.657 132.949L128.378 124.426H126.834V123.887H130.019V124.426H129.054L125.368 135.837H124.982C124.764 135.837 124.584 135.796 124.442 135.717C124.211 135.584 123.94 135.113 123.632 134.303L121.548 128.706L119.001 135.837H118.614C118.396 135.837 118.216 135.796 118.074 135.717C117.843 135.584 117.572 135.113 117.264 134.303L113.559 124.426H112.595V123.887H117.823V124.426ZM141.461 135.299H142.039C142.117 135.299 142.187 135.305 142.251 135.318C142.419 135.345 142.502 135.518 142.502 135.837H137.331V135.299H138.701L137.255 131.475H133.414L132.025 135.299H133.105C133.183 135.299 133.253 135.305 133.317 135.318C133.485 135.345 133.568 135.518 133.568 135.837H130.019V135.299H131.253L135.479 123.887H136.908L141.461 135.299ZM160.428 123.887C161.856 123.887 163.103 124.239 164.171 124.942C165.792 126.032 166.603 127.685 166.603 129.902C166.603 131.641 166.035 133.062 164.904 134.164C163.746 135.279 162.272 135.837 160.485 135.837H154.736V135.299H156.279V124.426H154.736V123.887H160.428ZM158.98 124.426V135.299H160.446C161.05 135.299 161.56 135.174 161.972 134.92C163.039 134.271 163.572 132.564 163.572 129.803C163.572 128.422 163.444 127.312 163.187 126.476C162.737 125.108 161.836 124.426 160.485 124.426H158.98ZM103.931 130.878H107.307L105.59 126.298L103.931 130.878ZM133.646 130.878H137.023L135.306 126.298L133.646 130.878ZM147.133 129.782H148.329C148.716 129.782 149.055 129.683 149.353 129.482C150.02 129.045 150.354 128.255 150.354 127.113C150.354 126.742 150.31 126.383 150.22 126.038C149.911 124.963 149.229 124.426 148.175 124.426H147.133V129.782ZM139.907 107.351C141.091 107.351 142.216 107.609 143.284 108.127C143.284 108.007 143.29 107.901 143.304 107.809C143.368 107.558 143.58 107.431 143.939 107.431V111.035H143.188C143.174 110.318 143.007 109.7 142.687 109.184C142.158 108.36 141.367 107.948 140.312 107.948C140.043 107.948 139.784 107.989 139.54 108.068C138.808 108.321 138.441 108.838 138.441 109.621C138.441 109.926 138.506 110.219 138.635 110.497C138.905 111.068 139.579 111.646 140.659 112.229C141.843 112.881 142.519 113.252 142.687 113.345C143.856 114.128 144.442 115.071 144.442 116.173C144.442 117.048 144.139 117.792 143.535 118.402C142.66 119.266 141.405 119.698 139.772 119.698C138.371 119.698 137.174 119.359 136.184 118.682C136.184 118.908 136.171 119.087 136.145 119.22C136.08 119.432 135.875 119.539 135.528 119.539V115.316H136.28C136.331 116.019 136.473 116.645 136.705 117.188C137.258 118.477 138.215 119.121 139.578 119.121C139.939 119.121 140.267 119.067 140.564 118.961C141.387 118.643 141.798 118.005 141.798 117.049C141.798 116.771 141.74 116.498 141.624 116.233C141.354 115.675 140.665 115.097 139.56 114.5C138.326 113.85 137.63 113.471 137.477 113.365C136.254 112.582 135.644 111.639 135.644 110.537C135.644 109.794 135.895 109.149 136.396 108.605C137.181 107.77 138.351 107.351 139.907 107.351ZM118.257 107.55C118.964 107.55 119.595 107.63 120.147 107.789C121.472 108.187 122.136 109.004 122.136 110.238C122.136 110.505 122.09 110.776 122 111.055C121.679 111.984 120.938 112.641 119.781 113.025C120.089 113.066 120.386 113.126 120.669 113.206C122.225 113.631 123.004 114.58 123.004 116.054C123.004 116.717 122.81 117.328 122.425 117.886C121.64 118.961 120.367 119.498 118.604 119.498H112.006V118.961H113.549V108.088H112.006V107.55H118.257ZM133.597 111.373H133.037L132.613 109.999C132.574 109.88 132.529 109.76 132.478 109.641C132.079 108.606 131.352 108.088 130.297 108.088H128.117V113.047H131.822V113.644H128.117V118.961H130.297C130.541 118.961 130.774 118.935 130.992 118.882C131.725 118.682 132.259 118.072 132.594 117.049L133.037 115.675H133.597L133.52 119.498H123.873V118.961H125.416V108.088H123.873V107.55H133.52L133.597 111.373ZM155.672 111.812H155.093L154.494 110.02C154.403 109.767 154.32 109.548 154.243 109.361C153.857 108.513 153.201 108.088 152.275 108.088H151.947V118.961H153.259C153.529 118.989 153.703 119.167 153.781 119.498H147.413V118.961H149.246V108.088H148.917C148.48 108.088 148.107 108.174 147.799 108.347C147.349 108.612 146.982 109.17 146.699 110.02L146.101 111.812H145.522L145.599 107.55H155.594L155.672 111.812ZM116.25 118.961H117.542C117.709 118.961 117.877 118.948 118.044 118.921C119.382 118.721 120.052 117.72 120.052 115.914C120.052 115.515 119.993 115.144 119.877 114.798C119.542 113.802 118.861 113.305 117.831 113.305H116.25V118.961ZM116.25 112.747H117.33C117.561 112.747 117.78 112.721 117.986 112.668C118.887 112.402 119.336 111.646 119.336 110.398C119.324 108.885 118.604 108.114 117.176 108.088H116.25V112.747Z" fill="url(#paint7_linear_1681_5477)"/>
<path d="M145.081 70.8474C145.451 71.1883 146.756 72.2185 147.285 71.6021C147.83 70.969 146.55 69.8816 146.13 69.5785C145.371 69.0292 144.512 68.6385 143.639 68.3206C143.897 69.2679 144.358 70.1811 145.081 70.8474ZM120.3 69.6955C119.883 70.0023 118.613 71.1008 119.163 71.7292C119.699 72.3402 120.994 71.2989 121.361 70.9542C122.079 70.2806 122.53 69.3656 122.781 68.4146C121.909 68.739 121.054 69.1398 120.3 69.6955ZM150.783 71.7891C151.184 72.4876 152.535 74.1795 153.51 73.7897C154.535 73.376 153.131 71.6924 152.737 71.3017C151.966 70.5387 150.98 69.9655 150.033 69.4559C150.147 70.2594 150.381 71.0851 150.783 71.7891ZM113.71 71.4777C113.319 71.873 111.93 73.5685 112.96 73.9722C113.938 74.3537 115.274 72.6489 115.667 71.9486C116.063 71.2408 116.289 70.4133 116.396 69.6089C115.455 70.1268 114.474 70.7073 113.71 71.4777ZM126.929 70.0235C126.499 70.0641 122.946 70.4244 123.013 71.286C123.109 72.5318 131.418 70.6253 132.314 70.4078C130.957 70.1618 129.562 69.9673 128.173 69.9673C127.758 69.9673 127.343 69.9839 126.929 70.0235ZM134.124 70.4972C135.007 70.7036 143.458 72.4176 143.408 71.2639C143.394 70.9109 142.455 70.6566 142.232 70.5838C141.275 70.2705 140.236 70.1019 139.233 70.0438C138.959 70.0281 138.685 70.0199 138.411 70.0199C136.972 70.0199 135.532 70.2272 134.124 70.4972ZM157.349 74.4099C157.708 75.2844 158.785 77.0398 159.9 77.0149C161.202 76.9845 160.088 74.8531 159.759 74.3767C159.01 73.2884 157.888 72.413 156.824 71.6666C156.843 72.5927 156.998 73.5547 157.349 74.4099ZM106.715 74.6172C106.392 75.0955 105.297 77.2379 106.598 77.2554C107.714 77.2711 108.774 75.5064 109.126 74.6273C109.47 73.7694 109.616 72.8055 109.627 71.8794C108.569 72.636 107.455 73.5215 106.715 74.6172ZM144.793 72.33C143.866 72.6231 143.145 73.34 142.629 74.1611C143.473 74.1408 144.364 74.1085 145.19 73.9224C145.663 73.8164 147.148 73.4073 147.016 72.6535C146.943 72.2453 146.518 72.1245 146.049 72.1245C145.561 72.1245 145.025 72.2563 144.793 72.33ZM119.443 72.7788C119.318 73.5326 120.806 73.9298 121.279 74.0311C122.107 74.209 122.998 74.2329 123.843 74.2449C123.32 73.4303 122.592 72.7198 121.663 72.4342C121.435 72.3641 120.912 72.2407 120.43 72.2407C119.951 72.2407 119.513 72.3623 119.443 72.7788ZM149.817 74.4642C149.162 74.7941 148.574 75.3157 148.107 75.8852C149.242 76.0308 150.525 76.1478 151.651 75.9036C152.197 75.7838 153.798 75.2494 153.012 74.4624C152.689 74.1408 152.202 74.0201 151.687 74.0201C151.009 74.0201 150.282 74.2302 149.817 74.4642ZM113.463 74.6421C112.684 75.4346 114.291 75.9561 114.837 76.0695C115.965 76.3045 117.247 76.1754 118.381 76.0206C117.908 75.453 117.315 74.9388 116.658 74.6135C116.198 74.3868 115.484 74.1869 114.814 74.1869C114.288 74.1869 113.79 74.3103 113.463 74.6421ZM164.009 78.3511C164.278 79.303 165.296 81.6298 166.541 81.4925C167.773 81.3552 166.86 79.069 166.576 78.5078C165.919 77.2094 164.861 76.0953 163.818 75.1111C163.691 76.1745 163.716 77.3181 164.009 78.3511ZM99.9366 78.8082C99.657 79.3731 98.7657 81.6685 99.9975 81.7929C101.245 81.9192 102.241 79.5822 102.502 78.6294C102.786 77.5955 102.8 76.4501 102.664 75.3876C101.63 76.381 100.581 77.5052 99.9366 78.8082ZM156.117 77.0822C155.236 77.3098 154.407 77.8692 153.752 78.4976C154.924 78.7474 156.112 79.0515 157.319 79.0487C157.867 79.0468 160.034 78.8542 159.461 77.7825C159.115 77.1384 158.197 76.9403 157.353 76.9403C156.88 76.9403 156.431 77.002 156.117 77.0822ZM107.045 78.0194C106.48 79.0957 108.65 79.2708 109.196 79.2671C110.404 79.2579 111.589 78.9436 112.76 78.6828C112.098 78.0599 111.265 77.5079 110.383 77.2895C110.078 77.2149 109.648 77.1578 109.192 77.1578C108.335 77.1578 107.391 77.3596 107.045 78.0194ZM170.75 84.8615C170.988 85.5904 171.745 87.6103 172.828 87.3698C174.023 87.1035 173.367 84.6449 173.117 83.9575C172.597 82.5356 171.733 81.1156 170.758 79.9665C170.318 81.58 170.228 83.259 170.75 84.8615ZM93.4458 84.3178C93.2022 85.0071 92.5684 87.4721 93.766 87.7273C94.8501 87.9577 95.5891 85.9313 95.8198 85.2015C96.3281 83.5926 96.223 81.9164 95.7672 80.3056C94.803 81.4639 93.9524 82.8904 93.4458 84.3178ZM162.225 80.9193C161.218 81.0189 160.216 81.5017 159.398 82.0915C160.631 82.5485 161.88 83.0729 163.186 83.2719C163.772 83.3613 165.908 83.5272 165.796 82.4232C165.678 81.252 163.687 80.9037 162.593 80.9037C162.454 80.9037 162.329 80.9092 162.225 80.9193ZM100.751 82.7181C100.651 83.823 102.785 83.6377 103.369 83.5428C104.674 83.3318 105.917 82.7964 107.147 82.3274C106.322 81.745 105.317 81.2713 104.31 81.1819C104.216 81.1737 104.106 81.1691 103.984 81.1691C102.9 81.1691 100.861 81.5294 100.751 82.7181ZM164.824 86.7681C166.128 87.4739 167.42 88.342 168.859 88.7419C169.5 88.9188 171.676 89.4146 171.651 88.178C171.627 87.0224 169.866 86.3709 168.999 86.1405C168.609 86.0373 168.21 85.9903 167.81 85.9903C166.778 85.9903 165.738 86.3036 164.824 86.7681ZM97.5838 86.4631C96.7175 86.7017 94.9626 87.368 94.9488 88.5244C94.935 89.762 97.1059 89.2469 97.7462 89.0635C99.1818 88.6507 100.466 87.7716 101.763 87.0528C100.859 86.604 99.8323 86.3027 98.8156 86.3027C98.4004 86.3027 97.987 86.3525 97.5838 86.4631ZM176.398 91.2687C176.514 92.2012 176.838 94.5225 178.082 94.692C179.427 94.8772 179.304 92.1597 179.205 91.4216C178.963 89.6339 178.136 87.9393 177.306 86.37C176.611 87.8812 176.194 89.5989 176.398 91.2687ZM87.4256 91.8363C87.3324 92.5763 87.2346 95.2947 88.5771 95.0966C89.8198 94.915 90.1243 92.5919 90.2304 91.6584C90.4205 89.9868 89.9887 88.2729 89.2773 86.7681C88.4627 88.3448 87.6507 90.0468 87.4256 91.8363ZM169.754 92.591C170.944 93.5798 172.175 94.61 173.544 95.3334C174.177 95.6679 176.622 96.7294 176.813 95.3371C176.981 94.1004 175.185 93.0398 174.297 92.6518C173.594 92.344 172.843 92.2114 172.087 92.2114C171.3 92.2114 170.506 92.3551 169.754 92.591ZM92.3433 93.0223C91.4603 93.4176 89.6732 94.4948 89.854 95.7305C90.056 97.1202 92.4918 96.0365 93.121 95.6965C94.4828 94.962 95.7063 93.9198 96.8854 92.92C96.1501 92.697 95.3769 92.5615 94.6083 92.5615C93.8324 92.5615 93.0629 92.6988 92.3433 93.0223ZM181.185 99.5354C181.135 100.459 181.126 103.601 182.655 103.44C184.046 103.292 184.193 100.396 184.144 99.4387C184.055 97.7247 183.657 95.9821 183.085 94.3686C182.035 95.9019 181.286 97.6556 181.185 99.5354ZM82.5596 99.8976C82.5199 100.856 82.6906 103.75 84.0847 103.886C85.6144 104.033 85.5766 100.892 85.5185 99.9685C85.4004 98.0887 84.6365 96.3433 83.5727 94.8192C83.0135 96.4373 82.6316 98.1827 82.5596 99.8976ZM173.898 99.5326C174.939 100.759 175.991 102.028 177.239 103.044C177.838 103.534 180.258 105.274 180.821 103.892C181.392 102.488 179.314 100.81 178.336 100.231C177.386 99.6709 176.225 99.4534 175.097 99.4534C174.69 99.4534 174.286 99.482 173.898 99.5326ZM88.3741 100.638C87.4007 101.225 85.3386 102.923 85.9235 104.322C86.4974 105.698 88.9018 103.936 89.4969 103.442C90.7342 102.413 91.7758 101.135 92.8046 99.8994C92.4429 99.8552 92.0665 99.8303 91.6854 99.8303C90.533 99.8303 89.3419 100.056 88.3741 100.638ZM184.56 109.09C184.322 110.063 183.712 113.153 185.245 113.442C186.675 113.712 187.5 110.829 187.663 109.871C187.988 107.954 187.948 105.86 187.604 103.947C186.174 105.376 185.046 107.102 184.56 109.09ZM79.1357 110.361C79.3064 111.318 80.1571 114.193 81.5853 113.912C83.115 113.609 82.4766 110.521 82.2302 109.554C81.7265 107.569 80.5833 105.852 79.1412 104.437C78.8128 106.353 78.7934 108.448 79.1357 110.361ZM179.687 111.863C180.237 112.523 182.187 114.679 183.19 113.667C184.369 112.475 182.367 110.032 181.545 109.257C180.32 108.104 178.52 107.614 176.89 107.518C177.76 108.995 178.587 110.545 179.687 111.863ZM85.2472 109.692C84.4316 110.475 82.4517 112.934 83.6428 114.117C84.654 115.121 86.5842 112.946 87.1285 112.282C88.2172 110.953 89.0282 109.396 89.8863 107.911C88.256 108.023 86.4614 108.529 85.2472 109.692ZM186.312 119.245C185.813 120.21 184.199 123.741 185.89 124.373C187.404 124.936 188.901 121.974 189.281 120.929C189.968 119.045 190.343 116.92 190.377 114.91C188.721 116.014 187.238 117.456 186.312 119.245ZM77.6161 121.435C78.0064 122.475 79.5306 125.424 81.0382 124.845C82.7238 124.199 81.0797 120.684 80.5713 119.724C79.6275 117.943 78.1319 116.515 76.4665 115.426C76.5182 117.435 76.9131 119.556 77.6161 121.435ZM180.547 121.721C180.976 122.496 182.596 125.092 183.772 124.049C185.071 122.898 183.645 120.199 182.908 119.155C181.875 117.688 180.088 116.795 178.409 116.35C179.047 118.163 179.617 120.034 180.547 121.721ZM83.9722 119.603C83.247 120.652 81.8436 123.365 83.1547 124.503C84.3403 125.536 85.9365 122.927 86.3563 122.147C87.2724 120.452 87.8251 118.576 88.447 116.757C86.7715 117.216 84.9935 118.127 83.9722 119.603ZM178.96 130.957C179.2 131.964 180.603 136.17 182.224 134.81C183.663 133.602 182.713 130.364 181.924 129.057C181.057 127.623 179.619 126.483 178.147 125.745C178.291 127.475 178.555 129.268 178.96 130.957ZM85.048 129.496C84.2692 130.808 83.3494 134.057 84.7998 135.251C86.4328 136.595 87.7965 132.378 88.029 131.369C88.4174 129.677 88.6656 127.881 88.7948 126.147C87.3287 126.9 85.9023 128.053 85.048 129.496ZM186.079 130.148C185.322 131.022 184.598 131.959 184.148 133.041C183.848 133.762 183.339 135.213 184.166 135.769C184.983 136.319 186.259 135.387 186.856 134.87C187.702 134.14 188.334 133.19 188.88 132.22C189.816 130.563 190.42 128.739 190.925 126.905C189.126 127.613 187.359 128.665 186.079 130.148ZM78.1199 132.721C78.6762 133.686 79.3147 134.631 80.1672 135.353C80.7706 135.865 82.0531 136.784 82.8659 136.227C83.688 135.665 83.1658 134.217 82.8595 133.499C82.4 132.422 81.6674 131.491 80.9035 130.623C79.609 129.151 77.832 128.116 76.0273 127.425C76.5496 129.255 77.1695 131.072 78.1199 132.721ZM175.524 140.363C175.487 141.551 175.731 146.026 177.685 145.669C179.628 145.314 179.467 141.564 179.171 140.203C178.741 138.224 177.407 136.487 175.868 135.246C175.762 136.955 175.576 138.65 175.524 140.363ZM87.9008 140.617C87.6175 141.98 87.4911 145.732 89.437 146.067C91.3939 146.407 91.5978 141.93 91.5507 140.743C91.4815 139.031 91.2813 137.336 91.1595 135.63C89.6316 136.886 88.3132 138.634 87.9008 140.617ZM182.628 142C181.709 142.765 180.774 143.542 180.128 144.572C179.714 145.23 179.064 146.539 179.884 147.157C180.69 147.766 182.104 147.114 182.844 146.696C183.859 146.121 184.717 145.349 185.507 144.489C186.827 143.049 187.994 141.248 188.827 139.47C186.644 139.831 184.359 140.56 182.628 142ZM81.6056 144.959C82.4028 145.811 83.2673 146.575 84.2877 147.141C85.0304 147.553 86.4504 148.19 87.2512 147.576C88.0659 146.951 87.4035 145.647 86.9837 144.993C86.3277 143.968 85.3866 143.2 84.4602 142.443C82.7165 141.018 80.4255 140.311 78.2389 139.971C79.0886 141.739 80.2705 143.531 81.6056 144.959ZM169.598 150.423C169.383 151.557 168.904 155.745 170.956 155.456C172.948 155.178 173.597 151.724 173.6 150.114C173.603 148.02 172.643 145.95 171.378 144.339C170.776 146.359 169.992 148.342 169.598 150.423ZM93.5621 150.475C93.5796 152.087 94.2605 155.533 96.2552 155.795C98.309 156.064 97.7924 151.88 97.5672 150.749C97.1539 148.671 96.3521 146.696 95.7312 144.68C94.481 146.304 93.5399 148.381 93.5621 150.475ZM177.083 152.788C175.995 153.282 174.881 153.826 173.948 154.592C173.276 155.144 172.014 156.334 172.474 157.338C172.927 158.327 174.581 158.121 175.408 157.946C176.542 157.708 177.601 157.184 178.576 156.565C180.489 155.35 182.297 153.683 183.701 151.888C183.22 151.854 182.726 151.835 182.227 151.835C180.47 151.835 178.648 152.079 177.083 152.788ZM83.4776 152.343C84.8985 154.123 86.7207 155.773 88.6435 156.97C89.6261 157.582 90.688 158.095 91.8247 158.325C92.6533 158.492 94.3085 158.683 94.7532 157.689C95.2034 156.681 93.933 155.503 93.2539 154.957C92.3137 154.2 91.1955 153.665 90.1031 153.181C88.5835 152.509 86.8268 152.275 85.1245 152.275C84.5663 152.275 84.0137 152.299 83.4776 152.343ZM161.145 158.712C160.771 159.72 159.467 163.192 161.309 163.626C162.304 163.863 163.334 162.929 163.892 162.206C164.637 161.243 165.229 160.093 165.539 158.907C166.085 156.823 165.585 154.35 164.69 152.433C163.536 154.529 161.988 156.442 161.145 158.712ZM101.702 159.195C102.024 160.379 102.624 161.525 103.379 162.48C103.944 163.198 104.982 164.122 105.975 163.877C107.812 163.425 106.478 159.966 106.093 158.96C105.231 156.699 103.666 154.8 102.493 152.715C101.615 154.64 101.138 157.117 101.702 159.195ZM151.196 163.716C150.446 164.619 147.816 168.081 149.515 169.234C150.44 169.861 151.84 169.085 152.612 168.563C153.596 167.896 154.378 166.889 155.003 165.88C156.258 163.854 156.378 161.153 155.958 158.844C154.273 160.338 152.636 161.978 151.196 163.716ZM112.301 166.071C112.935 167.077 113.725 168.077 114.717 168.733C115.494 169.249 116.9 170.012 117.819 169.378C119.508 168.21 116.846 164.772 116.088 163.874C114.632 162.15 112.982 160.524 111.281 159.046C110.883 161.36 111.029 164.058 112.301 166.071ZM168.845 162.478C166.944 162.735 164.361 163.209 163 164.738C161.977 165.888 162.866 166.859 164.084 167.172C166.229 167.724 168.39 167.073 170.375 166.258C172.104 165.549 173.981 164.518 175.435 163.317C173.782 162.796 171.985 162.388 170.225 162.388C169.761 162.388 169.3 162.417 168.845 162.478ZM91.8478 163.695C93.3111 164.882 95.1979 165.896 96.9325 166.59C98.9263 167.387 101.092 168.019 103.232 167.448C104.446 167.124 105.328 166.143 104.295 165.003C102.919 163.485 100.332 163.037 98.4299 162.795C98.0082 162.742 97.5811 162.718 97.153 162.718C95.3575 162.718 93.5279 163.148 91.8478 163.695ZM138.582 167.573H134.467L137.797 169.99L136.525 173.899L139.855 171.484L143.185 173.899L141.913 169.99L145.243 167.573H141.127L139.855 163.664L138.582 167.573ZM125.826 167.573H121.709L125.04 169.99L123.767 173.899L127.097 171.484L130.428 173.899L129.156 169.99L132.485 167.573H128.369L127.097 163.664L125.826 167.573ZM153.704 170.117C152.722 170.213 151.615 170.363 150.829 171.033C149.655 172.034 150.535 173.176 151.621 173.734C155.455 175.707 160.331 174.219 164.092 172.789C162.088 171.495 159.774 170.476 157.414 170.148C156.779 170.06 156.146 170.022 155.513 170.022C154.91 170.022 154.309 170.057 153.704 170.117ZM109.93 170.363C107.57 170.712 105.268 171.752 103.276 173.064C107.05 174.46 111.937 175.904 115.753 173.897C116.836 173.327 117.706 172.179 116.521 171.188C115.729 170.525 114.621 170.385 113.639 170.297C113.082 170.247 112.527 170.219 111.973 170.219C111.291 170.219 110.611 170.262 109.93 170.363Z" fill="url(#paint8_linear_1681_5477)"/>
<path d="M145.964 153.397L143.541 150.985L145.964 148.574L148.387 150.985L145.964 153.397Z" fill="url(#paint9_linear_1681_5477)"/>
<path d="M133.476 153.397L131.054 150.985L133.476 148.574L135.9 150.985L133.476 153.397Z" fill="url(#paint10_linear_1681_5477)"/>
<path d="M120.989 153.397L118.566 150.985L120.989 148.574L123.412 150.985L120.989 153.397Z" fill="url(#paint11_linear_1681_5477)"/>
<path d="M129.683 85.4871H133.418L134.572 81.9152L135.726 85.4871H139.461L136.439 87.6951L137.593 91.2664L134.572 89.0584L131.549 91.2664L132.705 87.6951L129.683 85.4871Z" fill="url(#paint12_linear_1681_5477)"/>
<path d="M141.54 90.1486H144.155L144.963 87.648L145.771 90.1486H148.386L146.271 91.6938L147.078 94.1943L144.963 92.6491L142.848 94.1943L143.656 91.6938L141.54 90.1486Z" fill="url(#paint13_linear_1681_5477)"/>
<path d="M120.758 90.1486H123.372L124.18 87.648L124.988 90.1486H127.602L125.488 91.6938L126.296 94.1943L124.18 92.6491L122.065 94.1943L122.873 91.6938L120.758 90.1486Z" fill="url(#paint14_linear_1681_5477)"/>
<defs>
<filter id="filter0_f_1681_5477" x="-0.000656128" y="-0.000167847" width="258.882" height="262.688" filterUnits="userSpaceOnUse" color-interpolation-filters="sRGB">
<feFlood flood-opacity="0" result="BackgroundImageFix"/>
<feBlend mode="normal" in="SourceGraphic" in2="BackgroundImageFix" result="shape"/>
<feGaussianBlur stdDeviation="35.0833" result="effect1_foregroundBlur_1681_5477"/>
</filter>
<linearGradient id="paint0_linear_1681_5477" x1="133.804" y1="300.275" x2="133.804" y2="-17.1363" gradientUnits="userSpaceOnUse">
<stop stop-color="#C59158"/>
<stop offset="0.192458" stop-color="#C59158"/>
<stop offset="0.402404" stop-color="#FFF5E6"/>
<stop offset="0.614201" stop-color="#F5DEAF"/>
<stop offset="0.807016" stop-color="#C59158"/>
<stop offset="1" stop-color="#C59158"/>
</linearGradient>
<linearGradient id="paint1_linear_1681_5477" x1="191.315" y1="177.68" x2="74.7515" y2="47.9315" gradientUnits="userSpaceOnUse">
<stop stop-color="#9B6220"/>
<stop offset="0.155" stop-color="#CE8F45"/>
<stop offset="0.315" stop-color="#F9D190"/>
<stop offset="0.435" stop-color="#E7BC60"/>
<stop offset="0.807016" stop-color="#D59347"/>
<stop offset="1" stop-color="#9B6220"/>
</linearGradient>
<linearGradient id="paint2_linear_1681_5477" x1="133.477" y1="53.0674" x2="133.477" y2="201.311" gradientUnits="userSpaceOnUse">
<stop stop-color="#625534"/>
<stop offset="0.994647" stop-color="#352D20"/>
</linearGradient>
<linearGradient id="paint3_linear_1681_5477" x1="133.477" y1="53.0674" x2="133.477" y2="201.311" gradientUnits="userSpaceOnUse">
<stop stop-color="white"/>
<stop offset="0.215808" stop-color="white"/>
<stop offset="0.994647" stop-color="#F2DDBE"/>
<stop offset="0.998808" stop-color="#F2DDBE"/>
<stop offset="1" stop-color="#F2DDBE"/>
</linearGradient>
<linearGradient id="paint4_linear_1681_5477" x1="133.475" y1="55.2716" x2="133.475" y2="198.733" gradientUnits="userSpaceOnUse">
<stop stop-color="#625534"/>
<stop offset="0.994647" stop-color="#352D20"/>
</linearGradient>
<linearGradient id="paint5_linear_1681_5477" x1="135.358" y1="199.245" x2="131.925" y2="57.355" gradientUnits="userSpaceOnUse">
<stop stop-color="#393128"/>
<stop offset="1" stop-color="#51401E"/>
</linearGradient>
<linearGradient id="paint6_linear_1681_5477" x1="135.358" y1="199.245" x2="131.925" y2="57.355" gradientUnits="userSpaceOnUse">
<stop stop-color="white"/>
<stop offset="0.215808" stop-color="white"/>
<stop offset="0.994647" stop-color="#F2DDBE"/>
<stop offset="0.998808" stop-color="#F2DDBE"/>
<stop offset="1" stop-color="#F2DDBE"/>
</linearGradient>
<linearGradient id="paint7_linear_1681_5477" x1="160.71" y1="148.147" x2="89.2215" y2="103.249" gradientUnits="userSpaceOnUse">
<stop stop-color="#9B6220"/>
<stop offset="0.192458" stop-color="#9B6220"/>
<stop offset="0.402404" stop-color="#F7CA80"/>
<stop offset="0.614201" stop-color="#E5B651"/>
<stop offset="0.807016" stop-color="#9B6220"/>
<stop offset="1" stop-color="#9B6220"/>
</linearGradient>
<linearGradient id="paint8_linear_1681_5477" x1="134.68" y1="-0.00272517" x2="131.698" y2="284.335" gradientUnits="userSpaceOnUse">
<stop stop-color="#9B6220"/>
<stop offset="0.192458" stop-color="#9B6220"/>
<stop offset="0.402404" stop-color="#F9D190"/>
<stop offset="0.614201" stop-color="#E7BC60"/>
<stop offset="0.807016" stop-color="#9B6220"/>
<stop offset="1" stop-color="#9B6220"/>
</linearGradient>
<linearGradient id="paint9_linear_1681_5477" x1="134.317" y1="49.0575" x2="132.247" y2="247.047" gradientUnits="userSpaceOnUse">
<stop stop-color="#9B6220"/>
<stop offset="0.192458" stop-color="#9B6220"/>
<stop offset="0.402404" stop-color="#F9D190"/>
<stop offset="0.614201" stop-color="#E7BC60"/>
<stop offset="0.807016" stop-color="#9B6220"/>
<stop offset="1" stop-color="#9B6220"/>
</linearGradient>
<linearGradient id="paint10_linear_1681_5477" x1="134.317" y1="49.0575" x2="132.247" y2="247.047" gradientUnits="userSpaceOnUse">
<stop stop-color="#9B6220"/>
<stop offset="0.192458" stop-color="#9B6220"/>
<stop offset="0.402404" stop-color="#F9D190"/>
<stop offset="0.614201" stop-color="#E7BC60"/>
<stop offset="0.807016" stop-color="#9B6220"/>
<stop offset="1" stop-color="#9B6220"/>
</linearGradient>
<linearGradient id="paint11_linear_1681_5477" x1="134.317" y1="49.0575" x2="132.247" y2="247.047" gradientUnits="userSpaceOnUse">
<stop stop-color="#9B6220"/>
<stop offset="0.192458" stop-color="#9B6220"/>
<stop offset="0.402404" stop-color="#F9D190"/>
<stop offset="0.614201" stop-color="#E7BC60"/>
<stop offset="0.807016" stop-color="#9B6220"/>
<stop offset="1" stop-color="#9B6220"/>
</linearGradient>
<linearGradient id="paint12_linear_1681_5477" x1="134.72" y1="31.7538" x2="132.849" y2="213.388" gradientUnits="userSpaceOnUse">
<stop stop-color="#9B6220"/>
<stop offset="0.192458" stop-color="#9B6220"/>
<stop offset="0.402404" stop-color="#F9D190"/>
<stop offset="0.614201" stop-color="#E7BC60"/>
<stop offset="0.807016" stop-color="#9B6220"/>
<stop offset="1" stop-color="#9B6220"/>
</linearGradient>
<linearGradient id="paint13_linear_1681_5477" x1="134.72" y1="31.7538" x2="132.849" y2="213.388" gradientUnits="userSpaceOnUse">
<stop stop-color="#9B6220"/>
<stop offset="0.192458" stop-color="#9B6220"/>
<stop offset="0.402404" stop-color="#F9D190"/>
<stop offset="0.614201" stop-color="#E7BC60"/>
<stop offset="0.807016" stop-color="#9B6220"/>
<stop offset="1" stop-color="#9B6220"/>
</linearGradient>
<linearGradient id="paint14_linear_1681_5477" x1="134.72" y1="31.7538" x2="132.849" y2="213.388" gradientUnits="userSpaceOnUse">
<stop stop-color="#9B6220"/>
<stop offset="0.192458" stop-color="#9B6220"/>
<stop offset="0.402404" stop-color="#F9D190"/>
<stop offset="0.614201" stop-color="#E7BC60"/>
<stop offset="0.807016" stop-color="#9B6220"/>
<stop offset="1" stop-color="#9B6220"/>
</linearGradient>
</defs>
</svg>
