<svg width="106" height="106" viewBox="0 0 106 106" fill="none" xmlns="http://www.w3.org/2000/svg">
<path d="M105.183 52.625C105.183 57.2128 101.944 61.2609 100.797 65.5114C99.6501 69.8968 100.392 75.0918 98.1659 78.9375C95.872 82.7832 91.0143 84.7398 87.8433 87.9108C84.7398 91.0143 82.7832 95.9394 78.87 98.1659C75.0243 100.392 69.8968 99.6502 65.5114 100.797C61.2609 101.944 57.1454 105.183 52.5576 105.183C47.9697 105.183 43.9216 101.944 39.6712 100.797C35.2857 99.6502 30.0907 100.392 26.3125 98.1659C22.3994 95.9394 20.4428 91.0143 17.3393 87.9108C14.1683 84.7398 9.31059 82.7832 7.01668 78.87C4.79024 75.0918 5.53237 69.8968 4.38542 65.5114C3.23846 61.2609 0 57.2128 0 52.625C0 48.0372 3.23846 43.9216 4.38542 39.6712C5.53237 35.2857 4.79024 30.1582 7.01668 26.3125C9.31059 22.3994 14.1683 20.5103 17.3393 17.3393C20.4428 14.1683 22.3994 9.31058 26.3125 7.01667C30.0907 4.85769 35.2857 5.59984 39.6712 4.38542C43.9216 3.23846 47.9697 0 52.5576 0C57.1454 0 61.2609 3.23846 65.5114 4.38542C69.8968 5.59984 75.0243 4.85769 78.87 7.01667C82.7832 9.31058 84.7398 14.1683 87.8433 17.3393C91.0143 20.5103 95.872 22.3994 98.1659 26.3125C100.392 30.1582 99.6501 35.2857 100.797 39.6712C101.944 43.9216 105.183 48.0372 105.183 52.625Z" fill="#FBB33A"/>
</svg>
