<svg width="816" height="568" viewBox="0 0 816 568" fill="none" xmlns="http://www.w3.org/2000/svg">
<path fill-rule="evenodd" clip-rule="evenodd" d="M815.1 26.9808V540.315C815.1 541.714 814 542.813 812.6 542.813C800.5 542.813 790.6 552.706 790.6 564.798C790.6 566.197 789.5 567.296 788.1 567.296H27C25.6 567.296 24.5 566.197 24.5 564.798C24.5 552.706 14.6 542.813 2.5 542.813C1.1 542.813 0 541.714 0 540.315V26.9808C0 25.5818 1.1 24.4826 2.5 24.4826C14.6 24.4826 24.5 14.6895 24.5 2.49822C24.5 1.19915 25.6 0 27 0H788.1C789.5 0 790.6 1.19915 790.6 2.49822C790.6 14.6895 800.5 24.4826 812.6 24.4826C814 24.4826 815.1 25.5818 815.1 26.9808ZM810.1 29.3791C797.2 28.1799 786.9 17.8873 785.7 4.99644H29.3C28.2 17.8873 17.9 28.1799 5 29.3791V537.917C17.9 539.116 28.2 549.409 29.3 562.299H785.7C786.9 549.409 797.2 539.116 810.1 537.917V29.3791Z" fill="#AD814B"/>
</svg>
