<svg width="790" height="542" viewBox="0 0 790 542" fill="none" xmlns="http://www.w3.org/2000/svg">
<path fill-rule="evenodd" clip-rule="evenodd" d="M765.8 541.514H23.7C23.2 541.514 22.9 541.314 22.7 540.915C19.3 530.522 11 522.328 0.699999 518.93C0.299999 518.73 0 518.331 0 517.931V23.5832C0 23.1835 0.299999 22.7838 0.699999 22.6838C11 19.1863 19.3 10.9922 22.7 0.699502C22.9 0.299787 23.2 0 23.7 0H765.8C766.3 0 766.6 0.299787 766.8 0.699502C770.2 10.9922 778.5 19.1863 788.8 22.6838C789.2 22.7838 789.5 23.1835 789.5 23.5832V517.931C789.5 518.331 789.2 518.73 788.8 518.93C778.5 522.328 770.2 530.522 766.8 540.915C766.6 541.314 766.3 541.514 765.8 541.514ZM24.4 539.516H765.1C768.8 529.223 777.1 520.929 787.5 517.231V24.2827C777.1 20.5853 768.8 12.3912 765.1 1.99858H24.4C20.7 12.3912 12.4 20.5853 2 24.2827V517.231C12.4 520.929 20.7 529.223 24.4 539.516Z" fill="#AD814B"/>
</svg>
