<svg width="183" height="180" viewBox="0 0 183 180" fill="none" xmlns="http://www.w3.org/2000/svg">
<path fill-rule="evenodd" clip-rule="evenodd" d="M182.462 90.9279C180.441 92.747 178.391 94.5662 176.341 96.3564C173.8 98.6087 173.626 99.9081 175.619 102.651C176.86 104.326 178.275 105.885 179.401 107.618C180.759 109.697 180.47 111.025 178.333 112.267C176.398 113.364 174.319 114.172 172.356 115.241C169.815 116.598 169.382 117.84 170.45 120.554C171.288 122.604 172.356 124.596 173.135 126.675C174.002 129.014 173.424 130.198 171.057 130.949C169.006 131.584 166.87 131.873 164.791 132.422C161.701 133.23 161.008 134.241 161.528 137.388C161.845 139.294 162.336 141.171 162.654 143.105C163.174 146.224 162.279 147.408 159.102 147.552C157.168 147.639 155.262 147.408 153.327 147.466C150.18 147.552 149.256 148.418 149.025 151.595C148.88 153.76 148.967 155.926 148.765 158.063C148.563 160.575 147.321 161.528 144.867 161.095C142.903 160.748 140.997 160.142 139.063 159.709C135.684 158.929 134.501 159.68 133.577 163.087C133.086 164.964 132.768 166.898 132.191 168.718C131.353 171.374 129.996 172.009 127.426 170.97C125.809 170.277 124.279 169.353 122.662 168.602C119.052 166.841 117.753 167.274 115.934 170.854C115.328 172.125 114.779 173.424 114.115 174.666C112.238 178.333 110.765 178.68 107.589 176.196C106.174 175.099 104.875 173.886 103.431 172.847C101.063 171.143 99.8215 171.288 97.8869 173.511C96.472 175.128 95.2303 176.918 93.7866 178.506C91.9386 180.499 90.5525 180.499 88.7045 178.506C87.2319 176.918 86.0192 175.128 84.6043 173.511C82.6697 171.288 81.428 171.143 79.0602 172.847C77.6165 173.886 76.2882 175.099 74.9022 176.196C71.6971 178.68 70.2244 178.333 68.3475 174.695C67.6834 173.367 67.1059 171.981 66.4418 170.652C64.7382 167.332 63.4099 166.898 60.0026 168.487C58.3279 169.295 56.7397 170.248 55.0361 170.97C52.4951 172.038 51.1379 171.403 50.3005 168.718C49.7519 167.043 49.4632 165.253 49.0012 163.52C47.9905 159.564 46.8933 158.871 42.9952 159.795C41.2627 160.199 39.559 160.719 37.8265 161.066C35.1411 161.557 33.8995 160.633 33.6685 157.861C33.4952 155.695 33.5818 153.529 33.4375 151.364C33.2065 148.476 32.2824 147.581 29.366 147.466C27.4603 147.408 25.5256 147.639 23.591 147.581C20.1837 147.437 19.2886 146.282 19.8661 142.874C20.1838 141.026 20.6458 139.236 20.9634 137.388C21.4543 134.241 20.7901 133.23 17.6716 132.422C15.8236 131.931 13.9178 131.7 12.0409 131.18C9.03792 130.343 8.37383 128.985 9.55771 126.04C10.3373 124.105 11.348 122.257 12.0987 120.323C13.0805 117.84 12.6184 116.627 10.3084 115.327C8.34491 114.259 6.26591 113.479 4.33128 112.382C1.99239 111.054 1.67476 109.668 3.17627 107.416C4.33128 105.712 5.74619 104.153 6.95894 102.478C8.80696 99.9081 8.63369 98.6087 6.2948 96.5008C4.21579 94.6239 2.10789 92.7759 0 90.9279C0 90.3312 0 89.7344 0 89.1376C1.79026 87.4918 3.52276 85.7593 5.39964 84.2289C8.89354 81.3414 9.06683 80.0709 6.23707 76.4615C5.25531 75.2487 4.2158 74.0648 3.34955 72.7943C1.61704 70.2533 1.93466 68.8384 4.64893 67.3658C6.52582 66.3552 8.54705 65.5755 10.3951 64.536C12.6473 63.2944 13.0805 62.1105 12.1276 59.7139C11.4057 57.7792 10.3662 55.9312 9.58654 54.0255C8.34491 50.9358 8.98021 49.6364 12.1565 48.7702C14.2355 48.1927 16.3434 47.875 18.4224 47.3264C20.5591 46.7778 21.4543 45.334 21.05 43.1106C20.6747 41.1471 20.2415 39.1836 19.895 37.1912C19.2598 33.6107 20.2415 32.3979 23.9087 32.3402C25.9877 32.3113 28.0378 32.3979 30.1168 32.3691C32.1381 32.3113 33.2642 31.2141 33.3797 29.1639C33.4952 26.7673 33.4952 24.3706 33.6973 22.0029C33.8994 19.3464 35.0833 18.4512 37.6821 18.8844C39.7322 19.2309 41.6958 19.8661 43.7171 20.2993C46.7778 20.9345 47.9617 20.2415 48.799 17.2096C49.261 15.6504 49.521 14.0333 49.9252 12.4452C50.9936 8.31606 52.3507 7.68081 56.1334 9.47107C57.6638 10.1929 59.1363 11.0592 60.6956 11.7233C63.4676 12.9361 64.6804 12.5029 66.1241 9.81756C67.1637 7.94067 67.9721 5.91942 69.0694 4.07141C70.3688 1.8769 71.7548 1.55926 73.8627 3.03189C75.6241 4.24465 77.1833 5.74617 78.9159 7.01668C81.3414 8.80694 82.6985 8.63369 84.662 6.38142C86.51 4.27354 88.3002 2.13676 90.1194 0C90.8701 0 91.6113 0 92.3428 0C94.2775 2.22339 96.1543 4.50453 98.1179 6.69904C99.8215 8.57593 101.121 8.72031 103.171 7.24768C104.99 5.97717 106.607 4.41791 108.426 3.1474C110.707 1.53039 112.151 1.84801 113.537 4.24465C114.606 6.12154 115.414 8.1428 116.454 10.0197C117.811 12.4741 119.024 12.8783 121.565 11.81C123.355 11.0592 125.03 10.0774 126.762 9.29781C130.054 7.7963 131.353 8.37381 132.335 11.81C132.855 13.6002 133.172 15.4194 133.663 17.2096C134.529 20.2415 135.713 20.9634 138.745 20.2993C140.767 19.8661 142.759 19.2309 144.78 18.8844C147.408 18.4512 148.563 19.3464 148.794 22.0029C148.967 23.9375 148.852 25.901 148.967 27.8357C149.169 31.6183 150.122 32.4846 153.905 32.4846C155.897 32.4846 157.918 32.2824 159.882 32.4846C162.278 32.7156 163.087 33.8995 162.74 36.325C162.423 38.3751 161.874 40.3964 161.528 42.4465C161.008 45.7094 161.672 46.72 164.906 47.5574C166.985 48.0772 169.122 48.3948 171.143 49.0301C173.367 49.7231 173.973 50.9647 173.164 53.1592C172.414 55.1805 171.374 57.0862 170.537 59.0786C169.295 62.0527 169.786 63.381 172.645 64.8825C174.464 65.8354 176.427 66.5861 178.218 67.6256C180.47 68.925 180.759 70.2533 179.373 72.3901C178.391 73.8916 177.207 75.2487 176.11 76.6347C173.453 80.042 173.655 81.3414 176.889 84.0845C178.824 85.7015 180.614 87.434 182.462 89.1376C182.462 89.7344 182.462 90.3312 182.462 90.9279ZM90.7258 158.929C128.235 158.929 158.871 128.119 158.9 90.3215C158.9 52.3796 128.379 21.5698 90.7258 21.5409C53.1303 21.5409 22.6093 52.2641 22.6093 90.1194C22.5804 128.119 53.0726 158.929 90.7258 158.929Z" fill="url(#paint0_linear_1679_4614)"/>
<defs>
<linearGradient id="paint0_linear_1679_4614" x1="1.08903e+06" y1="-436074" x2="1.2531e+06" y2="-535723" gradientUnits="userSpaceOnUse">
<stop stop-color="#C29332"/>
<stop offset="0.21" stop-color="#D9B350"/>
<stop offset="0.42" stop-color="#F3E8A7"/>
<stop offset="0.56" stop-color="#EED17E"/>
<stop offset="0.65" stop-color="#E4C05D"/>
<stop offset="0.81" stop-color="#CEA645"/>
<stop offset="1" stop-color="#BE8C2C"/>
</linearGradient>
</defs>
</svg>
