<svg width="47" height="47" viewBox="0 0 47 47" fill="none" xmlns="http://www.w3.org/2000/svg">
<path d="M1.58782 0H0V1.58782H1.58782V0Z" fill="black"/>
<path d="M3.17565 0H1.58782V1.58782H3.17565V0Z" fill="black"/>
<path d="M4.76347 0H3.17565V1.58782H4.76347V0Z" fill="black"/>
<path d="M6.35129 0H4.76347V1.58782H6.35129V0Z" fill="black"/>
<path d="M7.93912 0H6.35129V1.58782H7.93912V0Z" fill="black"/>
<path d="M9.52694 0H7.93912V1.58782H9.52694V0Z" fill="black"/>
<path d="M11.1148 0H9.52694V1.58782H11.1148V0Z" fill="black"/>
<path d="M14.2904 0H12.7026V1.58782H14.2904V0Z" fill="black"/>
<path d="M17.4661 0H15.8782V1.58782H17.4661V0Z" fill="black"/>
<path d="M25.4052 0H23.8173V1.58782H25.4052V0Z" fill="black"/>
<path d="M26.993 0H25.4052V1.58782H26.993V0Z" fill="black"/>
<path d="M30.1686 0H28.5808V1.58782H30.1686V0Z" fill="black"/>
<path d="M33.3443 0H31.7565V1.58782H33.3443V0Z" fill="black"/>
<path d="M36.5199 0H34.9321V1.58782H36.5199V0Z" fill="black"/>
<path d="M38.1078 0H36.5199V1.58782H38.1078V0Z" fill="black"/>
<path d="M39.6956 0H38.1078V1.58782H39.6956V0Z" fill="black"/>
<path d="M41.2834 0H39.6956V1.58782H41.2834V0Z" fill="black"/>
<path d="M42.8712 0H41.2834V1.58782H42.8712V0Z" fill="black"/>
<path d="M44.4591 0H42.8712V1.58782H44.4591V0Z" fill="black"/>
<path d="M46.0469 0H44.4591V1.58782H46.0469V0Z" fill="black"/>
<path d="M1.58782 1.58782H0V3.17565H1.58782V1.58782Z" fill="black"/>
<path d="M11.1148 1.58782H9.52694V3.17565H11.1148V1.58782Z" fill="black"/>
<path d="M15.8782 1.58782H14.2904V3.17565H15.8782V1.58782Z" fill="black"/>
<path d="M17.4661 1.58782H15.8782V3.17565H17.4661V1.58782Z" fill="black"/>
<path d="M19.0539 1.58782H17.4661V3.17565H19.0539V1.58782Z" fill="black"/>
<path d="M20.6417 1.58782H19.0539V3.17565H20.6417V1.58782Z" fill="black"/>
<path d="M23.8173 1.58782H22.2295V3.17565H23.8173V1.58782Z" fill="black"/>
<path d="M25.4052 1.58782H23.8173V3.17565H25.4052V1.58782Z" fill="black"/>
<path d="M36.5199 1.58782H34.9321V3.17565H36.5199V1.58782Z" fill="black"/>
<path d="M46.0469 1.58782H44.4591V3.17565H46.0469V1.58782Z" fill="black"/>
<path d="M1.58782 3.17565H0V4.76347H1.58782V3.17565Z" fill="black"/>
<path d="M4.76347 3.17565H3.17565V4.76347H4.76347V3.17565Z" fill="black"/>
<path d="M6.35129 3.17565H4.76347V4.76347H6.35129V3.17565Z" fill="black"/>
<path d="M7.93912 3.17565H6.35129V4.76347H7.93912V3.17565Z" fill="black"/>
<path d="M11.1148 3.17565H9.52694V4.76347H11.1148V3.17565Z" fill="black"/>
<path d="M17.4661 3.17565H15.8782V4.76347H17.4661V3.17565Z" fill="black"/>
<path d="M19.0539 3.17565H17.4661V4.76347H19.0539V3.17565Z" fill="black"/>
<path d="M20.6417 3.17565H19.0539V4.76347H20.6417V3.17565Z" fill="black"/>
<path d="M22.2295 3.17565H20.6417V4.76347H22.2295V3.17565Z" fill="black"/>
<path d="M25.4052 3.17565H23.8173V4.76347H25.4052V3.17565Z" fill="black"/>
<path d="M26.993 3.17565H25.4052V4.76347H26.993V3.17565Z" fill="black"/>
<path d="M31.7565 3.17565H30.1686V4.76347H31.7565V3.17565Z" fill="black"/>
<path d="M33.3443 3.17565H31.7565V4.76347H33.3443V3.17565Z" fill="black"/>
<path d="M36.5199 3.17565H34.9321V4.76347H36.5199V3.17565Z" fill="black"/>
<path d="M39.6956 3.17565H38.1078V4.76347H39.6956V3.17565Z" fill="black"/>
<path d="M41.2834 3.17565H39.6956V4.76347H41.2834V3.17565Z" fill="black"/>
<path d="M42.8712 3.17565H41.2834V4.76347H42.8712V3.17565Z" fill="black"/>
<path d="M46.0469 3.17565H44.4591V4.76347H46.0469V3.17565Z" fill="black"/>
<path d="M1.58782 4.76347H0V6.35129H1.58782V4.76347Z" fill="black"/>
<path d="M4.76347 4.76347H3.17565V6.35129H4.76347V4.76347Z" fill="black"/>
<path d="M6.35129 4.76347H4.76347V6.35129H6.35129V4.76347Z" fill="black"/>
<path d="M7.93912 4.76347H6.35129V6.35129H7.93912V4.76347Z" fill="black"/>
<path d="M11.1148 4.76347H9.52694V6.35129H11.1148V4.76347Z" fill="black"/>
<path d="M14.2904 4.76347H12.7026V6.35129H14.2904V4.76347Z" fill="black"/>
<path d="M15.8782 4.76347H14.2904V6.35129H15.8782V4.76347Z" fill="black"/>
<path d="M17.4661 4.76347H15.8782V6.35129H17.4661V4.76347Z" fill="black"/>
<path d="M19.0539 4.76347H17.4661V6.35129H19.0539V4.76347Z" fill="black"/>
<path d="M22.2295 4.76347H20.6417V6.35129H22.2295V4.76347Z" fill="black"/>
<path d="M26.993 4.76347H25.4052V6.35129H26.993V4.76347Z" fill="black"/>
<path d="M31.7565 4.76347H30.1686V6.35129H31.7565V4.76347Z" fill="black"/>
<path d="M36.5199 4.76347H34.9321V6.35129H36.5199V4.76347Z" fill="black"/>
<path d="M39.6956 4.76347H38.1078V6.35129H39.6956V4.76347Z" fill="black"/>
<path d="M41.2834 4.76347H39.6956V6.35129H41.2834V4.76347Z" fill="black"/>
<path d="M42.8712 4.76347H41.2834V6.35129H42.8712V4.76347Z" fill="black"/>
<path d="M46.0469 4.76347H44.4591V6.35129H46.0469V4.76347Z" fill="black"/>
<path d="M1.58782 6.35129H0V7.93912H1.58782V6.35129Z" fill="black"/>
<path d="M4.76347 6.35129H3.17565V7.93912H4.76347V6.35129Z" fill="black"/>
<path d="M6.35129 6.35129H4.76347V7.93912H6.35129V6.35129Z" fill="black"/>
<path d="M7.93912 6.35129H6.35129V7.93912H7.93912V6.35129Z" fill="black"/>
<path d="M11.1148 6.35129H9.52694V7.93912H11.1148V6.35129Z" fill="black"/>
<path d="M22.2295 6.35129H20.6417V7.93912H22.2295V6.35129Z" fill="black"/>
<path d="M23.8173 6.35129H22.2295V7.93912H23.8173V6.35129Z" fill="black"/>
<path d="M25.4052 6.35129H23.8173V7.93912H25.4052V6.35129Z" fill="black"/>
<path d="M28.5808 6.35129H26.993V7.93912H28.5808V6.35129Z" fill="black"/>
<path d="M36.5199 6.35129H34.9321V7.93912H36.5199V6.35129Z" fill="black"/>
<path d="M39.6956 6.35129H38.1078V7.93912H39.6956V6.35129Z" fill="black"/>
<path d="M41.2834 6.35129H39.6956V7.93912H41.2834V6.35129Z" fill="black"/>
<path d="M42.8712 6.35129H41.2834V7.93912H42.8712V6.35129Z" fill="black"/>
<path d="M46.0469 6.35129H44.4591V7.93912H46.0469V6.35129Z" fill="black"/>
<path d="M1.58782 7.93912H0V9.52694H1.58782V7.93912Z" fill="black"/>
<path d="M11.1148 7.93912H9.52694V9.52694H11.1148V7.93912Z" fill="black"/>
<path d="M14.2904 7.93912H12.7026V9.52694H14.2904V7.93912Z" fill="black"/>
<path d="M15.8782 7.93912H14.2904V9.52694H15.8782V7.93912Z" fill="black"/>
<path d="M17.4661 7.93912H15.8782V9.52694H17.4661V7.93912Z" fill="black"/>
<path d="M19.0539 7.93912H17.4661V9.52694H19.0539V7.93912Z" fill="black"/>
<path d="M20.6417 7.93912H19.0539V9.52694H20.6417V7.93912Z" fill="black"/>
<path d="M22.2295 7.93912H20.6417V9.52694H22.2295V7.93912Z" fill="black"/>
<path d="M25.4052 7.93912H23.8173V9.52694H25.4052V7.93912Z" fill="black"/>
<path d="M26.993 7.93912H25.4052V9.52694H26.993V7.93912Z" fill="black"/>
<path d="M36.5199 7.93912H34.9321V9.52694H36.5199V7.93912Z" fill="black"/>
<path d="M46.0469 7.93912H44.4591V9.52694H46.0469V7.93912Z" fill="black"/>
<path d="M1.58782 9.52694H0V11.1148H1.58782V9.52694Z" fill="black"/>
<path d="M3.17565 9.52694H1.58782V11.1148H3.17565V9.52694Z" fill="black"/>
<path d="M4.76347 9.52694H3.17565V11.1148H4.76347V9.52694Z" fill="black"/>
<path d="M6.35129 9.52694H4.76347V11.1148H6.35129V9.52694Z" fill="black"/>
<path d="M7.93912 9.52694H6.35129V11.1148H7.93912V9.52694Z" fill="black"/>
<path d="M9.52694 9.52694H7.93912V11.1148H9.52694V9.52694Z" fill="black"/>
<path d="M11.1148 9.52694H9.52694V11.1148H11.1148V9.52694Z" fill="black"/>
<path d="M14.2904 9.52694H12.7026V11.1148H14.2904V9.52694Z" fill="black"/>
<path d="M17.4661 9.52694H15.8782V11.1148H17.4661V9.52694Z" fill="black"/>
<path d="M20.6417 9.52694H19.0539V11.1148H20.6417V9.52694Z" fill="black"/>
<path d="M23.8173 9.52694H22.2295V11.1148H23.8173V9.52694Z" fill="black"/>
<path d="M26.993 9.52694H25.4052V11.1148H26.993V9.52694Z" fill="black"/>
<path d="M30.1686 9.52694H28.5808V11.1148H30.1686V9.52694Z" fill="black"/>
<path d="M33.3443 9.52694H31.7565V11.1148H33.3443V9.52694Z" fill="black"/>
<path d="M36.5199 9.52694H34.9321V11.1148H36.5199V9.52694Z" fill="black"/>
<path d="M38.1078 9.52694H36.5199V11.1148H38.1078V9.52694Z" fill="black"/>
<path d="M39.6956 9.52694H38.1078V11.1148H39.6956V9.52694Z" fill="black"/>
<path d="M41.2834 9.52694H39.6956V11.1148H41.2834V9.52694Z" fill="black"/>
<path d="M42.8712 9.52694H41.2834V11.1148H42.8712V9.52694Z" fill="black"/>
<path d="M44.4591 9.52694H42.8712V11.1148H44.4591V9.52694Z" fill="black"/>
<path d="M46.0469 9.52694H44.4591V11.1148H46.0469V9.52694Z" fill="black"/>
<path d="M15.8782 11.1148H14.2904V12.7026H15.8782V11.1148Z" fill="black"/>
<path d="M23.8173 11.1148H22.2295V12.7026H23.8173V11.1148Z" fill="black"/>
<path d="M28.5808 11.1148H26.993V12.7026H28.5808V11.1148Z" fill="black"/>
<path d="M30.1686 11.1148H28.5808V12.7026H30.1686V11.1148Z" fill="black"/>
<path d="M31.7565 11.1148H30.1686V12.7026H31.7565V11.1148Z" fill="black"/>
<path d="M33.3443 11.1148H31.7565V12.7026H33.3443V11.1148Z" fill="black"/>
<path d="M9.52694 12.7026H7.93912V14.2904H9.52694V12.7026Z" fill="black"/>
<path d="M11.1148 12.7026H9.52694V14.2904H11.1148V12.7026Z" fill="black"/>
<path d="M14.2904 12.7026H12.7026V14.2904H14.2904V12.7026Z" fill="black"/>
<path d="M15.8782 12.7026H14.2904V14.2904H15.8782V12.7026Z" fill="black"/>
<path d="M19.0539 12.7026H17.4661V14.2904H19.0539V12.7026Z" fill="black"/>
<path d="M20.6417 12.7026H19.0539V14.2904H20.6417V12.7026Z" fill="black"/>
<path d="M23.8173 12.7026H22.2295V14.2904H23.8173V12.7026Z" fill="black"/>
<path d="M25.4052 12.7026H23.8173V14.2904H25.4052V12.7026Z" fill="black"/>
<path d="M26.993 12.7026H25.4052V14.2904H26.993V12.7026Z" fill="black"/>
<path d="M28.5808 12.7026H26.993V14.2904H28.5808V12.7026Z" fill="black"/>
<path d="M34.9321 12.7026H33.3443V14.2904H34.9321V12.7026Z" fill="black"/>
<path d="M38.1078 12.7026H36.5199V14.2904H38.1078V12.7026Z" fill="black"/>
<path d="M41.2834 12.7026H39.6956V14.2904H41.2834V12.7026Z" fill="black"/>
<path d="M46.0469 12.7026H44.4591V14.2904H46.0469V12.7026Z" fill="black"/>
<path d="M1.58782 14.2904H0V15.8782H1.58782V14.2904Z" fill="black"/>
<path d="M6.35129 14.2904H4.76347V15.8782H6.35129V14.2904Z" fill="black"/>
<path d="M12.7026 14.2904H11.1148V15.8782H12.7026V14.2904Z" fill="black"/>
<path d="M14.2904 14.2904H12.7026V15.8782H14.2904V14.2904Z" fill="black"/>
<path d="M15.8782 14.2904H14.2904V15.8782H15.8782V14.2904Z" fill="black"/>
<path d="M25.4052 14.2904H23.8173V15.8782H25.4052V14.2904Z" fill="black"/>
<path d="M28.5808 14.2904H26.993V15.8782H28.5808V14.2904Z" fill="black"/>
<path d="M31.7565 14.2904H30.1686V15.8782H31.7565V14.2904Z" fill="black"/>
<path d="M34.9321 14.2904H33.3443V15.8782H34.9321V14.2904Z" fill="black"/>
<path d="M1.58782 15.8782H0V17.4661H1.58782V15.8782Z" fill="black"/>
<path d="M6.35129 15.8782H4.76347V17.4661H6.35129V15.8782Z" fill="black"/>
<path d="M7.93912 15.8782H6.35129V17.4661H7.93912V15.8782Z" fill="black"/>
<path d="M11.1148 15.8782H9.52694V17.4661H11.1148V15.8782Z" fill="black"/>
<path d="M12.7026 15.8782H11.1148V17.4661H12.7026V15.8782Z" fill="black"/>
<path d="M14.2904 15.8782H12.7026V17.4661H14.2904V15.8782Z" fill="black"/>
<path d="M17.4661 15.8782H15.8782V17.4661H17.4661V15.8782Z" fill="black"/>
<path d="M20.6417 15.8782H19.0539V17.4661H20.6417V15.8782Z" fill="black"/>
<path d="M25.4052 15.8782H23.8173V17.4661H25.4052V15.8782Z" fill="black"/>
<path d="M30.1686 15.8782H28.5808V17.4661H30.1686V15.8782Z" fill="black"/>
<path d="M33.3443 15.8782H31.7565V17.4661H33.3443V15.8782Z" fill="black"/>
<path d="M36.5199 15.8782H34.9321V17.4661H36.5199V15.8782Z" fill="black"/>
<path d="M39.6956 15.8782H38.1078V17.4661H39.6956V15.8782Z" fill="black"/>
<path d="M42.8712 15.8782H41.2834V17.4661H42.8712V15.8782Z" fill="black"/>
<path d="M46.0469 15.8782H44.4591V17.4661H46.0469V15.8782Z" fill="black"/>
<path d="M9.52694 17.4661H7.93912V19.0539H9.52694V17.4661Z" fill="black"/>
<path d="M17.4661 17.4661H15.8782V19.0539H17.4661V17.4661Z" fill="black"/>
<path d="M22.2295 17.4661H20.6417V19.0539H22.2295V17.4661Z" fill="black"/>
<path d="M23.8173 17.4661H22.2295V19.0539H23.8173V17.4661Z" fill="black"/>
<path d="M26.993 17.4661H25.4052V19.0539H26.993V17.4661Z" fill="black"/>
<path d="M30.1686 17.4661H28.5808V19.0539H30.1686V17.4661Z" fill="black"/>
<path d="M31.7565 17.4661H30.1686V19.0539H31.7565V17.4661Z" fill="black"/>
<path d="M33.3443 17.4661H31.7565V19.0539H33.3443V17.4661Z" fill="black"/>
<path d="M34.9321 17.4661H33.3443V19.0539H34.9321V17.4661Z" fill="black"/>
<path d="M38.1078 17.4661H36.5199V19.0539H38.1078V17.4661Z" fill="black"/>
<path d="M39.6956 17.4661H38.1078V19.0539H39.6956V17.4661Z" fill="black"/>
<path d="M4.76347 19.0539H3.17565V20.6417H4.76347V19.0539Z" fill="black"/>
<path d="M11.1148 19.0539H9.52694V20.6417H11.1148V19.0539Z" fill="black"/>
<path d="M14.2904 19.0539H12.7026V20.6417H14.2904V19.0539Z" fill="black"/>
<path d="M15.8782 19.0539H14.2904V20.6417H15.8782V19.0539Z" fill="black"/>
<path d="M17.4661 19.0539H15.8782V20.6417H17.4661V19.0539Z" fill="black"/>
<path d="M19.0539 19.0539H17.4661V20.6417H19.0539V19.0539Z" fill="black"/>
<path d="M20.6417 19.0539H19.0539V20.6417H20.6417V19.0539Z" fill="black"/>
<path d="M23.8173 19.0539H22.2295V20.6417H23.8173V19.0539Z" fill="black"/>
<path d="M25.4052 19.0539H23.8173V20.6417H25.4052V19.0539Z" fill="black"/>
<path d="M30.1686 19.0539H28.5808V20.6417H30.1686V19.0539Z" fill="black"/>
<path d="M31.7565 19.0539H30.1686V20.6417H31.7565V19.0539Z" fill="black"/>
<path d="M36.5199 19.0539H34.9321V20.6417H36.5199V19.0539Z" fill="black"/>
<path d="M39.6956 19.0539H38.1078V20.6417H39.6956V19.0539Z" fill="black"/>
<path d="M42.8712 19.0539H41.2834V20.6417H42.8712V19.0539Z" fill="black"/>
<path d="M46.0469 19.0539H44.4591V20.6417H46.0469V19.0539Z" fill="black"/>
<path d="M1.58782 20.6417H0V22.2295H1.58782V20.6417Z" fill="black"/>
<path d="M3.17565 20.6417H1.58782V22.2295H3.17565V20.6417Z" fill="black"/>
<path d="M4.76347 20.6417H3.17565V22.2295H4.76347V20.6417Z" fill="black"/>
<path d="M6.35129 20.6417H4.76347V22.2295H6.35129V20.6417Z" fill="black"/>
<path d="M7.93912 20.6417H6.35129V22.2295H7.93912V20.6417Z" fill="black"/>
<path d="M9.52694 20.6417H7.93912V22.2295H9.52694V20.6417Z" fill="black"/>
<path d="M25.4052 20.6417H23.8173V22.2295H25.4052V20.6417Z" fill="black"/>
<path d="M26.993 20.6417H25.4052V22.2295H26.993V20.6417Z" fill="black"/>
<path d="M30.1686 20.6417H28.5808V22.2295H30.1686V20.6417Z" fill="black"/>
<path d="M31.7565 20.6417H30.1686V22.2295H31.7565V20.6417Z" fill="black"/>
<path d="M34.9321 20.6417H33.3443V22.2295H34.9321V20.6417Z" fill="black"/>
<path d="M36.5199 20.6417H34.9321V22.2295H36.5199V20.6417Z" fill="black"/>
<path d="M38.1078 20.6417H36.5199V22.2295H38.1078V20.6417Z" fill="black"/>
<path d="M44.4591 20.6417H42.8712V22.2295H44.4591V20.6417Z" fill="black"/>
<path d="M46.0469 20.6417H44.4591V22.2295H46.0469V20.6417Z" fill="black"/>
<path d="M3.17565 22.2295H1.58782V23.8173H3.17565V22.2295Z" fill="black"/>
<path d="M6.35129 22.2295H4.76347V23.8173H6.35129V22.2295Z" fill="black"/>
<path d="M7.93912 22.2295H6.35129V23.8173H7.93912V22.2295Z" fill="black"/>
<path d="M9.52694 22.2295H7.93912V23.8173H9.52694V22.2295Z" fill="black"/>
<path d="M11.1148 22.2295H9.52694V23.8173H11.1148V22.2295Z" fill="black"/>
<path d="M12.7026 22.2295H11.1148V23.8173H12.7026V22.2295Z" fill="black"/>
<path d="M15.8782 22.2295H14.2904V23.8173H15.8782V22.2295Z" fill="black"/>
<path d="M19.0539 22.2295H17.4661V23.8173H19.0539V22.2295Z" fill="black"/>
<path d="M25.4052 22.2295H23.8173V23.8173H25.4052V22.2295Z" fill="black"/>
<path d="M26.993 22.2295H25.4052V23.8173H26.993V22.2295Z" fill="black"/>
<path d="M33.3443 22.2295H31.7565V23.8173H33.3443V22.2295Z" fill="black"/>
<path d="M36.5199 22.2295H34.9321V23.8173H36.5199V22.2295Z" fill="black"/>
<path d="M39.6956 22.2295H38.1078V23.8173H39.6956V22.2295Z" fill="black"/>
<path d="M41.2834 22.2295H39.6956V23.8173H41.2834V22.2295Z" fill="black"/>
<path d="M46.0469 22.2295H44.4591V23.8173H46.0469V22.2295Z" fill="black"/>
<path d="M3.17565 23.8173H1.58782V25.4052H3.17565V23.8173Z" fill="black"/>
<path d="M6.35129 23.8173H4.76347V25.4052H6.35129V23.8173Z" fill="black"/>
<path d="M14.2904 23.8173H12.7026V25.4052H14.2904V23.8173Z" fill="black"/>
<path d="M15.8782 23.8173H14.2904V25.4052H15.8782V23.8173Z" fill="black"/>
<path d="M19.0539 23.8173H17.4661V25.4052H19.0539V23.8173Z" fill="black"/>
<path d="M22.2295 23.8173H20.6417V25.4052H22.2295V23.8173Z" fill="black"/>
<path d="M23.8173 23.8173H22.2295V25.4052H23.8173V23.8173Z" fill="black"/>
<path d="M26.993 23.8173H25.4052V25.4052H26.993V23.8173Z" fill="black"/>
<path d="M28.5808 23.8173H26.993V25.4052H28.5808V23.8173Z" fill="black"/>
<path d="M31.7565 23.8173H30.1686V25.4052H31.7565V23.8173Z" fill="black"/>
<path d="M34.9321 23.8173H33.3443V25.4052H34.9321V23.8173Z" fill="black"/>
<path d="M36.5199 23.8173H34.9321V25.4052H36.5199V23.8173Z" fill="black"/>
<path d="M39.6956 23.8173H38.1078V25.4052H39.6956V23.8173Z" fill="black"/>
<path d="M41.2834 23.8173H39.6956V25.4052H41.2834V23.8173Z" fill="black"/>
<path d="M44.4591 23.8173H42.8712V25.4052H44.4591V23.8173Z" fill="black"/>
<path d="M1.58782 25.4052H0V26.993H1.58782V25.4052Z" fill="black"/>
<path d="M4.76347 25.4052H3.17565V26.993H4.76347V25.4052Z" fill="black"/>
<path d="M7.93912 25.4052H6.35129V26.993H7.93912V25.4052Z" fill="black"/>
<path d="M11.1148 25.4052H9.52694V26.993H11.1148V25.4052Z" fill="black"/>
<path d="M17.4661 25.4052H15.8782V26.993H17.4661V25.4052Z" fill="black"/>
<path d="M20.6417 25.4052H19.0539V26.993H20.6417V25.4052Z" fill="black"/>
<path d="M23.8173 25.4052H22.2295V26.993H23.8173V25.4052Z" fill="black"/>
<path d="M25.4052 25.4052H23.8173V26.993H25.4052V25.4052Z" fill="black"/>
<path d="M26.993 25.4052H25.4052V26.993H26.993V25.4052Z" fill="black"/>
<path d="M31.7565 25.4052H30.1686V26.993H31.7565V25.4052Z" fill="black"/>
<path d="M33.3443 25.4052H31.7565V26.993H33.3443V25.4052Z" fill="black"/>
<path d="M34.9321 25.4052H33.3443V26.993H34.9321V25.4052Z" fill="black"/>
<path d="M38.1078 25.4052H36.5199V26.993H38.1078V25.4052Z" fill="black"/>
<path d="M41.2834 25.4052H39.6956V26.993H41.2834V25.4052Z" fill="black"/>
<path d="M3.17565 26.993H1.58782V28.5808H3.17565V26.993Z" fill="black"/>
<path d="M4.76347 26.993H3.17565V28.5808H4.76347V26.993Z" fill="black"/>
<path d="M12.7026 26.993H11.1148V28.5808H12.7026V26.993Z" fill="black"/>
<path d="M17.4661 26.993H15.8782V28.5808H17.4661V26.993Z" fill="black"/>
<path d="M20.6417 26.993H19.0539V28.5808H20.6417V26.993Z" fill="black"/>
<path d="M22.2295 26.993H20.6417V28.5808H22.2295V26.993Z" fill="black"/>
<path d="M25.4052 26.993H23.8173V28.5808H25.4052V26.993Z" fill="black"/>
<path d="M26.993 26.993H25.4052V28.5808H26.993V26.993Z" fill="black"/>
<path d="M30.1686 26.993H28.5808V28.5808H30.1686V26.993Z" fill="black"/>
<path d="M31.7565 26.993H30.1686V28.5808H31.7565V26.993Z" fill="black"/>
<path d="M36.5199 26.993H34.9321V28.5808H36.5199V26.993Z" fill="black"/>
<path d="M1.58782 28.5808H0V30.1686H1.58782V28.5808Z" fill="black"/>
<path d="M3.17565 28.5808H1.58782V30.1686H3.17565V28.5808Z" fill="black"/>
<path d="M4.76347 28.5808H3.17565V30.1686H4.76347V28.5808Z" fill="black"/>
<path d="M6.35129 28.5808H4.76347V30.1686H6.35129V28.5808Z" fill="black"/>
<path d="M7.93912 28.5808H6.35129V30.1686H7.93912V28.5808Z" fill="black"/>
<path d="M11.1148 28.5808H9.52694V30.1686H11.1148V28.5808Z" fill="black"/>
<path d="M12.7026 28.5808H11.1148V30.1686H12.7026V28.5808Z" fill="black"/>
<path d="M14.2904 28.5808H12.7026V30.1686H14.2904V28.5808Z" fill="black"/>
<path d="M22.2295 28.5808H20.6417V30.1686H22.2295V28.5808Z" fill="black"/>
<path d="M25.4052 28.5808H23.8173V30.1686H25.4052V28.5808Z" fill="black"/>
<path d="M28.5808 28.5808H26.993V30.1686H28.5808V28.5808Z" fill="black"/>
<path d="M30.1686 28.5808H28.5808V30.1686H30.1686V28.5808Z" fill="black"/>
<path d="M31.7565 28.5808H30.1686V30.1686H31.7565V28.5808Z" fill="black"/>
<path d="M33.3443 28.5808H31.7565V30.1686H33.3443V28.5808Z" fill="black"/>
<path d="M38.1078 28.5808H36.5199V30.1686H38.1078V28.5808Z" fill="black"/>
<path d="M39.6956 28.5808H38.1078V30.1686H39.6956V28.5808Z" fill="black"/>
<path d="M1.58782 30.1686H0V31.7565H1.58782V30.1686Z" fill="black"/>
<path d="M9.52694 30.1686H7.93912V31.7565H9.52694V30.1686Z" fill="black"/>
<path d="M14.2904 30.1686H12.7026V31.7565H14.2904V30.1686Z" fill="black"/>
<path d="M17.4661 30.1686H15.8782V31.7565H17.4661V30.1686Z" fill="black"/>
<path d="M19.0539 30.1686H17.4661V31.7565H19.0539V30.1686Z" fill="black"/>
<path d="M22.2295 30.1686H20.6417V31.7565H22.2295V30.1686Z" fill="black"/>
<path d="M31.7565 30.1686H30.1686V31.7565H31.7565V30.1686Z" fill="black"/>
<path d="M41.2834 30.1686H39.6956V31.7565H41.2834V30.1686Z" fill="black"/>
<path d="M42.8712 30.1686H41.2834V31.7565H42.8712V30.1686Z" fill="black"/>
<path d="M44.4591 30.1686H42.8712V31.7565H44.4591V30.1686Z" fill="black"/>
<path d="M4.76347 31.7565H3.17565V33.3443H4.76347V31.7565Z" fill="black"/>
<path d="M11.1148 31.7565H9.52694V33.3443H11.1148V31.7565Z" fill="black"/>
<path d="M15.8782 31.7565H14.2904V33.3443H15.8782V31.7565Z" fill="black"/>
<path d="M17.4661 31.7565H15.8782V33.3443H17.4661V31.7565Z" fill="black"/>
<path d="M22.2295 31.7565H20.6417V33.3443H22.2295V31.7565Z" fill="black"/>
<path d="M25.4052 31.7565H23.8173V33.3443H25.4052V31.7565Z" fill="black"/>
<path d="M26.993 31.7565H25.4052V33.3443H26.993V31.7565Z" fill="black"/>
<path d="M28.5808 31.7565H26.993V33.3443H28.5808V31.7565Z" fill="black"/>
<path d="M33.3443 31.7565H31.7565V33.3443H33.3443V31.7565Z" fill="black"/>
<path d="M34.9321 31.7565H33.3443V33.3443H34.9321V31.7565Z" fill="black"/>
<path d="M36.5199 31.7565H34.9321V33.3443H36.5199V31.7565Z" fill="black"/>
<path d="M38.1078 31.7565H36.5199V33.3443H38.1078V31.7565Z" fill="black"/>
<path d="M39.6956 31.7565H38.1078V33.3443H39.6956V31.7565Z" fill="black"/>
<path d="M44.4591 31.7565H42.8712V33.3443H44.4591V31.7565Z" fill="black"/>
<path d="M46.0469 31.7565H44.4591V33.3443H46.0469V31.7565Z" fill="black"/>
<path d="M14.2904 33.3443H12.7026V34.9321H14.2904V33.3443Z" fill="black"/>
<path d="M20.6417 33.3443H19.0539V34.9321H20.6417V33.3443Z" fill="black"/>
<path d="M23.8173 33.3443H22.2295V34.9321H23.8173V33.3443Z" fill="black"/>
<path d="M25.4052 33.3443H23.8173V34.9321H25.4052V33.3443Z" fill="black"/>
<path d="M26.993 33.3443H25.4052V34.9321H26.993V33.3443Z" fill="black"/>
<path d="M28.5808 33.3443H26.993V34.9321H28.5808V33.3443Z" fill="black"/>
<path d="M30.1686 33.3443H28.5808V34.9321H30.1686V33.3443Z" fill="black"/>
<path d="M33.3443 33.3443H31.7565V34.9321H33.3443V33.3443Z" fill="black"/>
<path d="M39.6956 33.3443H38.1078V34.9321H39.6956V33.3443Z" fill="black"/>
<path d="M42.8712 33.3443H41.2834V34.9321H42.8712V33.3443Z" fill="black"/>
<path d="M44.4591 33.3443H42.8712V34.9321H44.4591V33.3443Z" fill="black"/>
<path d="M1.58782 34.9321H0V36.5199H1.58782V34.9321Z" fill="black"/>
<path d="M3.17565 34.9321H1.58782V36.5199H3.17565V34.9321Z" fill="black"/>
<path d="M4.76347 34.9321H3.17565V36.5199H4.76347V34.9321Z" fill="black"/>
<path d="M6.35129 34.9321H4.76347V36.5199H6.35129V34.9321Z" fill="black"/>
<path d="M7.93912 34.9321H6.35129V36.5199H7.93912V34.9321Z" fill="black"/>
<path d="M9.52694 34.9321H7.93912V36.5199H9.52694V34.9321Z" fill="black"/>
<path d="M11.1148 34.9321H9.52694V36.5199H11.1148V34.9321Z" fill="black"/>
<path d="M15.8782 34.9321H14.2904V36.5199H15.8782V34.9321Z" fill="black"/>
<path d="M19.0539 34.9321H17.4661V36.5199H19.0539V34.9321Z" fill="black"/>
<path d="M20.6417 34.9321H19.0539V36.5199H20.6417V34.9321Z" fill="black"/>
<path d="M23.8173 34.9321H22.2295V36.5199H23.8173V34.9321Z" fill="black"/>
<path d="M28.5808 34.9321H26.993V36.5199H28.5808V34.9321Z" fill="black"/>
<path d="M33.3443 34.9321H31.7565V36.5199H33.3443V34.9321Z" fill="black"/>
<path d="M36.5199 34.9321H34.9321V36.5199H36.5199V34.9321Z" fill="black"/>
<path d="M39.6956 34.9321H38.1078V36.5199H39.6956V34.9321Z" fill="black"/>
<path d="M41.2834 34.9321H39.6956V36.5199H41.2834V34.9321Z" fill="black"/>
<path d="M46.0469 34.9321H44.4591V36.5199H46.0469V34.9321Z" fill="black"/>
<path d="M1.58782 36.5199H0V38.1078H1.58782V36.5199Z" fill="black"/>
<path d="M11.1148 36.5199H9.52694V38.1078H11.1148V36.5199Z" fill="black"/>
<path d="M14.2904 36.5199H12.7026V38.1078H14.2904V36.5199Z" fill="black"/>
<path d="M17.4661 36.5199H15.8782V38.1078H17.4661V36.5199Z" fill="black"/>
<path d="M19.0539 36.5199H17.4661V38.1078H19.0539V36.5199Z" fill="black"/>
<path d="M22.2295 36.5199H20.6417V38.1078H22.2295V36.5199Z" fill="black"/>
<path d="M28.5808 36.5199H26.993V38.1078H28.5808V36.5199Z" fill="black"/>
<path d="M30.1686 36.5199H28.5808V38.1078H30.1686V36.5199Z" fill="black"/>
<path d="M31.7565 36.5199H30.1686V38.1078H31.7565V36.5199Z" fill="black"/>
<path d="M33.3443 36.5199H31.7565V38.1078H33.3443V36.5199Z" fill="black"/>
<path d="M39.6956 36.5199H38.1078V38.1078H39.6956V36.5199Z" fill="black"/>
<path d="M41.2834 36.5199H39.6956V38.1078H41.2834V36.5199Z" fill="black"/>
<path d="M44.4591 36.5199H42.8712V38.1078H44.4591V36.5199Z" fill="black"/>
<path d="M1.58782 38.1078H0V39.6956H1.58782V38.1078Z" fill="black"/>
<path d="M4.76347 38.1078H3.17565V39.6956H4.76347V38.1078Z" fill="black"/>
<path d="M6.35129 38.1078H4.76347V39.6956H6.35129V38.1078Z" fill="black"/>
<path d="M7.93912 38.1078H6.35129V39.6956H7.93912V38.1078Z" fill="black"/>
<path d="M11.1148 38.1078H9.52694V39.6956H11.1148V38.1078Z" fill="black"/>
<path d="M17.4661 38.1078H15.8782V39.6956H17.4661V38.1078Z" fill="black"/>
<path d="M19.0539 38.1078H17.4661V39.6956H19.0539V38.1078Z" fill="black"/>
<path d="M23.8173 38.1078H22.2295V39.6956H23.8173V38.1078Z" fill="black"/>
<path d="M25.4052 38.1078H23.8173V39.6956H25.4052V38.1078Z" fill="black"/>
<path d="M30.1686 38.1078H28.5808V39.6956H30.1686V38.1078Z" fill="black"/>
<path d="M31.7565 38.1078H30.1686V39.6956H31.7565V38.1078Z" fill="black"/>
<path d="M33.3443 38.1078H31.7565V39.6956H33.3443V38.1078Z" fill="black"/>
<path d="M34.9321 38.1078H33.3443V39.6956H34.9321V38.1078Z" fill="black"/>
<path d="M36.5199 38.1078H34.9321V39.6956H36.5199V38.1078Z" fill="black"/>
<path d="M38.1078 38.1078H36.5199V39.6956H38.1078V38.1078Z" fill="black"/>
<path d="M39.6956 38.1078H38.1078V39.6956H39.6956V38.1078Z" fill="black"/>
<path d="M41.2834 38.1078H39.6956V39.6956H41.2834V38.1078Z" fill="black"/>
<path d="M42.8712 38.1078H41.2834V39.6956H42.8712V38.1078Z" fill="black"/>
<path d="M44.4591 38.1078H42.8712V39.6956H44.4591V38.1078Z" fill="black"/>
<path d="M46.0469 38.1078H44.4591V39.6956H46.0469V38.1078Z" fill="black"/>
<path d="M1.58782 39.6956H0V41.2834H1.58782V39.6956Z" fill="black"/>
<path d="M4.76347 39.6956H3.17565V41.2834H4.76347V39.6956Z" fill="black"/>
<path d="M6.35129 39.6956H4.76347V41.2834H6.35129V39.6956Z" fill="black"/>
<path d="M7.93912 39.6956H6.35129V41.2834H7.93912V39.6956Z" fill="black"/>
<path d="M11.1148 39.6956H9.52694V41.2834H11.1148V39.6956Z" fill="black"/>
<path d="M15.8782 39.6956H14.2904V41.2834H15.8782V39.6956Z" fill="black"/>
<path d="M17.4661 39.6956H15.8782V41.2834H17.4661V39.6956Z" fill="black"/>
<path d="M19.0539 39.6956H17.4661V41.2834H19.0539V39.6956Z" fill="black"/>
<path d="M20.6417 39.6956H19.0539V41.2834H20.6417V39.6956Z" fill="black"/>
<path d="M25.4052 39.6956H23.8173V41.2834H25.4052V39.6956Z" fill="black"/>
<path d="M26.993 39.6956H25.4052V41.2834H26.993V39.6956Z" fill="black"/>
<path d="M30.1686 39.6956H28.5808V41.2834H30.1686V39.6956Z" fill="black"/>
<path d="M39.6956 39.6956H38.1078V41.2834H39.6956V39.6956Z" fill="black"/>
<path d="M41.2834 39.6956H39.6956V41.2834H41.2834V39.6956Z" fill="black"/>
<path d="M1.58782 41.2834H0V42.8712H1.58782V41.2834Z" fill="black"/>
<path d="M4.76347 41.2834H3.17565V42.8712H4.76347V41.2834Z" fill="black"/>
<path d="M6.35129 41.2834H4.76347V42.8712H6.35129V41.2834Z" fill="black"/>
<path d="M7.93912 41.2834H6.35129V42.8712H7.93912V41.2834Z" fill="black"/>
<path d="M11.1148 41.2834H9.52694V42.8712H11.1148V41.2834Z" fill="black"/>
<path d="M17.4661 41.2834H15.8782V42.8712H17.4661V41.2834Z" fill="black"/>
<path d="M19.0539 41.2834H17.4661V42.8712H19.0539V41.2834Z" fill="black"/>
<path d="M22.2295 41.2834H20.6417V42.8712H22.2295V41.2834Z" fill="black"/>
<path d="M23.8173 41.2834H22.2295V42.8712H23.8173V41.2834Z" fill="black"/>
<path d="M33.3443 41.2834H31.7565V42.8712H33.3443V41.2834Z" fill="black"/>
<path d="M34.9321 41.2834H33.3443V42.8712H34.9321V41.2834Z" fill="black"/>
<path d="M38.1078 41.2834H36.5199V42.8712H38.1078V41.2834Z" fill="black"/>
<path d="M1.58782 42.8712H0V44.4591H1.58782V42.8712Z" fill="black"/>
<path d="M11.1148 42.8712H9.52694V44.4591H11.1148V42.8712Z" fill="black"/>
<path d="M17.4661 42.8712H15.8782V44.4591H17.4661V42.8712Z" fill="black"/>
<path d="M19.0539 42.8712H17.4661V44.4591H19.0539V42.8712Z" fill="black"/>
<path d="M20.6417 42.8712H19.0539V44.4591H20.6417V42.8712Z" fill="black"/>
<path d="M23.8173 42.8712H22.2295V44.4591H23.8173V42.8712Z" fill="black"/>
<path d="M25.4052 42.8712H23.8173V44.4591H25.4052V42.8712Z" fill="black"/>
<path d="M26.993 42.8712H25.4052V44.4591H26.993V42.8712Z" fill="black"/>
<path d="M30.1686 42.8712H28.5808V44.4591H30.1686V42.8712Z" fill="black"/>
<path d="M31.7565 42.8712H30.1686V44.4591H31.7565V42.8712Z" fill="black"/>
<path d="M34.9321 42.8712H33.3443V44.4591H34.9321V42.8712Z" fill="black"/>
<path d="M36.5199 42.8712H34.9321V44.4591H36.5199V42.8712Z" fill="black"/>
<path d="M38.1078 42.8712H36.5199V44.4591H38.1078V42.8712Z" fill="black"/>
<path d="M39.6956 42.8712H38.1078V44.4591H39.6956V42.8712Z" fill="black"/>
<path d="M44.4591 42.8712H42.8712V44.4591H44.4591V42.8712Z" fill="black"/>
<path d="M46.0469 42.8712H44.4591V44.4591H46.0469V42.8712Z" fill="black"/>
<path d="M1.58782 44.4591H0V46.0469H1.58782V44.4591Z" fill="black"/>
<path d="M3.17565 44.4591H1.58782V46.0469H3.17565V44.4591Z" fill="black"/>
<path d="M4.76347 44.4591H3.17565V46.0469H4.76347V44.4591Z" fill="black"/>
<path d="M6.35129 44.4591H4.76347V46.0469H6.35129V44.4591Z" fill="black"/>
<path d="M7.93912 44.4591H6.35129V46.0469H7.93912V44.4591Z" fill="black"/>
<path d="M9.52694 44.4591H7.93912V46.0469H9.52694V44.4591Z" fill="black"/>
<path d="M11.1148 44.4591H9.52694V46.0469H11.1148V44.4591Z" fill="black"/>
<path d="M15.8782 44.4591H14.2904V46.0469H15.8782V44.4591Z" fill="black"/>
<path d="M20.6417 44.4591H19.0539V46.0469H20.6417V44.4591Z" fill="black"/>
<path d="M23.8173 44.4591H22.2295V46.0469H23.8173V44.4591Z" fill="black"/>
<path d="M28.5808 44.4591H26.993V46.0469H28.5808V44.4591Z" fill="black"/>
<path d="M30.1686 44.4591H28.5808V46.0469H30.1686V44.4591Z" fill="black"/>
<path d="M31.7565 44.4591H30.1686V46.0469H31.7565V44.4591Z" fill="black"/>
<path d="M34.9321 44.4591H33.3443V46.0469H34.9321V44.4591Z" fill="black"/>
<path d="M41.2834 44.4591H39.6956V46.0469H41.2834V44.4591Z" fill="black"/>
<path d="M42.8712 44.4591H41.2834V46.0469H42.8712V44.4591Z" fill="black"/>
</svg>
