<svg width="819" height="9" viewBox="0 0 819 9" fill="none" xmlns="http://www.w3.org/2000/svg">
<path d="M818.63 0.75538V1.91362C812.889 2.61864 808.709 3.72654 804.63 4.78407C797.832 6.59698 790.832 8.40988 777.084 8.40988C763.286 8.40988 756.286 6.59698 749.538 4.78407C742.84 3.02152 735.891 1.2086 722.294 1.2086C708.647 1.2086 701.748 3.02152 695.05 4.78407C688.251 6.59698 681.252 8.40988 667.504 8.40988C653.705 8.40988 646.706 6.59698 639.958 4.78407C633.26 3.02152 626.361 1.2086 612.714 1.2086C599.117 1.2086 592.167 3.02152 585.469 4.78407C578.721 6.59698 571.722 8.40988 557.923 8.40988C544.175 8.40988 537.176 6.59698 530.377 4.78407C523.679 3.02152 516.78 1.2086 503.183 1.2086C489.536 1.2086 482.637 3.02152 475.939 4.78407C469.141 6.59698 462.141 8.40988 448.393 8.40988C434.595 8.40988 427.595 6.59698 420.847 4.78407C414.149 3.02152 407.2 1.2086 393.603 1.2086C379.956 1.2086 373.057 3.02152 366.359 4.78407C359.611 6.59698 352.611 8.40988 338.813 8.40988C325.065 8.40988 318.065 6.59698 311.267 4.78407C304.569 3.02152 297.67 1.2086 284.023 1.2086C270.426 1.2086 263.476 3.02152 256.779 4.78407C250.031 6.59698 243.031 8.40988 229.283 8.40988C215.485 8.40988 208.485 6.59698 201.737 4.78407C195.039 3.02152 188.09 1.2086 174.493 1.2086C160.845 1.2086 153.946 3.02152 147.249 4.78407C140.45 6.59698 133.45 8.40988 119.702 8.40988C105.955 8.40988 98.9547 6.59698 92.1563 4.78407C85.4586 3.02152 78.5595 1.2086 64.9123 1.2086C51.3154 1.2086 44.366 3.02152 37.6683 4.78407C30.9202 6.59698 23.9204 8.40988 10.1221 8.40988C6.29483 8.40988 2.97116 8.25881 0 8.00702V6.79842C2.9208 7.05021 6.29483 7.20128 10.1221 7.20128C23.7693 7.20128 30.6684 5.38837 37.3661 3.62581C44.1645 1.86326 51.1644 0 64.9123 0C78.7105 0 85.7104 1.86326 92.4585 3.62581C99.1562 5.38837 106.106 7.20128 119.702 7.20128C133.299 7.20128 140.249 5.38837 146.946 3.62581C153.695 1.86326 160.694 0 174.493 0C188.241 0 195.24 1.86326 202.039 3.62581C208.737 5.38837 215.636 7.20128 229.283 7.20128C242.88 7.20128 249.829 5.38837 256.477 3.62581C263.275 1.86326 270.275 0 284.023 0C297.821 0 304.821 1.86326 311.569 3.62581C318.267 5.38837 325.216 7.20128 338.813 7.20128C352.46 7.20128 359.359 5.38837 366.057 3.62581C372.805 1.86326 379.805 0 393.603 0C407.351 0 414.351 1.86326 421.149 3.62581C427.847 5.38837 434.746 7.20128 448.393 7.20128C461.99 7.20128 468.94 5.38837 475.637 3.62581C482.385 1.86326 489.385 0 503.183 0C516.931 0 523.931 1.86326 530.679 3.62581C537.377 5.38837 544.326 7.20128 557.923 7.20128C571.57 7.20128 578.47 5.38837 585.167 3.62581C591.966 1.86326 598.966 0 612.714 0C626.512 0 633.512 1.86326 640.26 3.62581C646.957 5.38837 653.907 7.20128 667.504 7.20128C681.101 7.20128 688.05 5.38837 694.748 3.62581C701.496 1.86326 708.496 0 722.294 0C736.042 0 743.042 1.86326 749.84 3.62581C756.538 5.38837 763.437 7.20128 777.084 7.20128C790.681 7.20128 797.63 5.38837 804.328 3.62581C808.458 2.56828 812.738 1.41004 818.63 0.75538Z" fill="#FEEFD8"/>
</svg>
